%TF.GenerationSoftware,KiCad,Pcbnew,(5.1.6)-1*%
%TF.CreationDate,2020-08-11T23:20:14+02:00*%
%TF.ProjectId,AudioBoard,41756469-6f42-46f6-9172-642e6b696361,rev?*%
%TF.SameCoordinates,Original*%
%TF.FileFunction,Soldermask,Bot*%
%TF.FilePolarity,Negative*%
%FSLAX46Y46*%
G04 Gerber Fmt 4.6, Leading zero omitted, Abs format (unit mm)*
G04 Created by KiCad (PCBNEW (5.1.6)-1) date 2020-08-11 23:20:14*
%MOMM*%
%LPD*%
G01*
G04 APERTURE LIST*
%TA.AperFunction,Profile*%
%ADD10C,0.050000*%
%TD*%
%ADD11C,3.548200*%
%ADD12C,2.350000*%
%ADD13C,2.050000*%
%ADD14C,1.700000*%
%ADD15O,1.800000X1.800000*%
%ADD16R,1.800000X1.800000*%
%ADD17C,3.685000*%
%ADD18C,2.200000*%
%ADD19C,5.560000*%
G04 APERTURE END LIST*
D10*
X50000000Y-150000000D02*
X50000000Y-50000000D01*
X50000000Y-50000000D02*
X150000000Y-50000000D01*
X150000000Y-150000000D02*
X50000000Y-150000000D01*
X150000000Y-50000000D02*
X150000000Y-150000000D01*
D11*
%TO.C,J15*%
X95896000Y-55626000D03*
X69596000Y-55626000D03*
D12*
X71996000Y-52126000D03*
X85996000Y-52126000D03*
D13*
X71996000Y-59376000D03*
X79496000Y-59376000D03*
X85996000Y-59376000D03*
X93496000Y-59376000D03*
%TD*%
D14*
%TO.C,U1*%
X58826400Y-134823200D03*
X61366400Y-134823200D03*
X63906400Y-134823200D03*
X66446400Y-134823200D03*
X68986400Y-134823200D03*
X71526400Y-134823200D03*
X74066400Y-134823200D03*
X76606400Y-134823200D03*
X79146400Y-134823200D03*
X81686400Y-134823200D03*
X84226400Y-134823200D03*
X86766400Y-134823200D03*
X89306400Y-134823200D03*
X61366400Y-122123200D03*
X58826400Y-119583200D03*
X61366400Y-119583200D03*
X63906400Y-119583200D03*
X66446400Y-119583200D03*
X68986400Y-119583200D03*
X71526400Y-119583200D03*
X74066400Y-119583200D03*
X76606400Y-119583200D03*
X79146400Y-119583200D03*
X81686400Y-119583200D03*
X84226400Y-119583200D03*
X86766400Y-119583200D03*
X89306400Y-119583200D03*
X91846400Y-134823200D03*
X91846400Y-132283200D03*
X91846400Y-129743200D03*
X91846400Y-119583200D03*
X91846400Y-122123200D03*
X91846400Y-124663200D03*
X91846400Y-127203200D03*
%TD*%
D15*
%TO.C,JP4*%
X87274400Y-100736400D03*
D16*
X87274400Y-103276400D03*
%TD*%
D15*
%TO.C,JP3*%
X83616800Y-100838000D03*
D16*
X83616800Y-103378000D03*
%TD*%
D15*
%TO.C,JP2*%
X80010000Y-100838000D03*
D16*
X80010000Y-103378000D03*
%TD*%
D15*
%TO.C,JP1*%
X58877200Y-74828400D03*
D16*
X58877200Y-72288400D03*
%TD*%
D17*
%TO.C,J14*%
X129844800Y-60096400D03*
X144854800Y-60096400D03*
D18*
X134849800Y-65096400D03*
X139849800Y-65096400D03*
X132344800Y-52596400D03*
X142354800Y-52596400D03*
X129844800Y-55086400D03*
X137349800Y-55086400D03*
X144854800Y-55086400D03*
%TD*%
D17*
%TO.C,J13*%
X105741600Y-60178800D03*
X120751600Y-60178800D03*
D18*
X110746600Y-65178800D03*
X115746600Y-65178800D03*
X108241600Y-52678800D03*
X118251600Y-52678800D03*
X105741600Y-55168800D03*
X113246600Y-55168800D03*
X120751600Y-55168800D03*
%TD*%
D15*
%TO.C,J12*%
X105000000Y-110080000D03*
X105000000Y-107540000D03*
D16*
X105000000Y-105000000D03*
%TD*%
D15*
%TO.C,J11*%
X105000000Y-130080000D03*
X105000000Y-127540000D03*
D16*
X105000000Y-125000000D03*
%TD*%
D15*
%TO.C,J10*%
X120000000Y-110080000D03*
X120000000Y-107540000D03*
D16*
X120000000Y-105000000D03*
%TD*%
D15*
%TO.C,J9*%
X120000000Y-130080000D03*
X120000000Y-127540000D03*
D16*
X120000000Y-125000000D03*
%TD*%
D15*
%TO.C,J8*%
X135000000Y-110080000D03*
X135000000Y-107540000D03*
D16*
X135000000Y-105000000D03*
%TD*%
D15*
%TO.C,J7*%
X135000000Y-130080000D03*
X135000000Y-127540000D03*
D16*
X135000000Y-125000000D03*
%TD*%
D15*
%TO.C,J6*%
X145542000Y-82804000D03*
X145542000Y-80264000D03*
D16*
X145542000Y-77724000D03*
%TD*%
D19*
%TO.C,J5*%
X58951200Y-59094000D03*
X54051200Y-62144000D03*
X58951200Y-65094000D03*
%TD*%
D15*
%TO.C,J4*%
X143510000Y-105918000D03*
X143510000Y-103378000D03*
D16*
X143510000Y-100838000D03*
%TD*%
D15*
%TO.C,J3*%
X143510000Y-119380000D03*
X143510000Y-116840000D03*
X143510000Y-114300000D03*
D16*
X143510000Y-111760000D03*
%TD*%
D15*
%TO.C,J2*%
X83058000Y-144272000D03*
X85598000Y-144272000D03*
X88138000Y-144272000D03*
X90678000Y-144272000D03*
X93218000Y-144272000D03*
D16*
X95758000Y-144272000D03*
%TD*%
D15*
%TO.C,J1*%
X63906400Y-144424400D03*
X66446400Y-144424400D03*
X68986400Y-144424400D03*
X71526400Y-144424400D03*
X74066400Y-144424400D03*
D16*
X76606400Y-144424400D03*
%TD*%
M02*
