%TF.GenerationSoftware,KiCad,Pcbnew,(5.1.6)-1*%
%TF.CreationDate,2020-08-11T23:20:13+02:00*%
%TF.ProjectId,AudioBoard,41756469-6f42-46f6-9172-642e6b696361,rev?*%
%TF.SameCoordinates,Original*%
%TF.FileFunction,Legend,Top*%
%TF.FilePolarity,Positive*%
%FSLAX46Y46*%
G04 Gerber Fmt 4.6, Leading zero omitted, Abs format (unit mm)*
G04 Created by KiCad (PCBNEW (5.1.6)-1) date 2020-08-11 23:20:13*
%MOMM*%
%LPD*%
G01*
G04 APERTURE LIST*
%ADD10C,0.400000*%
%ADD11C,0.150000*%
%TA.AperFunction,Profile*%
%ADD12C,0.050000*%
%TD*%
%ADD13C,0.120000*%
%ADD14C,0.100000*%
%ADD15C,0.200000*%
%ADD16C,0.254000*%
G04 APERTURE END LIST*
D10*
X111428857Y-146296000D02*
X112857428Y-146296000D01*
X111143142Y-147153142D02*
X112143142Y-144153142D01*
X113143142Y-147153142D01*
X115428857Y-145153142D02*
X115428857Y-147153142D01*
X114143142Y-145153142D02*
X114143142Y-146724571D01*
X114286000Y-147010285D01*
X114571714Y-147153142D01*
X115000285Y-147153142D01*
X115286000Y-147010285D01*
X115428857Y-146867428D01*
X118143142Y-147153142D02*
X118143142Y-144153142D01*
X118143142Y-147010285D02*
X117857428Y-147153142D01*
X117286000Y-147153142D01*
X117000285Y-147010285D01*
X116857428Y-146867428D01*
X116714571Y-146581714D01*
X116714571Y-145724571D01*
X116857428Y-145438857D01*
X117000285Y-145296000D01*
X117286000Y-145153142D01*
X117857428Y-145153142D01*
X118143142Y-145296000D01*
X119571714Y-147153142D02*
X119571714Y-145153142D01*
X119571714Y-144153142D02*
X119428857Y-144296000D01*
X119571714Y-144438857D01*
X119714571Y-144296000D01*
X119571714Y-144153142D01*
X119571714Y-144438857D01*
X121428857Y-147153142D02*
X121143142Y-147010285D01*
X121000285Y-146867428D01*
X120857428Y-146581714D01*
X120857428Y-145724571D01*
X121000285Y-145438857D01*
X121143142Y-145296000D01*
X121428857Y-145153142D01*
X121857428Y-145153142D01*
X122143142Y-145296000D01*
X122286000Y-145438857D01*
X122428857Y-145724571D01*
X122428857Y-146581714D01*
X122286000Y-146867428D01*
X122143142Y-147010285D01*
X121857428Y-147153142D01*
X121428857Y-147153142D01*
X124714571Y-145581714D02*
X125143142Y-145724571D01*
X125286000Y-145867428D01*
X125428857Y-146153142D01*
X125428857Y-146581714D01*
X125286000Y-146867428D01*
X125143142Y-147010285D01*
X124857428Y-147153142D01*
X123714571Y-147153142D01*
X123714571Y-144153142D01*
X124714571Y-144153142D01*
X125000285Y-144296000D01*
X125143142Y-144438857D01*
X125286000Y-144724571D01*
X125286000Y-145010285D01*
X125143142Y-145296000D01*
X125000285Y-145438857D01*
X124714571Y-145581714D01*
X123714571Y-145581714D01*
X127143142Y-147153142D02*
X126857428Y-147010285D01*
X126714571Y-146867428D01*
X126571714Y-146581714D01*
X126571714Y-145724571D01*
X126714571Y-145438857D01*
X126857428Y-145296000D01*
X127143142Y-145153142D01*
X127571714Y-145153142D01*
X127857428Y-145296000D01*
X128000285Y-145438857D01*
X128143142Y-145724571D01*
X128143142Y-146581714D01*
X128000285Y-146867428D01*
X127857428Y-147010285D01*
X127571714Y-147153142D01*
X127143142Y-147153142D01*
X130714571Y-147153142D02*
X130714571Y-145581714D01*
X130571714Y-145296000D01*
X130286000Y-145153142D01*
X129714571Y-145153142D01*
X129428857Y-145296000D01*
X130714571Y-147010285D02*
X130428857Y-147153142D01*
X129714571Y-147153142D01*
X129428857Y-147010285D01*
X129286000Y-146724571D01*
X129286000Y-146438857D01*
X129428857Y-146153142D01*
X129714571Y-146010285D01*
X130428857Y-146010285D01*
X130714571Y-145867428D01*
X132143142Y-147153142D02*
X132143142Y-145153142D01*
X132143142Y-145724571D02*
X132286000Y-145438857D01*
X132428857Y-145296000D01*
X132714571Y-145153142D01*
X133000285Y-145153142D01*
X135286000Y-147153142D02*
X135286000Y-144153142D01*
X135286000Y-147010285D02*
X135000285Y-147153142D01*
X134428857Y-147153142D01*
X134143142Y-147010285D01*
X134000285Y-146867428D01*
X133857428Y-146581714D01*
X133857428Y-145724571D01*
X134000285Y-145438857D01*
X134143142Y-145296000D01*
X134428857Y-145153142D01*
X135000285Y-145153142D01*
X135286000Y-145296000D01*
X138714571Y-145153142D02*
X139428857Y-147153142D01*
X140143142Y-145153142D01*
X141857428Y-144153142D02*
X142143142Y-144153142D01*
X142428857Y-144296000D01*
X142571714Y-144438857D01*
X142714571Y-144724571D01*
X142857428Y-145296000D01*
X142857428Y-146010285D01*
X142714571Y-146581714D01*
X142571714Y-146867428D01*
X142428857Y-147010285D01*
X142143142Y-147153142D01*
X141857428Y-147153142D01*
X141571714Y-147010285D01*
X141428857Y-146867428D01*
X141286000Y-146581714D01*
X141143142Y-146010285D01*
X141143142Y-145296000D01*
X141286000Y-144724571D01*
X141428857Y-144438857D01*
X141571714Y-144296000D01*
X141857428Y-144153142D01*
X144143142Y-146867428D02*
X144286000Y-147010285D01*
X144143142Y-147153142D01*
X144000285Y-147010285D01*
X144143142Y-146867428D01*
X144143142Y-147153142D01*
X147143142Y-147153142D02*
X145428857Y-147153142D01*
X146286000Y-147153142D02*
X146286000Y-144153142D01*
X146000285Y-144581714D01*
X145714571Y-144867428D01*
X145428857Y-145010285D01*
D11*
X83725333Y-56554666D02*
X84201523Y-56554666D01*
X83630095Y-56840380D02*
X83963428Y-55840380D01*
X84296761Y-56840380D01*
X85058666Y-56173714D02*
X85058666Y-56840380D01*
X84630095Y-56173714D02*
X84630095Y-56697523D01*
X84677714Y-56792761D01*
X84772952Y-56840380D01*
X84915809Y-56840380D01*
X85011047Y-56792761D01*
X85058666Y-56745142D01*
X85963428Y-56840380D02*
X85963428Y-55840380D01*
X85963428Y-56792761D02*
X85868190Y-56840380D01*
X85677714Y-56840380D01*
X85582476Y-56792761D01*
X85534857Y-56745142D01*
X85487238Y-56649904D01*
X85487238Y-56364190D01*
X85534857Y-56268952D01*
X85582476Y-56221333D01*
X85677714Y-56173714D01*
X85868190Y-56173714D01*
X85963428Y-56221333D01*
X86439619Y-56840380D02*
X86439619Y-56173714D01*
X86439619Y-55840380D02*
X86392000Y-55888000D01*
X86439619Y-55935619D01*
X86487238Y-55888000D01*
X86439619Y-55840380D01*
X86439619Y-55935619D01*
X87058666Y-56840380D02*
X86963428Y-56792761D01*
X86915809Y-56745142D01*
X86868190Y-56649904D01*
X86868190Y-56364190D01*
X86915809Y-56268952D01*
X86963428Y-56221333D01*
X87058666Y-56173714D01*
X87201523Y-56173714D01*
X87296761Y-56221333D01*
X87344380Y-56268952D01*
X87392000Y-56364190D01*
X87392000Y-56649904D01*
X87344380Y-56745142D01*
X87296761Y-56792761D01*
X87201523Y-56840380D01*
X87058666Y-56840380D01*
X88772952Y-55840380D02*
X88963428Y-55840380D01*
X89058666Y-55888000D01*
X89153904Y-55983238D01*
X89201523Y-56173714D01*
X89201523Y-56507047D01*
X89153904Y-56697523D01*
X89058666Y-56792761D01*
X88963428Y-56840380D01*
X88772952Y-56840380D01*
X88677714Y-56792761D01*
X88582476Y-56697523D01*
X88534857Y-56507047D01*
X88534857Y-56173714D01*
X88582476Y-55983238D01*
X88677714Y-55888000D01*
X88772952Y-55840380D01*
X90058666Y-56173714D02*
X90058666Y-56840380D01*
X89630095Y-56173714D02*
X89630095Y-56697523D01*
X89677714Y-56792761D01*
X89772952Y-56840380D01*
X89915809Y-56840380D01*
X90011047Y-56792761D01*
X90058666Y-56745142D01*
X90392000Y-56173714D02*
X90772952Y-56173714D01*
X90534857Y-55840380D02*
X90534857Y-56697523D01*
X90582476Y-56792761D01*
X90677714Y-56840380D01*
X90772952Y-56840380D01*
X91106285Y-56173714D02*
X91106285Y-57173714D01*
X91106285Y-56221333D02*
X91201523Y-56173714D01*
X91392000Y-56173714D01*
X91487238Y-56221333D01*
X91534857Y-56268952D01*
X91582476Y-56364190D01*
X91582476Y-56649904D01*
X91534857Y-56745142D01*
X91487238Y-56792761D01*
X91392000Y-56840380D01*
X91201523Y-56840380D01*
X91106285Y-56792761D01*
X92439619Y-56173714D02*
X92439619Y-56840380D01*
X92011047Y-56173714D02*
X92011047Y-56697523D01*
X92058666Y-56792761D01*
X92153904Y-56840380D01*
X92296761Y-56840380D01*
X92392000Y-56792761D01*
X92439619Y-56745142D01*
X92772952Y-56173714D02*
X93153904Y-56173714D01*
X92915809Y-55840380D02*
X92915809Y-56697523D01*
X92963428Y-56792761D01*
X93058666Y-56840380D01*
X93153904Y-56840380D01*
X72358761Y-56554666D02*
X72834952Y-56554666D01*
X72263523Y-56840380D02*
X72596857Y-55840380D01*
X72930190Y-56840380D01*
X73692095Y-56173714D02*
X73692095Y-56840380D01*
X73263523Y-56173714D02*
X73263523Y-56697523D01*
X73311142Y-56792761D01*
X73406380Y-56840380D01*
X73549238Y-56840380D01*
X73644476Y-56792761D01*
X73692095Y-56745142D01*
X74596857Y-56840380D02*
X74596857Y-55840380D01*
X74596857Y-56792761D02*
X74501619Y-56840380D01*
X74311142Y-56840380D01*
X74215904Y-56792761D01*
X74168285Y-56745142D01*
X74120666Y-56649904D01*
X74120666Y-56364190D01*
X74168285Y-56268952D01*
X74215904Y-56221333D01*
X74311142Y-56173714D01*
X74501619Y-56173714D01*
X74596857Y-56221333D01*
X75073047Y-56840380D02*
X75073047Y-56173714D01*
X75073047Y-55840380D02*
X75025428Y-55888000D01*
X75073047Y-55935619D01*
X75120666Y-55888000D01*
X75073047Y-55840380D01*
X75073047Y-55935619D01*
X75692095Y-56840380D02*
X75596857Y-56792761D01*
X75549238Y-56745142D01*
X75501619Y-56649904D01*
X75501619Y-56364190D01*
X75549238Y-56268952D01*
X75596857Y-56221333D01*
X75692095Y-56173714D01*
X75834952Y-56173714D01*
X75930190Y-56221333D01*
X75977809Y-56268952D01*
X76025428Y-56364190D01*
X76025428Y-56649904D01*
X75977809Y-56745142D01*
X75930190Y-56792761D01*
X75834952Y-56840380D01*
X75692095Y-56840380D01*
X77215904Y-56840380D02*
X77215904Y-55840380D01*
X77692095Y-56173714D02*
X77692095Y-56840380D01*
X77692095Y-56268952D02*
X77739714Y-56221333D01*
X77834952Y-56173714D01*
X77977809Y-56173714D01*
X78073047Y-56221333D01*
X78120666Y-56316571D01*
X78120666Y-56840380D01*
X78596857Y-56173714D02*
X78596857Y-57173714D01*
X78596857Y-56221333D02*
X78692095Y-56173714D01*
X78882571Y-56173714D01*
X78977809Y-56221333D01*
X79025428Y-56268952D01*
X79073047Y-56364190D01*
X79073047Y-56649904D01*
X79025428Y-56745142D01*
X78977809Y-56792761D01*
X78882571Y-56840380D01*
X78692095Y-56840380D01*
X78596857Y-56792761D01*
X79930190Y-56173714D02*
X79930190Y-56840380D01*
X79501619Y-56173714D02*
X79501619Y-56697523D01*
X79549238Y-56792761D01*
X79644476Y-56840380D01*
X79787333Y-56840380D01*
X79882571Y-56792761D01*
X79930190Y-56745142D01*
X80263523Y-56173714D02*
X80644476Y-56173714D01*
X80406380Y-55840380D02*
X80406380Y-56697523D01*
X80454000Y-56792761D01*
X80549238Y-56840380D01*
X80644476Y-56840380D01*
X134548952Y-62174380D02*
X134548952Y-61174380D01*
X134882285Y-61888666D01*
X135215619Y-61174380D01*
X135215619Y-62174380D01*
X135691809Y-62174380D02*
X135691809Y-61174380D01*
X136168000Y-62174380D02*
X136168000Y-61174380D01*
X136406095Y-61174380D01*
X136548952Y-61222000D01*
X136644190Y-61317238D01*
X136691809Y-61412476D01*
X136739428Y-61602952D01*
X136739428Y-61745809D01*
X136691809Y-61936285D01*
X136644190Y-62031523D01*
X136548952Y-62126761D01*
X136406095Y-62174380D01*
X136168000Y-62174380D01*
X137168000Y-62174380D02*
X137168000Y-61174380D01*
X138596571Y-61174380D02*
X138787047Y-61174380D01*
X138882285Y-61222000D01*
X138977523Y-61317238D01*
X139025142Y-61507714D01*
X139025142Y-61841047D01*
X138977523Y-62031523D01*
X138882285Y-62126761D01*
X138787047Y-62174380D01*
X138596571Y-62174380D01*
X138501333Y-62126761D01*
X138406095Y-62031523D01*
X138358476Y-61841047D01*
X138358476Y-61507714D01*
X138406095Y-61317238D01*
X138501333Y-61222000D01*
X138596571Y-61174380D01*
X139453714Y-61174380D02*
X139453714Y-61983904D01*
X139501333Y-62079142D01*
X139548952Y-62126761D01*
X139644190Y-62174380D01*
X139834666Y-62174380D01*
X139929904Y-62126761D01*
X139977523Y-62079142D01*
X140025142Y-61983904D01*
X140025142Y-61174380D01*
X140358476Y-61174380D02*
X140929904Y-61174380D01*
X140644190Y-62174380D02*
X140644190Y-61174380D01*
X110577619Y-62174380D02*
X110577619Y-61174380D01*
X110910952Y-61888666D01*
X111244285Y-61174380D01*
X111244285Y-62174380D01*
X111720476Y-62174380D02*
X111720476Y-61174380D01*
X112196666Y-62174380D02*
X112196666Y-61174380D01*
X112434761Y-61174380D01*
X112577619Y-61222000D01*
X112672857Y-61317238D01*
X112720476Y-61412476D01*
X112768095Y-61602952D01*
X112768095Y-61745809D01*
X112720476Y-61936285D01*
X112672857Y-62031523D01*
X112577619Y-62126761D01*
X112434761Y-62174380D01*
X112196666Y-62174380D01*
X113196666Y-62174380D02*
X113196666Y-61174380D01*
X114434761Y-62174380D02*
X114434761Y-61174380D01*
X114910952Y-62174380D02*
X114910952Y-61174380D01*
X115482380Y-62174380D01*
X115482380Y-61174380D01*
X143438761Y-97496380D02*
X143438761Y-98305904D01*
X143486380Y-98401142D01*
X143534000Y-98448761D01*
X143629238Y-98496380D01*
X143819714Y-98496380D01*
X143914952Y-98448761D01*
X143962571Y-98401142D01*
X144010190Y-98305904D01*
X144010190Y-97496380D01*
X144438761Y-98210666D02*
X144914952Y-98210666D01*
X144343523Y-98496380D02*
X144676857Y-97496380D01*
X145010190Y-98496380D01*
X145914952Y-98496380D02*
X145581619Y-98020190D01*
X145343523Y-98496380D02*
X145343523Y-97496380D01*
X145724476Y-97496380D01*
X145819714Y-97544000D01*
X145867333Y-97591619D01*
X145914952Y-97686857D01*
X145914952Y-97829714D01*
X145867333Y-97924952D01*
X145819714Y-97972571D01*
X145724476Y-98020190D01*
X145343523Y-98020190D01*
X146200666Y-97496380D02*
X146772095Y-97496380D01*
X146486380Y-98496380D02*
X146486380Y-97496380D01*
X84066190Y-142136761D02*
X84209047Y-142184380D01*
X84447142Y-142184380D01*
X84542380Y-142136761D01*
X84590000Y-142089142D01*
X84637619Y-141993904D01*
X84637619Y-141898666D01*
X84590000Y-141803428D01*
X84542380Y-141755809D01*
X84447142Y-141708190D01*
X84256666Y-141660571D01*
X84161428Y-141612952D01*
X84113809Y-141565333D01*
X84066190Y-141470095D01*
X84066190Y-141374857D01*
X84113809Y-141279619D01*
X84161428Y-141232000D01*
X84256666Y-141184380D01*
X84494761Y-141184380D01*
X84637619Y-141232000D01*
X85066190Y-142184380D02*
X85066190Y-141184380D01*
X85447142Y-141184380D01*
X85542380Y-141232000D01*
X85590000Y-141279619D01*
X85637619Y-141374857D01*
X85637619Y-141517714D01*
X85590000Y-141612952D01*
X85542380Y-141660571D01*
X85447142Y-141708190D01*
X85066190Y-141708190D01*
X86066190Y-142184380D02*
X86066190Y-141184380D01*
X66262476Y-142184380D02*
X66262476Y-141184380D01*
X66691047Y-141279619D02*
X66738666Y-141232000D01*
X66833904Y-141184380D01*
X67072000Y-141184380D01*
X67167238Y-141232000D01*
X67214857Y-141279619D01*
X67262476Y-141374857D01*
X67262476Y-141470095D01*
X67214857Y-141612952D01*
X66643428Y-142184380D01*
X67262476Y-142184380D01*
X67643428Y-142136761D02*
X67786285Y-142184380D01*
X68024380Y-142184380D01*
X68119619Y-142136761D01*
X68167238Y-142089142D01*
X68214857Y-141993904D01*
X68214857Y-141898666D01*
X68167238Y-141803428D01*
X68119619Y-141755809D01*
X68024380Y-141708190D01*
X67833904Y-141660571D01*
X67738666Y-141612952D01*
X67691047Y-141565333D01*
X67643428Y-141470095D01*
X67643428Y-141374857D01*
X67691047Y-141279619D01*
X67738666Y-141232000D01*
X67833904Y-141184380D01*
X68072000Y-141184380D01*
X68214857Y-141232000D01*
X69357714Y-141279619D02*
X69405333Y-141232000D01*
X69500571Y-141184380D01*
X69738666Y-141184380D01*
X69833904Y-141232000D01*
X69881523Y-141279619D01*
X69929142Y-141374857D01*
X69929142Y-141470095D01*
X69881523Y-141612952D01*
X69310095Y-142184380D01*
X69929142Y-142184380D01*
D12*
X50000000Y-150000000D02*
X50000000Y-50000000D01*
X50000000Y-50000000D02*
X150000000Y-50000000D01*
X150000000Y-150000000D02*
X50000000Y-150000000D01*
X150000000Y-50000000D02*
X150000000Y-150000000D01*
D13*
%TO.C,R15*%
X96010800Y-66300878D02*
X96010800Y-65783722D01*
X94590800Y-66300878D02*
X94590800Y-65783722D01*
%TO.C,R14*%
X90499000Y-66298578D02*
X90499000Y-65781422D01*
X89079000Y-66298578D02*
X89079000Y-65781422D01*
%TO.C,R13*%
X77115600Y-68067422D02*
X77115600Y-68584578D01*
X78535600Y-68067422D02*
X78535600Y-68584578D01*
%TO.C,R12*%
X81890800Y-68016622D02*
X81890800Y-68533778D01*
X83310800Y-68016622D02*
X83310800Y-68533778D01*
%TO.C,R11*%
X131655078Y-69394000D02*
X131137922Y-69394000D01*
X131655078Y-70814000D02*
X131137922Y-70814000D01*
%TO.C,R10*%
X141631600Y-70607422D02*
X141631600Y-71124578D01*
X143051600Y-70607422D02*
X143051600Y-71124578D01*
%TO.C,R6*%
X101008922Y-108072000D02*
X101526078Y-108072000D01*
X101008922Y-106652000D02*
X101526078Y-106652000D01*
%TO.C,R5*%
X100754922Y-128218000D02*
X101272078Y-128218000D01*
X100754922Y-126798000D02*
X101272078Y-126798000D01*
%TO.C,R4*%
X115897922Y-108275200D02*
X116415078Y-108275200D01*
X115897922Y-106855200D02*
X116415078Y-106855200D01*
%TO.C,R3*%
X115897922Y-128218000D02*
X116415078Y-128218000D01*
X115897922Y-126798000D02*
X116415078Y-126798000D01*
%TO.C,R2*%
X131059422Y-108021200D02*
X131576578Y-108021200D01*
X131059422Y-106601200D02*
X131576578Y-106601200D01*
%TO.C,R1*%
X130980922Y-128218000D02*
X131498078Y-128218000D01*
X130980922Y-126798000D02*
X131498078Y-126798000D01*
D14*
%TO.C,J15*%
X69246000Y-60576000D02*
X69246000Y-58001000D01*
X96246000Y-60576000D02*
X69246000Y-60576000D01*
X96246000Y-58001000D02*
X96246000Y-60576000D01*
X69246000Y-46876000D02*
X69246000Y-53501000D01*
X96246000Y-46876000D02*
X69246000Y-46876000D01*
X96246000Y-53501000D02*
X96246000Y-46876000D01*
D13*
%TO.C,U2*%
X117154000Y-78847400D02*
X117154000Y-76612400D01*
X117154000Y-76612400D02*
X106874000Y-76612400D01*
X106874000Y-76612400D02*
X106874000Y-83082400D01*
X106874000Y-83082400D02*
X117154000Y-83082400D01*
X117154000Y-83082400D02*
X117154000Y-80847400D01*
X117154000Y-80847400D02*
G75*
G02*
X117154000Y-78847400I0J1000000D01*
G01*
D15*
%TO.C,C14*%
X93023200Y-88558600D02*
X93023200Y-87158600D01*
%TO.C,C13*%
X97392000Y-88431600D02*
X97392000Y-87031600D01*
%TO.C,C12*%
X78299800Y-65067600D02*
X77249800Y-65067600D01*
%TO.C,C11*%
X83125800Y-65024000D02*
X82075800Y-65024000D01*
D13*
%TO.C,U3*%
X72504400Y-95657600D02*
X75804400Y-95657600D01*
X75804400Y-95657600D02*
X75804400Y-91657600D01*
D14*
%TO.C,U1*%
G36*
X71399400Y-127330200D02*
G01*
X71653400Y-127076200D01*
X71907400Y-127457200D01*
X71653400Y-127711200D01*
X71399400Y-127330200D01*
G37*
X71399400Y-127330200D02*
X71653400Y-127076200D01*
X71907400Y-127457200D01*
X71653400Y-127711200D01*
X71399400Y-127330200D01*
G36*
X71780400Y-126949200D02*
G01*
X72034400Y-126695200D01*
X72288400Y-127076200D01*
X72034400Y-127330200D01*
X71780400Y-126949200D01*
G37*
X71780400Y-126949200D02*
X72034400Y-126695200D01*
X72288400Y-127076200D01*
X72034400Y-127330200D01*
X71780400Y-126949200D01*
G36*
X73685400Y-127711200D02*
G01*
X73939400Y-127457200D01*
X74193400Y-127838200D01*
X73939400Y-128092200D01*
X73685400Y-127711200D01*
G37*
X73685400Y-127711200D02*
X73939400Y-127457200D01*
X74193400Y-127838200D01*
X73939400Y-128092200D01*
X73685400Y-127711200D01*
G36*
X73304400Y-127203200D02*
G01*
X73558400Y-126949200D01*
X73812400Y-127330200D01*
X73558400Y-127584200D01*
X73304400Y-127203200D01*
G37*
X73304400Y-127203200D02*
X73558400Y-126949200D01*
X73812400Y-127330200D01*
X73558400Y-127584200D01*
X73304400Y-127203200D01*
G36*
X72923400Y-126695200D02*
G01*
X73177400Y-126441200D01*
X73431400Y-126822200D01*
X73177400Y-127076200D01*
X72923400Y-126695200D01*
G37*
X72923400Y-126695200D02*
X73177400Y-126441200D01*
X73431400Y-126822200D01*
X73177400Y-127076200D01*
X72923400Y-126695200D01*
G36*
X72923400Y-127584200D02*
G01*
X73177400Y-127330200D01*
X73431400Y-127711200D01*
X73177400Y-127965200D01*
X72923400Y-127584200D01*
G37*
X72923400Y-127584200D02*
X73177400Y-127330200D01*
X73431400Y-127711200D01*
X73177400Y-127965200D01*
X72923400Y-127584200D01*
G36*
X72542400Y-127076200D02*
G01*
X72796400Y-126822200D01*
X73050400Y-127203200D01*
X72796400Y-127457200D01*
X72542400Y-127076200D01*
G37*
X72542400Y-127076200D02*
X72796400Y-126822200D01*
X73050400Y-127203200D01*
X72796400Y-127457200D01*
X72542400Y-127076200D01*
G36*
X72161400Y-126568200D02*
G01*
X72415400Y-126314200D01*
X72669400Y-126695200D01*
X72415400Y-126949200D01*
X72161400Y-126568200D01*
G37*
X72161400Y-126568200D02*
X72415400Y-126314200D01*
X72669400Y-126695200D01*
X72415400Y-126949200D01*
X72161400Y-126568200D01*
D11*
X80416400Y-125298200D02*
X80416400Y-122123200D01*
X82956400Y-125298200D02*
X80416400Y-125298200D01*
X82956400Y-122123200D02*
X82956400Y-125298200D01*
X80416400Y-122123200D02*
X82956400Y-122123200D01*
X57556400Y-136093200D02*
X57556400Y-118313200D01*
X93116400Y-136093200D02*
X57556400Y-136093200D01*
X93116400Y-118313200D02*
X93116400Y-136093200D01*
X57556400Y-118313200D02*
X93116400Y-118313200D01*
X79781400Y-132283200D02*
X69621400Y-132283200D01*
X79781400Y-122123200D02*
X69621400Y-122123200D01*
X69621400Y-122123200D02*
X69621400Y-132283200D01*
X79781400Y-132283200D02*
X79781400Y-122123200D01*
X85496400Y-125933200D02*
X90068400Y-125933200D01*
X85496400Y-128473200D02*
X85496400Y-125933200D01*
X90068400Y-128473200D02*
X85496400Y-128473200D01*
X90068400Y-125933200D02*
X90068400Y-128473200D01*
X62636400Y-131013200D02*
X57556400Y-131013200D01*
X62636400Y-123393200D02*
X57556400Y-123393200D01*
X62636400Y-131013200D02*
X62636400Y-123393200D01*
X56286400Y-123393200D02*
X57556400Y-123393200D01*
X56286400Y-131013200D02*
X56286400Y-123393200D01*
X57556400Y-131013200D02*
X56286400Y-131013200D01*
D13*
%TO.C,JP4*%
X88604400Y-102006400D02*
X85944400Y-102006400D01*
X88604400Y-102006400D02*
X88604400Y-99406400D01*
X88604400Y-99406400D02*
X85944400Y-99406400D01*
X85944400Y-102006400D02*
X85944400Y-99406400D01*
X85944400Y-104606400D02*
X85944400Y-103276400D01*
X87274400Y-104606400D02*
X85944400Y-104606400D01*
%TO.C,JP3*%
X84946800Y-102108000D02*
X82286800Y-102108000D01*
X84946800Y-102108000D02*
X84946800Y-99508000D01*
X84946800Y-99508000D02*
X82286800Y-99508000D01*
X82286800Y-102108000D02*
X82286800Y-99508000D01*
X82286800Y-104708000D02*
X82286800Y-103378000D01*
X83616800Y-104708000D02*
X82286800Y-104708000D01*
%TO.C,JP2*%
X81340000Y-102108000D02*
X78680000Y-102108000D01*
X81340000Y-102108000D02*
X81340000Y-99508000D01*
X81340000Y-99508000D02*
X78680000Y-99508000D01*
X78680000Y-102108000D02*
X78680000Y-99508000D01*
X78680000Y-104708000D02*
X78680000Y-103378000D01*
X80010000Y-104708000D02*
X78680000Y-104708000D01*
%TO.C,JP1*%
X57547200Y-73558400D02*
X60207200Y-73558400D01*
X57547200Y-73558400D02*
X57547200Y-76158400D01*
X57547200Y-76158400D02*
X60207200Y-76158400D01*
X60207200Y-73558400D02*
X60207200Y-76158400D01*
X60207200Y-70958400D02*
X60207200Y-72288400D01*
X58877200Y-70958400D02*
X60207200Y-70958400D01*
D14*
%TO.C,J14*%
X129844800Y-52086400D02*
X127349800Y-52086400D01*
X127349800Y-52086400D02*
X127349800Y-67586400D01*
X127349800Y-67586400D02*
X147349800Y-67586400D01*
X147349800Y-67586400D02*
X147349800Y-52086400D01*
X147349800Y-52086400D02*
X144849800Y-52086400D01*
D15*
X147854800Y-55186400D02*
X147854800Y-55186400D01*
X147854800Y-54986400D02*
X147854800Y-54986400D01*
X147854800Y-55186400D02*
G75*
G03*
X147854800Y-54986400I0J100000D01*
G01*
X147854800Y-54986400D02*
G75*
G03*
X147854800Y-55186400I0J-100000D01*
G01*
D14*
%TO.C,J13*%
X105741600Y-52168800D02*
X103246600Y-52168800D01*
X103246600Y-52168800D02*
X103246600Y-67668800D01*
X103246600Y-67668800D02*
X123246600Y-67668800D01*
X123246600Y-67668800D02*
X123246600Y-52168800D01*
X123246600Y-52168800D02*
X120746600Y-52168800D01*
D15*
X123751600Y-55268800D02*
X123751600Y-55268800D01*
X123751600Y-55068800D02*
X123751600Y-55068800D01*
X123751600Y-55268800D02*
G75*
G03*
X123751600Y-55068800I0J100000D01*
G01*
X123751600Y-55068800D02*
G75*
G03*
X123751600Y-55268800I0J-100000D01*
G01*
D13*
%TO.C,J12*%
X103670000Y-106270000D02*
X106330000Y-106270000D01*
X103670000Y-106270000D02*
X103670000Y-111410000D01*
X103670000Y-111410000D02*
X106330000Y-111410000D01*
X106330000Y-106270000D02*
X106330000Y-111410000D01*
X106330000Y-103670000D02*
X106330000Y-105000000D01*
X105000000Y-103670000D02*
X106330000Y-103670000D01*
%TO.C,J11*%
X103670000Y-126270000D02*
X106330000Y-126270000D01*
X103670000Y-126270000D02*
X103670000Y-131410000D01*
X103670000Y-131410000D02*
X106330000Y-131410000D01*
X106330000Y-126270000D02*
X106330000Y-131410000D01*
X106330000Y-123670000D02*
X106330000Y-125000000D01*
X105000000Y-123670000D02*
X106330000Y-123670000D01*
%TO.C,J10*%
X118670000Y-106270000D02*
X121330000Y-106270000D01*
X118670000Y-106270000D02*
X118670000Y-111410000D01*
X118670000Y-111410000D02*
X121330000Y-111410000D01*
X121330000Y-106270000D02*
X121330000Y-111410000D01*
X121330000Y-103670000D02*
X121330000Y-105000000D01*
X120000000Y-103670000D02*
X121330000Y-103670000D01*
%TO.C,J9*%
X118670000Y-126270000D02*
X121330000Y-126270000D01*
X118670000Y-126270000D02*
X118670000Y-131410000D01*
X118670000Y-131410000D02*
X121330000Y-131410000D01*
X121330000Y-126270000D02*
X121330000Y-131410000D01*
X121330000Y-123670000D02*
X121330000Y-125000000D01*
X120000000Y-123670000D02*
X121330000Y-123670000D01*
%TO.C,J8*%
X133670000Y-106270000D02*
X136330000Y-106270000D01*
X133670000Y-106270000D02*
X133670000Y-111410000D01*
X133670000Y-111410000D02*
X136330000Y-111410000D01*
X136330000Y-106270000D02*
X136330000Y-111410000D01*
X136330000Y-103670000D02*
X136330000Y-105000000D01*
X135000000Y-103670000D02*
X136330000Y-103670000D01*
%TO.C,J7*%
X133670000Y-126270000D02*
X136330000Y-126270000D01*
X133670000Y-126270000D02*
X133670000Y-131410000D01*
X133670000Y-131410000D02*
X136330000Y-131410000D01*
X136330000Y-126270000D02*
X136330000Y-131410000D01*
X136330000Y-123670000D02*
X136330000Y-125000000D01*
X135000000Y-123670000D02*
X136330000Y-123670000D01*
%TO.C,J6*%
X144212000Y-78994000D02*
X146872000Y-78994000D01*
X144212000Y-78994000D02*
X144212000Y-84134000D01*
X144212000Y-84134000D02*
X146872000Y-84134000D01*
X146872000Y-78994000D02*
X146872000Y-84134000D01*
X146872000Y-76394000D02*
X146872000Y-77724000D01*
X145542000Y-76394000D02*
X146872000Y-76394000D01*
D14*
%TO.C,J5*%
X63851200Y-58394000D02*
X63851200Y-51394000D01*
X63851200Y-51394000D02*
X54051200Y-51394000D01*
X54051200Y-51394000D02*
X54051200Y-65894000D01*
X54051200Y-65894000D02*
X55951200Y-65894000D01*
D15*
X59051200Y-68394000D02*
X59051200Y-68394000D01*
X58851200Y-68394000D02*
X58851200Y-68394000D01*
X59051200Y-68394000D02*
G75*
G03*
X58851200Y-68394000I-100000J0D01*
G01*
X58851200Y-68394000D02*
G75*
G03*
X59051200Y-68394000I100000J0D01*
G01*
D13*
%TO.C,J4*%
X142180000Y-102108000D02*
X144840000Y-102108000D01*
X142180000Y-102108000D02*
X142180000Y-107248000D01*
X142180000Y-107248000D02*
X144840000Y-107248000D01*
X144840000Y-102108000D02*
X144840000Y-107248000D01*
X144840000Y-99508000D02*
X144840000Y-100838000D01*
X143510000Y-99508000D02*
X144840000Y-99508000D01*
%TO.C,J3*%
X142180000Y-113030000D02*
X144840000Y-113030000D01*
X142180000Y-113030000D02*
X142180000Y-120710000D01*
X142180000Y-120710000D02*
X144840000Y-120710000D01*
X144840000Y-113030000D02*
X144840000Y-120710000D01*
X144840000Y-110430000D02*
X144840000Y-111760000D01*
X143510000Y-110430000D02*
X144840000Y-110430000D01*
%TO.C,J2*%
X94488000Y-142942000D02*
X94488000Y-145602000D01*
X94488000Y-142942000D02*
X81728000Y-142942000D01*
X81728000Y-142942000D02*
X81728000Y-145602000D01*
X94488000Y-145602000D02*
X81728000Y-145602000D01*
X97088000Y-145602000D02*
X95758000Y-145602000D01*
X97088000Y-144272000D02*
X97088000Y-145602000D01*
%TO.C,J1*%
X75336400Y-143094400D02*
X75336400Y-145754400D01*
X75336400Y-143094400D02*
X62576400Y-143094400D01*
X62576400Y-143094400D02*
X62576400Y-145754400D01*
X75336400Y-145754400D02*
X62576400Y-145754400D01*
X77936400Y-145754400D02*
X76606400Y-145754400D01*
X77936400Y-144424400D02*
X77936400Y-145754400D01*
D15*
%TO.C,IC3*%
X76040800Y-83247200D02*
X76040800Y-87847200D01*
X76040800Y-87847200D02*
X68840800Y-87847200D01*
X68840800Y-87847200D02*
X68840800Y-83247200D01*
X68840800Y-83247200D02*
X76040800Y-83247200D01*
X75940800Y-81097200D02*
X75940800Y-82897200D01*
%TO.C,IC2*%
X94766200Y-79658600D02*
X94766200Y-83358600D01*
X94766200Y-83358600D02*
X88266200Y-83358600D01*
X88266200Y-83358600D02*
X88266200Y-79658600D01*
X88266200Y-79658600D02*
X94766200Y-79658600D01*
X95016200Y-77833600D02*
X95016200Y-79308600D01*
%TO.C,IC1*%
X57276400Y-83922400D02*
X53772400Y-83922400D01*
X53772400Y-83922400D02*
X53772400Y-77418400D01*
X53772400Y-77418400D02*
X57276400Y-77418400D01*
X57276400Y-77418400D02*
X57276400Y-83922400D01*
X59524400Y-83785400D02*
X58224400Y-83785400D01*
%TO.C,D1*%
X113337600Y-69915200D02*
X110537600Y-69915200D01*
X114097600Y-71715200D02*
X110537600Y-71715200D01*
%TO.C,C31*%
X77944200Y-93617200D02*
X76894200Y-93617200D01*
%TO.C,C30*%
X71972400Y-97950800D02*
X70572400Y-97950800D01*
%TO.C,C29*%
X96157200Y-62187600D02*
X96157200Y-63237600D01*
%TO.C,C28*%
X88918200Y-63237600D02*
X88918200Y-62187600D01*
%TO.C,C25*%
X72432400Y-73671200D02*
X72432400Y-75071200D01*
%TO.C,C24*%
X88197200Y-74080600D02*
X88197200Y-72680600D01*
%TO.C,C23*%
X93232200Y-73895600D02*
X91832200Y-73895600D01*
%TO.C,C19*%
X97931200Y-81120600D02*
X96531200Y-81120600D01*
%TO.C,C18*%
X76614800Y-75071200D02*
X76614800Y-73671200D01*
%TO.C,C17*%
X96531200Y-74032600D02*
X97931200Y-74032600D01*
%TO.C,C16*%
X77731200Y-77656200D02*
X77731200Y-78706200D01*
%TO.C,C15*%
X78401400Y-82811200D02*
X77351400Y-82811200D01*
%TO.C,C8*%
X100855000Y-110163200D02*
X99805000Y-110163200D01*
%TO.C,C7*%
X100855000Y-130614000D02*
X99805000Y-130614000D01*
%TO.C,C6*%
X115841000Y-110417200D02*
X114791000Y-110417200D01*
%TO.C,C5*%
X115587000Y-130106000D02*
X114537000Y-130106000D01*
%TO.C,C4*%
X130827000Y-110105200D02*
X129777000Y-110105200D01*
%TO.C,C3*%
X130827000Y-130752000D02*
X129777000Y-130752000D01*
%TO.C,C2*%
X62399400Y-81490400D02*
X61349400Y-81490400D01*
%TO.C,C1*%
X53526200Y-71468400D02*
X54576200Y-71468400D01*
%TD*%
%TO.C,R15*%
D11*
X94103180Y-66685157D02*
X93626990Y-67018490D01*
X94103180Y-67256585D02*
X93103180Y-67256585D01*
X93103180Y-66875633D01*
X93150800Y-66780395D01*
X93198419Y-66732776D01*
X93293657Y-66685157D01*
X93436514Y-66685157D01*
X93531752Y-66732776D01*
X93579371Y-66780395D01*
X93626990Y-66875633D01*
X93626990Y-67256585D01*
X94103180Y-65732776D02*
X94103180Y-66304204D01*
X94103180Y-66018490D02*
X93103180Y-66018490D01*
X93246038Y-66113728D01*
X93341276Y-66208966D01*
X93388895Y-66304204D01*
X93103180Y-64828014D02*
X93103180Y-65304204D01*
X93579371Y-65351823D01*
X93531752Y-65304204D01*
X93484133Y-65208966D01*
X93484133Y-64970871D01*
X93531752Y-64875633D01*
X93579371Y-64828014D01*
X93674609Y-64780395D01*
X93912704Y-64780395D01*
X94007942Y-64828014D01*
X94055561Y-64875633D01*
X94103180Y-64970871D01*
X94103180Y-65208966D01*
X94055561Y-65304204D01*
X94007942Y-65351823D01*
%TO.C,R14*%
X88591380Y-66682857D02*
X88115190Y-67016190D01*
X88591380Y-67254285D02*
X87591380Y-67254285D01*
X87591380Y-66873333D01*
X87639000Y-66778095D01*
X87686619Y-66730476D01*
X87781857Y-66682857D01*
X87924714Y-66682857D01*
X88019952Y-66730476D01*
X88067571Y-66778095D01*
X88115190Y-66873333D01*
X88115190Y-67254285D01*
X88591380Y-65730476D02*
X88591380Y-66301904D01*
X88591380Y-66016190D02*
X87591380Y-66016190D01*
X87734238Y-66111428D01*
X87829476Y-66206666D01*
X87877095Y-66301904D01*
X87924714Y-64873333D02*
X88591380Y-64873333D01*
X87543761Y-65111428D02*
X88258047Y-65349523D01*
X88258047Y-64730476D01*
%TO.C,R13*%
X79927980Y-68968857D02*
X79451790Y-69302190D01*
X79927980Y-69540285D02*
X78927980Y-69540285D01*
X78927980Y-69159333D01*
X78975600Y-69064095D01*
X79023219Y-69016476D01*
X79118457Y-68968857D01*
X79261314Y-68968857D01*
X79356552Y-69016476D01*
X79404171Y-69064095D01*
X79451790Y-69159333D01*
X79451790Y-69540285D01*
X79927980Y-68016476D02*
X79927980Y-68587904D01*
X79927980Y-68302190D02*
X78927980Y-68302190D01*
X79070838Y-68397428D01*
X79166076Y-68492666D01*
X79213695Y-68587904D01*
X78927980Y-67683142D02*
X78927980Y-67064095D01*
X79308933Y-67397428D01*
X79308933Y-67254571D01*
X79356552Y-67159333D01*
X79404171Y-67111714D01*
X79499409Y-67064095D01*
X79737504Y-67064095D01*
X79832742Y-67111714D01*
X79880361Y-67159333D01*
X79927980Y-67254571D01*
X79927980Y-67540285D01*
X79880361Y-67635523D01*
X79832742Y-67683142D01*
%TO.C,R12*%
X84703180Y-68918057D02*
X84226990Y-69251390D01*
X84703180Y-69489485D02*
X83703180Y-69489485D01*
X83703180Y-69108533D01*
X83750800Y-69013295D01*
X83798419Y-68965676D01*
X83893657Y-68918057D01*
X84036514Y-68918057D01*
X84131752Y-68965676D01*
X84179371Y-69013295D01*
X84226990Y-69108533D01*
X84226990Y-69489485D01*
X84703180Y-67965676D02*
X84703180Y-68537104D01*
X84703180Y-68251390D02*
X83703180Y-68251390D01*
X83846038Y-68346628D01*
X83941276Y-68441866D01*
X83988895Y-68537104D01*
X83798419Y-67584723D02*
X83750800Y-67537104D01*
X83703180Y-67441866D01*
X83703180Y-67203771D01*
X83750800Y-67108533D01*
X83798419Y-67060914D01*
X83893657Y-67013295D01*
X83988895Y-67013295D01*
X84131752Y-67060914D01*
X84703180Y-67632342D01*
X84703180Y-67013295D01*
%TO.C,R11*%
X130753642Y-72206380D02*
X130420309Y-71730190D01*
X130182214Y-72206380D02*
X130182214Y-71206380D01*
X130563166Y-71206380D01*
X130658404Y-71254000D01*
X130706023Y-71301619D01*
X130753642Y-71396857D01*
X130753642Y-71539714D01*
X130706023Y-71634952D01*
X130658404Y-71682571D01*
X130563166Y-71730190D01*
X130182214Y-71730190D01*
X131706023Y-72206380D02*
X131134595Y-72206380D01*
X131420309Y-72206380D02*
X131420309Y-71206380D01*
X131325071Y-71349238D01*
X131229833Y-71444476D01*
X131134595Y-71492095D01*
X132658404Y-72206380D02*
X132086976Y-72206380D01*
X132372690Y-72206380D02*
X132372690Y-71206380D01*
X132277452Y-71349238D01*
X132182214Y-71444476D01*
X132086976Y-71492095D01*
%TO.C,R10*%
X144443980Y-71508857D02*
X143967790Y-71842190D01*
X144443980Y-72080285D02*
X143443980Y-72080285D01*
X143443980Y-71699333D01*
X143491600Y-71604095D01*
X143539219Y-71556476D01*
X143634457Y-71508857D01*
X143777314Y-71508857D01*
X143872552Y-71556476D01*
X143920171Y-71604095D01*
X143967790Y-71699333D01*
X143967790Y-72080285D01*
X144443980Y-70556476D02*
X144443980Y-71127904D01*
X144443980Y-70842190D02*
X143443980Y-70842190D01*
X143586838Y-70937428D01*
X143682076Y-71032666D01*
X143729695Y-71127904D01*
X143443980Y-69937428D02*
X143443980Y-69842190D01*
X143491600Y-69746952D01*
X143539219Y-69699333D01*
X143634457Y-69651714D01*
X143824933Y-69604095D01*
X144063028Y-69604095D01*
X144253504Y-69651714D01*
X144348742Y-69699333D01*
X144396361Y-69746952D01*
X144443980Y-69842190D01*
X144443980Y-69937428D01*
X144396361Y-70032666D01*
X144348742Y-70080285D01*
X144253504Y-70127904D01*
X144063028Y-70175523D01*
X143824933Y-70175523D01*
X143634457Y-70127904D01*
X143539219Y-70080285D01*
X143491600Y-70032666D01*
X143443980Y-69937428D01*
%TO.C,R9*%
X117446380Y-89297666D02*
X116970190Y-89631000D01*
X117446380Y-89869095D02*
X116446380Y-89869095D01*
X116446380Y-89488142D01*
X116494000Y-89392904D01*
X116541619Y-89345285D01*
X116636857Y-89297666D01*
X116779714Y-89297666D01*
X116874952Y-89345285D01*
X116922571Y-89392904D01*
X116970190Y-89488142D01*
X116970190Y-89869095D01*
X117446380Y-88821476D02*
X117446380Y-88631000D01*
X117398761Y-88535761D01*
X117351142Y-88488142D01*
X117208285Y-88392904D01*
X117017809Y-88345285D01*
X116636857Y-88345285D01*
X116541619Y-88392904D01*
X116494000Y-88440523D01*
X116446380Y-88535761D01*
X116446380Y-88726238D01*
X116494000Y-88821476D01*
X116541619Y-88869095D01*
X116636857Y-88916714D01*
X116874952Y-88916714D01*
X116970190Y-88869095D01*
X117017809Y-88821476D01*
X117065428Y-88726238D01*
X117065428Y-88535761D01*
X117017809Y-88440523D01*
X116970190Y-88392904D01*
X116874952Y-88345285D01*
%TO.C,R8*%
X114957180Y-89515066D02*
X114480990Y-89848400D01*
X114957180Y-90086495D02*
X113957180Y-90086495D01*
X113957180Y-89705542D01*
X114004800Y-89610304D01*
X114052419Y-89562685D01*
X114147657Y-89515066D01*
X114290514Y-89515066D01*
X114385752Y-89562685D01*
X114433371Y-89610304D01*
X114480990Y-89705542D01*
X114480990Y-90086495D01*
X114385752Y-88943638D02*
X114338133Y-89038876D01*
X114290514Y-89086495D01*
X114195276Y-89134114D01*
X114147657Y-89134114D01*
X114052419Y-89086495D01*
X114004800Y-89038876D01*
X113957180Y-88943638D01*
X113957180Y-88753161D01*
X114004800Y-88657923D01*
X114052419Y-88610304D01*
X114147657Y-88562685D01*
X114195276Y-88562685D01*
X114290514Y-88610304D01*
X114338133Y-88657923D01*
X114385752Y-88753161D01*
X114385752Y-88943638D01*
X114433371Y-89038876D01*
X114480990Y-89086495D01*
X114576228Y-89134114D01*
X114766704Y-89134114D01*
X114861942Y-89086495D01*
X114909561Y-89038876D01*
X114957180Y-88943638D01*
X114957180Y-88753161D01*
X114909561Y-88657923D01*
X114861942Y-88610304D01*
X114766704Y-88562685D01*
X114576228Y-88562685D01*
X114480990Y-88610304D01*
X114433371Y-88657923D01*
X114385752Y-88753161D01*
%TO.C,R7*%
X115989933Y-72488380D02*
X115656600Y-72012190D01*
X115418504Y-72488380D02*
X115418504Y-71488380D01*
X115799457Y-71488380D01*
X115894695Y-71536000D01*
X115942314Y-71583619D01*
X115989933Y-71678857D01*
X115989933Y-71821714D01*
X115942314Y-71916952D01*
X115894695Y-71964571D01*
X115799457Y-72012190D01*
X115418504Y-72012190D01*
X116323266Y-71488380D02*
X116989933Y-71488380D01*
X116561361Y-72488380D01*
%TO.C,R6*%
X101100833Y-106164380D02*
X100767500Y-105688190D01*
X100529404Y-106164380D02*
X100529404Y-105164380D01*
X100910357Y-105164380D01*
X101005595Y-105212000D01*
X101053214Y-105259619D01*
X101100833Y-105354857D01*
X101100833Y-105497714D01*
X101053214Y-105592952D01*
X101005595Y-105640571D01*
X100910357Y-105688190D01*
X100529404Y-105688190D01*
X101957976Y-105164380D02*
X101767500Y-105164380D01*
X101672261Y-105212000D01*
X101624642Y-105259619D01*
X101529404Y-105402476D01*
X101481785Y-105592952D01*
X101481785Y-105973904D01*
X101529404Y-106069142D01*
X101577023Y-106116761D01*
X101672261Y-106164380D01*
X101862738Y-106164380D01*
X101957976Y-106116761D01*
X102005595Y-106069142D01*
X102053214Y-105973904D01*
X102053214Y-105735809D01*
X102005595Y-105640571D01*
X101957976Y-105592952D01*
X101862738Y-105545333D01*
X101672261Y-105545333D01*
X101577023Y-105592952D01*
X101529404Y-105640571D01*
X101481785Y-105735809D01*
%TO.C,R5*%
X100846833Y-126310380D02*
X100513500Y-125834190D01*
X100275404Y-126310380D02*
X100275404Y-125310380D01*
X100656357Y-125310380D01*
X100751595Y-125358000D01*
X100799214Y-125405619D01*
X100846833Y-125500857D01*
X100846833Y-125643714D01*
X100799214Y-125738952D01*
X100751595Y-125786571D01*
X100656357Y-125834190D01*
X100275404Y-125834190D01*
X101751595Y-125310380D02*
X101275404Y-125310380D01*
X101227785Y-125786571D01*
X101275404Y-125738952D01*
X101370642Y-125691333D01*
X101608738Y-125691333D01*
X101703976Y-125738952D01*
X101751595Y-125786571D01*
X101799214Y-125881809D01*
X101799214Y-126119904D01*
X101751595Y-126215142D01*
X101703976Y-126262761D01*
X101608738Y-126310380D01*
X101370642Y-126310380D01*
X101275404Y-126262761D01*
X101227785Y-126215142D01*
%TO.C,R4*%
X115989833Y-106367580D02*
X115656500Y-105891390D01*
X115418404Y-106367580D02*
X115418404Y-105367580D01*
X115799357Y-105367580D01*
X115894595Y-105415200D01*
X115942214Y-105462819D01*
X115989833Y-105558057D01*
X115989833Y-105700914D01*
X115942214Y-105796152D01*
X115894595Y-105843771D01*
X115799357Y-105891390D01*
X115418404Y-105891390D01*
X116846976Y-105700914D02*
X116846976Y-106367580D01*
X116608880Y-105319961D02*
X116370785Y-106034247D01*
X116989833Y-106034247D01*
%TO.C,R3*%
X115989833Y-126310380D02*
X115656500Y-125834190D01*
X115418404Y-126310380D02*
X115418404Y-125310380D01*
X115799357Y-125310380D01*
X115894595Y-125358000D01*
X115942214Y-125405619D01*
X115989833Y-125500857D01*
X115989833Y-125643714D01*
X115942214Y-125738952D01*
X115894595Y-125786571D01*
X115799357Y-125834190D01*
X115418404Y-125834190D01*
X116323166Y-125310380D02*
X116942214Y-125310380D01*
X116608880Y-125691333D01*
X116751738Y-125691333D01*
X116846976Y-125738952D01*
X116894595Y-125786571D01*
X116942214Y-125881809D01*
X116942214Y-126119904D01*
X116894595Y-126215142D01*
X116846976Y-126262761D01*
X116751738Y-126310380D01*
X116466023Y-126310380D01*
X116370785Y-126262761D01*
X116323166Y-126215142D01*
%TO.C,R2*%
X131151333Y-106113580D02*
X130818000Y-105637390D01*
X130579904Y-106113580D02*
X130579904Y-105113580D01*
X130960857Y-105113580D01*
X131056095Y-105161200D01*
X131103714Y-105208819D01*
X131151333Y-105304057D01*
X131151333Y-105446914D01*
X131103714Y-105542152D01*
X131056095Y-105589771D01*
X130960857Y-105637390D01*
X130579904Y-105637390D01*
X131532285Y-105208819D02*
X131579904Y-105161200D01*
X131675142Y-105113580D01*
X131913238Y-105113580D01*
X132008476Y-105161200D01*
X132056095Y-105208819D01*
X132103714Y-105304057D01*
X132103714Y-105399295D01*
X132056095Y-105542152D01*
X131484666Y-106113580D01*
X132103714Y-106113580D01*
%TO.C,R1*%
X131072833Y-126310380D02*
X130739500Y-125834190D01*
X130501404Y-126310380D02*
X130501404Y-125310380D01*
X130882357Y-125310380D01*
X130977595Y-125358000D01*
X131025214Y-125405619D01*
X131072833Y-125500857D01*
X131072833Y-125643714D01*
X131025214Y-125738952D01*
X130977595Y-125786571D01*
X130882357Y-125834190D01*
X130501404Y-125834190D01*
X132025214Y-126310380D02*
X131453785Y-126310380D01*
X131739500Y-126310380D02*
X131739500Y-125310380D01*
X131644261Y-125453238D01*
X131549023Y-125548476D01*
X131453785Y-125596095D01*
%TO.C,J15*%
D16*
X81717904Y-53030523D02*
X81717904Y-53937666D01*
X81657428Y-54119095D01*
X81536476Y-54240047D01*
X81355047Y-54300523D01*
X81234095Y-54300523D01*
X82987904Y-54300523D02*
X82262190Y-54300523D01*
X82625047Y-54300523D02*
X82625047Y-53030523D01*
X82504095Y-53211952D01*
X82383142Y-53332904D01*
X82262190Y-53393380D01*
X84136952Y-53030523D02*
X83532190Y-53030523D01*
X83471714Y-53635285D01*
X83532190Y-53574809D01*
X83653142Y-53514333D01*
X83955523Y-53514333D01*
X84076476Y-53574809D01*
X84136952Y-53635285D01*
X84197428Y-53756238D01*
X84197428Y-54058619D01*
X84136952Y-54179571D01*
X84076476Y-54240047D01*
X83955523Y-54300523D01*
X83653142Y-54300523D01*
X83532190Y-54240047D01*
X83471714Y-54179571D01*
%TO.C,U2*%
D11*
X105065580Y-80822704D02*
X105875104Y-80822704D01*
X105970342Y-80775085D01*
X106017961Y-80727466D01*
X106065580Y-80632228D01*
X106065580Y-80441752D01*
X106017961Y-80346514D01*
X105970342Y-80298895D01*
X105875104Y-80251276D01*
X105065580Y-80251276D01*
X105160819Y-79822704D02*
X105113200Y-79775085D01*
X105065580Y-79679847D01*
X105065580Y-79441752D01*
X105113200Y-79346514D01*
X105160819Y-79298895D01*
X105256057Y-79251276D01*
X105351295Y-79251276D01*
X105494152Y-79298895D01*
X106065580Y-79870323D01*
X106065580Y-79251276D01*
%TO.C,C14*%
D16*
X87507771Y-88312171D02*
X87447295Y-88372647D01*
X87265866Y-88433123D01*
X87144914Y-88433123D01*
X86963485Y-88372647D01*
X86842533Y-88251695D01*
X86782057Y-88130742D01*
X86721580Y-87888838D01*
X86721580Y-87707409D01*
X86782057Y-87465504D01*
X86842533Y-87344552D01*
X86963485Y-87223600D01*
X87144914Y-87163123D01*
X87265866Y-87163123D01*
X87447295Y-87223600D01*
X87507771Y-87284076D01*
X88717295Y-88433123D02*
X87991580Y-88433123D01*
X88354438Y-88433123D02*
X88354438Y-87163123D01*
X88233485Y-87344552D01*
X88112533Y-87465504D01*
X87991580Y-87525980D01*
X89805866Y-87586457D02*
X89805866Y-88433123D01*
X89503485Y-87102647D02*
X89201104Y-88009790D01*
X89987295Y-88009790D01*
%TO.C,C13*%
X100893571Y-88058171D02*
X100833095Y-88118647D01*
X100651666Y-88179123D01*
X100530714Y-88179123D01*
X100349285Y-88118647D01*
X100228333Y-87997695D01*
X100167857Y-87876742D01*
X100107380Y-87634838D01*
X100107380Y-87453409D01*
X100167857Y-87211504D01*
X100228333Y-87090552D01*
X100349285Y-86969600D01*
X100530714Y-86909123D01*
X100651666Y-86909123D01*
X100833095Y-86969600D01*
X100893571Y-87030076D01*
X102103095Y-88179123D02*
X101377380Y-88179123D01*
X101740238Y-88179123D02*
X101740238Y-86909123D01*
X101619285Y-87090552D01*
X101498333Y-87211504D01*
X101377380Y-87271980D01*
X102526428Y-86909123D02*
X103312619Y-86909123D01*
X102889285Y-87392933D01*
X103070714Y-87392933D01*
X103191666Y-87453409D01*
X103252142Y-87513885D01*
X103312619Y-87634838D01*
X103312619Y-87937219D01*
X103252142Y-88058171D01*
X103191666Y-88118647D01*
X103070714Y-88179123D01*
X102707857Y-88179123D01*
X102586904Y-88118647D01*
X102526428Y-88058171D01*
%TO.C,C12*%
X76399571Y-65586428D02*
X76460047Y-65646904D01*
X76520523Y-65828333D01*
X76520523Y-65949285D01*
X76460047Y-66130714D01*
X76339095Y-66251666D01*
X76218142Y-66312142D01*
X75976238Y-66372619D01*
X75794809Y-66372619D01*
X75552904Y-66312142D01*
X75431952Y-66251666D01*
X75311000Y-66130714D01*
X75250523Y-65949285D01*
X75250523Y-65828333D01*
X75311000Y-65646904D01*
X75371476Y-65586428D01*
X76520523Y-64376904D02*
X76520523Y-65102619D01*
X76520523Y-64739761D02*
X75250523Y-64739761D01*
X75431952Y-64860714D01*
X75552904Y-64981666D01*
X75613380Y-65102619D01*
X75371476Y-63893095D02*
X75311000Y-63832619D01*
X75250523Y-63711666D01*
X75250523Y-63409285D01*
X75311000Y-63288333D01*
X75371476Y-63227857D01*
X75492428Y-63167380D01*
X75613380Y-63167380D01*
X75794809Y-63227857D01*
X76520523Y-63953571D01*
X76520523Y-63167380D01*
%TO.C,C11*%
X81327171Y-65535628D02*
X81387647Y-65596104D01*
X81448123Y-65777533D01*
X81448123Y-65898485D01*
X81387647Y-66079914D01*
X81266695Y-66200866D01*
X81145742Y-66261342D01*
X80903838Y-66321819D01*
X80722409Y-66321819D01*
X80480504Y-66261342D01*
X80359552Y-66200866D01*
X80238600Y-66079914D01*
X80178123Y-65898485D01*
X80178123Y-65777533D01*
X80238600Y-65596104D01*
X80299076Y-65535628D01*
X81448123Y-64326104D02*
X81448123Y-65051819D01*
X81448123Y-64688961D02*
X80178123Y-64688961D01*
X80359552Y-64809914D01*
X80480504Y-64930866D01*
X80540980Y-65051819D01*
X81448123Y-63116580D02*
X81448123Y-63842295D01*
X81448123Y-63479438D02*
X80178123Y-63479438D01*
X80359552Y-63600390D01*
X80480504Y-63721342D01*
X80540980Y-63842295D01*
%TO.C,U3*%
D11*
X73772780Y-97739104D02*
X74582304Y-97739104D01*
X74677542Y-97691485D01*
X74725161Y-97643866D01*
X74772780Y-97548628D01*
X74772780Y-97358152D01*
X74725161Y-97262914D01*
X74677542Y-97215295D01*
X74582304Y-97167676D01*
X73772780Y-97167676D01*
X73772780Y-96786723D02*
X73772780Y-96167676D01*
X74153733Y-96501009D01*
X74153733Y-96358152D01*
X74201352Y-96262914D01*
X74248971Y-96215295D01*
X74344209Y-96167676D01*
X74582304Y-96167676D01*
X74677542Y-96215295D01*
X74725161Y-96262914D01*
X74772780Y-96358152D01*
X74772780Y-96643866D01*
X74725161Y-96739104D01*
X74677542Y-96786723D01*
%TO.C,JP4*%
X86441066Y-105498780D02*
X86441066Y-106213066D01*
X86393447Y-106355923D01*
X86298209Y-106451161D01*
X86155352Y-106498780D01*
X86060114Y-106498780D01*
X86917257Y-106498780D02*
X86917257Y-105498780D01*
X87298209Y-105498780D01*
X87393447Y-105546400D01*
X87441066Y-105594019D01*
X87488685Y-105689257D01*
X87488685Y-105832114D01*
X87441066Y-105927352D01*
X87393447Y-105974971D01*
X87298209Y-106022590D01*
X86917257Y-106022590D01*
X88345828Y-105832114D02*
X88345828Y-106498780D01*
X88107733Y-105451161D02*
X87869638Y-106165447D01*
X88488685Y-106165447D01*
%TO.C,JP3*%
X82783466Y-105600380D02*
X82783466Y-106314666D01*
X82735847Y-106457523D01*
X82640609Y-106552761D01*
X82497752Y-106600380D01*
X82402514Y-106600380D01*
X83259657Y-106600380D02*
X83259657Y-105600380D01*
X83640609Y-105600380D01*
X83735847Y-105648000D01*
X83783466Y-105695619D01*
X83831085Y-105790857D01*
X83831085Y-105933714D01*
X83783466Y-106028952D01*
X83735847Y-106076571D01*
X83640609Y-106124190D01*
X83259657Y-106124190D01*
X84164419Y-105600380D02*
X84783466Y-105600380D01*
X84450133Y-105981333D01*
X84592990Y-105981333D01*
X84688228Y-106028952D01*
X84735847Y-106076571D01*
X84783466Y-106171809D01*
X84783466Y-106409904D01*
X84735847Y-106505142D01*
X84688228Y-106552761D01*
X84592990Y-106600380D01*
X84307276Y-106600380D01*
X84212038Y-106552761D01*
X84164419Y-106505142D01*
%TO.C,JP2*%
X79176666Y-105600380D02*
X79176666Y-106314666D01*
X79129047Y-106457523D01*
X79033809Y-106552761D01*
X78890952Y-106600380D01*
X78795714Y-106600380D01*
X79652857Y-106600380D02*
X79652857Y-105600380D01*
X80033809Y-105600380D01*
X80129047Y-105648000D01*
X80176666Y-105695619D01*
X80224285Y-105790857D01*
X80224285Y-105933714D01*
X80176666Y-106028952D01*
X80129047Y-106076571D01*
X80033809Y-106124190D01*
X79652857Y-106124190D01*
X80605238Y-105695619D02*
X80652857Y-105648000D01*
X80748095Y-105600380D01*
X80986190Y-105600380D01*
X81081428Y-105648000D01*
X81129047Y-105695619D01*
X81176666Y-105790857D01*
X81176666Y-105886095D01*
X81129047Y-106028952D01*
X80557619Y-106600380D01*
X81176666Y-106600380D01*
%TO.C,JP1*%
X58043866Y-68970780D02*
X58043866Y-69685066D01*
X57996247Y-69827923D01*
X57901009Y-69923161D01*
X57758152Y-69970780D01*
X57662914Y-69970780D01*
X58520057Y-69970780D02*
X58520057Y-68970780D01*
X58901009Y-68970780D01*
X58996247Y-69018400D01*
X59043866Y-69066019D01*
X59091485Y-69161257D01*
X59091485Y-69304114D01*
X59043866Y-69399352D01*
X58996247Y-69446971D01*
X58901009Y-69494590D01*
X58520057Y-69494590D01*
X60043866Y-69970780D02*
X59472438Y-69970780D01*
X59758152Y-69970780D02*
X59758152Y-68970780D01*
X59662914Y-69113638D01*
X59567676Y-69208876D01*
X59472438Y-69256495D01*
%TO.C,J14*%
D16*
X136131904Y-58870923D02*
X136131904Y-59778066D01*
X136071428Y-59959495D01*
X135950476Y-60080447D01*
X135769047Y-60140923D01*
X135648095Y-60140923D01*
X137401904Y-60140923D02*
X136676190Y-60140923D01*
X137039047Y-60140923D02*
X137039047Y-58870923D01*
X136918095Y-59052352D01*
X136797142Y-59173304D01*
X136676190Y-59233780D01*
X138490476Y-59294257D02*
X138490476Y-60140923D01*
X138188095Y-58810447D02*
X137885714Y-59717590D01*
X138671904Y-59717590D01*
%TO.C,J13*%
X112001904Y-58740523D02*
X112001904Y-59647666D01*
X111941428Y-59829095D01*
X111820476Y-59950047D01*
X111639047Y-60010523D01*
X111518095Y-60010523D01*
X113271904Y-60010523D02*
X112546190Y-60010523D01*
X112909047Y-60010523D02*
X112909047Y-58740523D01*
X112788095Y-58921952D01*
X112667142Y-59042904D01*
X112546190Y-59103380D01*
X113695238Y-58740523D02*
X114481428Y-58740523D01*
X114058095Y-59224333D01*
X114239523Y-59224333D01*
X114360476Y-59284809D01*
X114420952Y-59345285D01*
X114481428Y-59466238D01*
X114481428Y-59768619D01*
X114420952Y-59889571D01*
X114360476Y-59950047D01*
X114239523Y-60010523D01*
X113876666Y-60010523D01*
X113755714Y-59950047D01*
X113695238Y-59889571D01*
%TO.C,J12*%
D11*
X104190476Y-101682380D02*
X104190476Y-102396666D01*
X104142857Y-102539523D01*
X104047619Y-102634761D01*
X103904761Y-102682380D01*
X103809523Y-102682380D01*
X105190476Y-102682380D02*
X104619047Y-102682380D01*
X104904761Y-102682380D02*
X104904761Y-101682380D01*
X104809523Y-101825238D01*
X104714285Y-101920476D01*
X104619047Y-101968095D01*
X105571428Y-101777619D02*
X105619047Y-101730000D01*
X105714285Y-101682380D01*
X105952380Y-101682380D01*
X106047619Y-101730000D01*
X106095238Y-101777619D01*
X106142857Y-101872857D01*
X106142857Y-101968095D01*
X106095238Y-102110952D01*
X105523809Y-102682380D01*
X106142857Y-102682380D01*
%TO.C,J11*%
X104190476Y-121682380D02*
X104190476Y-122396666D01*
X104142857Y-122539523D01*
X104047619Y-122634761D01*
X103904761Y-122682380D01*
X103809523Y-122682380D01*
X105190476Y-122682380D02*
X104619047Y-122682380D01*
X104904761Y-122682380D02*
X104904761Y-121682380D01*
X104809523Y-121825238D01*
X104714285Y-121920476D01*
X104619047Y-121968095D01*
X106142857Y-122682380D02*
X105571428Y-122682380D01*
X105857142Y-122682380D02*
X105857142Y-121682380D01*
X105761904Y-121825238D01*
X105666666Y-121920476D01*
X105571428Y-121968095D01*
%TO.C,J10*%
X119190476Y-101682380D02*
X119190476Y-102396666D01*
X119142857Y-102539523D01*
X119047619Y-102634761D01*
X118904761Y-102682380D01*
X118809523Y-102682380D01*
X120190476Y-102682380D02*
X119619047Y-102682380D01*
X119904761Y-102682380D02*
X119904761Y-101682380D01*
X119809523Y-101825238D01*
X119714285Y-101920476D01*
X119619047Y-101968095D01*
X120809523Y-101682380D02*
X120904761Y-101682380D01*
X121000000Y-101730000D01*
X121047619Y-101777619D01*
X121095238Y-101872857D01*
X121142857Y-102063333D01*
X121142857Y-102301428D01*
X121095238Y-102491904D01*
X121047619Y-102587142D01*
X121000000Y-102634761D01*
X120904761Y-102682380D01*
X120809523Y-102682380D01*
X120714285Y-102634761D01*
X120666666Y-102587142D01*
X120619047Y-102491904D01*
X120571428Y-102301428D01*
X120571428Y-102063333D01*
X120619047Y-101872857D01*
X120666666Y-101777619D01*
X120714285Y-101730000D01*
X120809523Y-101682380D01*
%TO.C,J9*%
X119666666Y-121682380D02*
X119666666Y-122396666D01*
X119619047Y-122539523D01*
X119523809Y-122634761D01*
X119380952Y-122682380D01*
X119285714Y-122682380D01*
X120190476Y-122682380D02*
X120380952Y-122682380D01*
X120476190Y-122634761D01*
X120523809Y-122587142D01*
X120619047Y-122444285D01*
X120666666Y-122253809D01*
X120666666Y-121872857D01*
X120619047Y-121777619D01*
X120571428Y-121730000D01*
X120476190Y-121682380D01*
X120285714Y-121682380D01*
X120190476Y-121730000D01*
X120142857Y-121777619D01*
X120095238Y-121872857D01*
X120095238Y-122110952D01*
X120142857Y-122206190D01*
X120190476Y-122253809D01*
X120285714Y-122301428D01*
X120476190Y-122301428D01*
X120571428Y-122253809D01*
X120619047Y-122206190D01*
X120666666Y-122110952D01*
%TO.C,J8*%
X134666666Y-101682380D02*
X134666666Y-102396666D01*
X134619047Y-102539523D01*
X134523809Y-102634761D01*
X134380952Y-102682380D01*
X134285714Y-102682380D01*
X135285714Y-102110952D02*
X135190476Y-102063333D01*
X135142857Y-102015714D01*
X135095238Y-101920476D01*
X135095238Y-101872857D01*
X135142857Y-101777619D01*
X135190476Y-101730000D01*
X135285714Y-101682380D01*
X135476190Y-101682380D01*
X135571428Y-101730000D01*
X135619047Y-101777619D01*
X135666666Y-101872857D01*
X135666666Y-101920476D01*
X135619047Y-102015714D01*
X135571428Y-102063333D01*
X135476190Y-102110952D01*
X135285714Y-102110952D01*
X135190476Y-102158571D01*
X135142857Y-102206190D01*
X135095238Y-102301428D01*
X135095238Y-102491904D01*
X135142857Y-102587142D01*
X135190476Y-102634761D01*
X135285714Y-102682380D01*
X135476190Y-102682380D01*
X135571428Y-102634761D01*
X135619047Y-102587142D01*
X135666666Y-102491904D01*
X135666666Y-102301428D01*
X135619047Y-102206190D01*
X135571428Y-102158571D01*
X135476190Y-102110952D01*
%TO.C,J7*%
X134666666Y-121682380D02*
X134666666Y-122396666D01*
X134619047Y-122539523D01*
X134523809Y-122634761D01*
X134380952Y-122682380D01*
X134285714Y-122682380D01*
X135047619Y-121682380D02*
X135714285Y-121682380D01*
X135285714Y-122682380D01*
%TO.C,J6*%
X145208666Y-74406380D02*
X145208666Y-75120666D01*
X145161047Y-75263523D01*
X145065809Y-75358761D01*
X144922952Y-75406380D01*
X144827714Y-75406380D01*
X146113428Y-74406380D02*
X145922952Y-74406380D01*
X145827714Y-74454000D01*
X145780095Y-74501619D01*
X145684857Y-74644476D01*
X145637238Y-74834952D01*
X145637238Y-75215904D01*
X145684857Y-75311142D01*
X145732476Y-75358761D01*
X145827714Y-75406380D01*
X146018190Y-75406380D01*
X146113428Y-75358761D01*
X146161047Y-75311142D01*
X146208666Y-75215904D01*
X146208666Y-74977809D01*
X146161047Y-74882571D01*
X146113428Y-74834952D01*
X146018190Y-74787333D01*
X145827714Y-74787333D01*
X145732476Y-74834952D01*
X145684857Y-74882571D01*
X145637238Y-74977809D01*
%TO.C,J5*%
D16*
X52390523Y-55658533D02*
X53297666Y-55658533D01*
X53479095Y-55719009D01*
X53600047Y-55839961D01*
X53660523Y-56021390D01*
X53660523Y-56142342D01*
X52390523Y-54449009D02*
X52390523Y-55053771D01*
X52995285Y-55114247D01*
X52934809Y-55053771D01*
X52874333Y-54932819D01*
X52874333Y-54630438D01*
X52934809Y-54509485D01*
X52995285Y-54449009D01*
X53116238Y-54388533D01*
X53418619Y-54388533D01*
X53539571Y-54449009D01*
X53600047Y-54509485D01*
X53660523Y-54630438D01*
X53660523Y-54932819D01*
X53600047Y-55053771D01*
X53539571Y-55114247D01*
%TO.C,J4*%
D11*
X141398666Y-97496380D02*
X141398666Y-98210666D01*
X141351047Y-98353523D01*
X141255809Y-98448761D01*
X141112952Y-98496380D01*
X141017714Y-98496380D01*
X142303428Y-97829714D02*
X142303428Y-98496380D01*
X142065333Y-97448761D02*
X141827238Y-98163047D01*
X142446285Y-98163047D01*
%TO.C,J3*%
X143176666Y-108442380D02*
X143176666Y-109156666D01*
X143129047Y-109299523D01*
X143033809Y-109394761D01*
X142890952Y-109442380D01*
X142795714Y-109442380D01*
X143557619Y-108442380D02*
X144176666Y-108442380D01*
X143843333Y-108823333D01*
X143986190Y-108823333D01*
X144081428Y-108870952D01*
X144129047Y-108918571D01*
X144176666Y-109013809D01*
X144176666Y-109251904D01*
X144129047Y-109347142D01*
X144081428Y-109394761D01*
X143986190Y-109442380D01*
X143700476Y-109442380D01*
X143605238Y-109394761D01*
X143557619Y-109347142D01*
%TO.C,J2*%
X82470666Y-141184380D02*
X82470666Y-141898666D01*
X82423047Y-142041523D01*
X82327809Y-142136761D01*
X82184952Y-142184380D01*
X82089714Y-142184380D01*
X82899238Y-141279619D02*
X82946857Y-141232000D01*
X83042095Y-141184380D01*
X83280190Y-141184380D01*
X83375428Y-141232000D01*
X83423047Y-141279619D01*
X83470666Y-141374857D01*
X83470666Y-141470095D01*
X83423047Y-141612952D01*
X82851619Y-142184380D01*
X83470666Y-142184380D01*
%TO.C,J1*%
X62912666Y-141184380D02*
X62912666Y-141898666D01*
X62865047Y-142041523D01*
X62769809Y-142136761D01*
X62626952Y-142184380D01*
X62531714Y-142184380D01*
X63912666Y-142184380D02*
X63341238Y-142184380D01*
X63626952Y-142184380D02*
X63626952Y-141184380D01*
X63531714Y-141327238D01*
X63436476Y-141422476D01*
X63341238Y-141470095D01*
%TO.C,IC3*%
D16*
X68138523Y-86837761D02*
X66868523Y-86837761D01*
X68017571Y-85507285D02*
X68078047Y-85567761D01*
X68138523Y-85749190D01*
X68138523Y-85870142D01*
X68078047Y-86051571D01*
X67957095Y-86172523D01*
X67836142Y-86233000D01*
X67594238Y-86293476D01*
X67412809Y-86293476D01*
X67170904Y-86233000D01*
X67049952Y-86172523D01*
X66929000Y-86051571D01*
X66868523Y-85870142D01*
X66868523Y-85749190D01*
X66929000Y-85567761D01*
X66989476Y-85507285D01*
X66868523Y-85083952D02*
X66868523Y-84297761D01*
X67352333Y-84721095D01*
X67352333Y-84539666D01*
X67412809Y-84418714D01*
X67473285Y-84358238D01*
X67594238Y-84297761D01*
X67896619Y-84297761D01*
X68017571Y-84358238D01*
X68078047Y-84418714D01*
X68138523Y-84539666D01*
X68138523Y-84902523D01*
X68078047Y-85023476D01*
X68017571Y-85083952D01*
%TO.C,IC2*%
X87518723Y-82748361D02*
X86248723Y-82748361D01*
X87397771Y-81417885D02*
X87458247Y-81478361D01*
X87518723Y-81659790D01*
X87518723Y-81780742D01*
X87458247Y-81962171D01*
X87337295Y-82083123D01*
X87216342Y-82143600D01*
X86974438Y-82204076D01*
X86793009Y-82204076D01*
X86551104Y-82143600D01*
X86430152Y-82083123D01*
X86309200Y-81962171D01*
X86248723Y-81780742D01*
X86248723Y-81659790D01*
X86309200Y-81478361D01*
X86369676Y-81417885D01*
X86369676Y-80934076D02*
X86309200Y-80873600D01*
X86248723Y-80752647D01*
X86248723Y-80450266D01*
X86309200Y-80329314D01*
X86369676Y-80268838D01*
X86490628Y-80208361D01*
X86611580Y-80208361D01*
X86793009Y-80268838D01*
X87518723Y-80994552D01*
X87518723Y-80208361D01*
%TO.C,IC1*%
X54284638Y-86070923D02*
X54284638Y-84800923D01*
X55615114Y-85949971D02*
X55554638Y-86010447D01*
X55373209Y-86070923D01*
X55252257Y-86070923D01*
X55070828Y-86010447D01*
X54949876Y-85889495D01*
X54889400Y-85768542D01*
X54828923Y-85526638D01*
X54828923Y-85345209D01*
X54889400Y-85103304D01*
X54949876Y-84982352D01*
X55070828Y-84861400D01*
X55252257Y-84800923D01*
X55373209Y-84800923D01*
X55554638Y-84861400D01*
X55615114Y-84921876D01*
X56824638Y-86070923D02*
X56098923Y-86070923D01*
X56461780Y-86070923D02*
X56461780Y-84800923D01*
X56340828Y-84982352D01*
X56219876Y-85103304D01*
X56098923Y-85163780D01*
%TO.C,D1*%
X107063419Y-71338923D02*
X107063419Y-70068923D01*
X107365800Y-70068923D01*
X107547228Y-70129400D01*
X107668180Y-70250352D01*
X107728657Y-70371304D01*
X107789133Y-70613209D01*
X107789133Y-70794638D01*
X107728657Y-71036542D01*
X107668180Y-71157495D01*
X107547228Y-71278447D01*
X107365800Y-71338923D01*
X107063419Y-71338923D01*
X108998657Y-71338923D02*
X108272942Y-71338923D01*
X108635800Y-71338923D02*
X108635800Y-70068923D01*
X108514847Y-70250352D01*
X108393895Y-70371304D01*
X108272942Y-70431780D01*
%TO.C,C31*%
X79955571Y-94542428D02*
X80016047Y-94602904D01*
X80076523Y-94784333D01*
X80076523Y-94905285D01*
X80016047Y-95086714D01*
X79895095Y-95207666D01*
X79774142Y-95268142D01*
X79532238Y-95328619D01*
X79350809Y-95328619D01*
X79108904Y-95268142D01*
X78987952Y-95207666D01*
X78867000Y-95086714D01*
X78806523Y-94905285D01*
X78806523Y-94784333D01*
X78867000Y-94602904D01*
X78927476Y-94542428D01*
X78806523Y-94119095D02*
X78806523Y-93332904D01*
X79290333Y-93756238D01*
X79290333Y-93574809D01*
X79350809Y-93453857D01*
X79411285Y-93393380D01*
X79532238Y-93332904D01*
X79834619Y-93332904D01*
X79955571Y-93393380D01*
X80016047Y-93453857D01*
X80076523Y-93574809D01*
X80076523Y-93937666D01*
X80016047Y-94058619D01*
X79955571Y-94119095D01*
X80076523Y-92123380D02*
X80076523Y-92849095D01*
X80076523Y-92486238D02*
X78806523Y-92486238D01*
X78987952Y-92607190D01*
X79108904Y-92728142D01*
X79169380Y-92849095D01*
%TO.C,C30*%
X71725971Y-102873628D02*
X71786447Y-102934104D01*
X71846923Y-103115533D01*
X71846923Y-103236485D01*
X71786447Y-103417914D01*
X71665495Y-103538866D01*
X71544542Y-103599342D01*
X71302638Y-103659819D01*
X71121209Y-103659819D01*
X70879304Y-103599342D01*
X70758352Y-103538866D01*
X70637400Y-103417914D01*
X70576923Y-103236485D01*
X70576923Y-103115533D01*
X70637400Y-102934104D01*
X70697876Y-102873628D01*
X70576923Y-102450295D02*
X70576923Y-101664104D01*
X71060733Y-102087438D01*
X71060733Y-101906009D01*
X71121209Y-101785057D01*
X71181685Y-101724580D01*
X71302638Y-101664104D01*
X71605019Y-101664104D01*
X71725971Y-101724580D01*
X71786447Y-101785057D01*
X71846923Y-101906009D01*
X71846923Y-102268866D01*
X71786447Y-102389819D01*
X71725971Y-102450295D01*
X70576923Y-100877914D02*
X70576923Y-100756961D01*
X70637400Y-100636009D01*
X70697876Y-100575533D01*
X70818828Y-100515057D01*
X71060733Y-100454580D01*
X71363114Y-100454580D01*
X71605019Y-100515057D01*
X71725971Y-100575533D01*
X71786447Y-100636009D01*
X71846923Y-100756961D01*
X71846923Y-100877914D01*
X71786447Y-100998866D01*
X71725971Y-101059342D01*
X71605019Y-101119819D01*
X71363114Y-101180295D01*
X71060733Y-101180295D01*
X70818828Y-101119819D01*
X70697876Y-101059342D01*
X70637400Y-100998866D01*
X70576923Y-100877914D01*
%TO.C,C29*%
X98700771Y-63166171D02*
X98640295Y-63226647D01*
X98458866Y-63287123D01*
X98337914Y-63287123D01*
X98156485Y-63226647D01*
X98035533Y-63105695D01*
X97975057Y-62984742D01*
X97914580Y-62742838D01*
X97914580Y-62561409D01*
X97975057Y-62319504D01*
X98035533Y-62198552D01*
X98156485Y-62077600D01*
X98337914Y-62017123D01*
X98458866Y-62017123D01*
X98640295Y-62077600D01*
X98700771Y-62138076D01*
X99184580Y-62138076D02*
X99245057Y-62077600D01*
X99366009Y-62017123D01*
X99668390Y-62017123D01*
X99789342Y-62077600D01*
X99849819Y-62138076D01*
X99910295Y-62259028D01*
X99910295Y-62379980D01*
X99849819Y-62561409D01*
X99124104Y-63287123D01*
X99910295Y-63287123D01*
X100515057Y-63287123D02*
X100756961Y-63287123D01*
X100877914Y-63226647D01*
X100938390Y-63166171D01*
X101059342Y-62984742D01*
X101119819Y-62742838D01*
X101119819Y-62259028D01*
X101059342Y-62138076D01*
X100998866Y-62077600D01*
X100877914Y-62017123D01*
X100636009Y-62017123D01*
X100515057Y-62077600D01*
X100454580Y-62138076D01*
X100394104Y-62259028D01*
X100394104Y-62561409D01*
X100454580Y-62682361D01*
X100515057Y-62742838D01*
X100636009Y-62803314D01*
X100877914Y-62803314D01*
X100998866Y-62742838D01*
X101059342Y-62682361D01*
X101119819Y-62561409D01*
%TO.C,C28*%
X84781571Y-63166171D02*
X84721095Y-63226647D01*
X84539666Y-63287123D01*
X84418714Y-63287123D01*
X84237285Y-63226647D01*
X84116333Y-63105695D01*
X84055857Y-62984742D01*
X83995380Y-62742838D01*
X83995380Y-62561409D01*
X84055857Y-62319504D01*
X84116333Y-62198552D01*
X84237285Y-62077600D01*
X84418714Y-62017123D01*
X84539666Y-62017123D01*
X84721095Y-62077600D01*
X84781571Y-62138076D01*
X85265380Y-62138076D02*
X85325857Y-62077600D01*
X85446809Y-62017123D01*
X85749190Y-62017123D01*
X85870142Y-62077600D01*
X85930619Y-62138076D01*
X85991095Y-62259028D01*
X85991095Y-62379980D01*
X85930619Y-62561409D01*
X85204904Y-63287123D01*
X85991095Y-63287123D01*
X86716809Y-62561409D02*
X86595857Y-62500933D01*
X86535380Y-62440457D01*
X86474904Y-62319504D01*
X86474904Y-62259028D01*
X86535380Y-62138076D01*
X86595857Y-62077600D01*
X86716809Y-62017123D01*
X86958714Y-62017123D01*
X87079666Y-62077600D01*
X87140142Y-62138076D01*
X87200619Y-62259028D01*
X87200619Y-62319504D01*
X87140142Y-62440457D01*
X87079666Y-62500933D01*
X86958714Y-62561409D01*
X86716809Y-62561409D01*
X86595857Y-62621885D01*
X86535380Y-62682361D01*
X86474904Y-62803314D01*
X86474904Y-63045219D01*
X86535380Y-63166171D01*
X86595857Y-63226647D01*
X86716809Y-63287123D01*
X86958714Y-63287123D01*
X87079666Y-63226647D01*
X87140142Y-63166171D01*
X87200619Y-63045219D01*
X87200619Y-62803314D01*
X87140142Y-62682361D01*
X87079666Y-62621885D01*
X86958714Y-62561409D01*
%TO.C,C27*%
X68576371Y-77110771D02*
X68515895Y-77171247D01*
X68334466Y-77231723D01*
X68213514Y-77231723D01*
X68032085Y-77171247D01*
X67911133Y-77050295D01*
X67850657Y-76929342D01*
X67790180Y-76687438D01*
X67790180Y-76506009D01*
X67850657Y-76264104D01*
X67911133Y-76143152D01*
X68032085Y-76022200D01*
X68213514Y-75961723D01*
X68334466Y-75961723D01*
X68515895Y-76022200D01*
X68576371Y-76082676D01*
X69060180Y-76082676D02*
X69120657Y-76022200D01*
X69241609Y-75961723D01*
X69543990Y-75961723D01*
X69664942Y-76022200D01*
X69725419Y-76082676D01*
X69785895Y-76203628D01*
X69785895Y-76324580D01*
X69725419Y-76506009D01*
X68999704Y-77231723D01*
X69785895Y-77231723D01*
X70209228Y-75961723D02*
X71055895Y-75961723D01*
X70511609Y-77231723D01*
%TO.C,C26*%
D11*
X67937142Y-79503542D02*
X67889523Y-79551161D01*
X67746666Y-79598780D01*
X67651428Y-79598780D01*
X67508571Y-79551161D01*
X67413333Y-79455923D01*
X67365714Y-79360685D01*
X67318095Y-79170209D01*
X67318095Y-79027352D01*
X67365714Y-78836876D01*
X67413333Y-78741638D01*
X67508571Y-78646400D01*
X67651428Y-78598780D01*
X67746666Y-78598780D01*
X67889523Y-78646400D01*
X67937142Y-78694019D01*
X68318095Y-78694019D02*
X68365714Y-78646400D01*
X68460952Y-78598780D01*
X68699047Y-78598780D01*
X68794285Y-78646400D01*
X68841904Y-78694019D01*
X68889523Y-78789257D01*
X68889523Y-78884495D01*
X68841904Y-79027352D01*
X68270476Y-79598780D01*
X68889523Y-79598780D01*
X69746666Y-78598780D02*
X69556190Y-78598780D01*
X69460952Y-78646400D01*
X69413333Y-78694019D01*
X69318095Y-78836876D01*
X69270476Y-79027352D01*
X69270476Y-79408304D01*
X69318095Y-79503542D01*
X69365714Y-79551161D01*
X69460952Y-79598780D01*
X69651428Y-79598780D01*
X69746666Y-79551161D01*
X69794285Y-79503542D01*
X69841904Y-79408304D01*
X69841904Y-79170209D01*
X69794285Y-79074971D01*
X69746666Y-79027352D01*
X69651428Y-78979733D01*
X69460952Y-78979733D01*
X69365714Y-79027352D01*
X69318095Y-79074971D01*
X69270476Y-79170209D01*
%TO.C,C25*%
D16*
X67695971Y-75078771D02*
X67635495Y-75139247D01*
X67454066Y-75199723D01*
X67333114Y-75199723D01*
X67151685Y-75139247D01*
X67030733Y-75018295D01*
X66970257Y-74897342D01*
X66909780Y-74655438D01*
X66909780Y-74474009D01*
X66970257Y-74232104D01*
X67030733Y-74111152D01*
X67151685Y-73990200D01*
X67333114Y-73929723D01*
X67454066Y-73929723D01*
X67635495Y-73990200D01*
X67695971Y-74050676D01*
X68179780Y-74050676D02*
X68240257Y-73990200D01*
X68361209Y-73929723D01*
X68663590Y-73929723D01*
X68784542Y-73990200D01*
X68845019Y-74050676D01*
X68905495Y-74171628D01*
X68905495Y-74292580D01*
X68845019Y-74474009D01*
X68119304Y-75199723D01*
X68905495Y-75199723D01*
X70054542Y-73929723D02*
X69449780Y-73929723D01*
X69389304Y-74534485D01*
X69449780Y-74474009D01*
X69570733Y-74413533D01*
X69873114Y-74413533D01*
X69994066Y-74474009D01*
X70054542Y-74534485D01*
X70115019Y-74655438D01*
X70115019Y-74957819D01*
X70054542Y-75078771D01*
X69994066Y-75139247D01*
X69873114Y-75199723D01*
X69570733Y-75199723D01*
X69449780Y-75139247D01*
X69389304Y-75078771D01*
%TO.C,C24*%
X83206771Y-73961171D02*
X83146295Y-74021647D01*
X82964866Y-74082123D01*
X82843914Y-74082123D01*
X82662485Y-74021647D01*
X82541533Y-73900695D01*
X82481057Y-73779742D01*
X82420580Y-73537838D01*
X82420580Y-73356409D01*
X82481057Y-73114504D01*
X82541533Y-72993552D01*
X82662485Y-72872600D01*
X82843914Y-72812123D01*
X82964866Y-72812123D01*
X83146295Y-72872600D01*
X83206771Y-72933076D01*
X83690580Y-72933076D02*
X83751057Y-72872600D01*
X83872009Y-72812123D01*
X84174390Y-72812123D01*
X84295342Y-72872600D01*
X84355819Y-72933076D01*
X84416295Y-73054028D01*
X84416295Y-73174980D01*
X84355819Y-73356409D01*
X83630104Y-74082123D01*
X84416295Y-74082123D01*
X85504866Y-73235457D02*
X85504866Y-74082123D01*
X85202485Y-72751647D02*
X84900104Y-73658790D01*
X85686295Y-73658790D01*
%TO.C,C23*%
X93112771Y-70768028D02*
X93173247Y-70828504D01*
X93233723Y-71009933D01*
X93233723Y-71130885D01*
X93173247Y-71312314D01*
X93052295Y-71433266D01*
X92931342Y-71493742D01*
X92689438Y-71554219D01*
X92508009Y-71554219D01*
X92266104Y-71493742D01*
X92145152Y-71433266D01*
X92024200Y-71312314D01*
X91963723Y-71130885D01*
X91963723Y-71009933D01*
X92024200Y-70828504D01*
X92084676Y-70768028D01*
X92084676Y-70284219D02*
X92024200Y-70223742D01*
X91963723Y-70102790D01*
X91963723Y-69800409D01*
X92024200Y-69679457D01*
X92084676Y-69618980D01*
X92205628Y-69558504D01*
X92326580Y-69558504D01*
X92508009Y-69618980D01*
X93233723Y-70344695D01*
X93233723Y-69558504D01*
X91963723Y-69135171D02*
X91963723Y-68348980D01*
X92447533Y-68772314D01*
X92447533Y-68590885D01*
X92508009Y-68469933D01*
X92568485Y-68409457D01*
X92689438Y-68348980D01*
X92991819Y-68348980D01*
X93112771Y-68409457D01*
X93173247Y-68469933D01*
X93233723Y-68590885D01*
X93233723Y-68953742D01*
X93173247Y-69074695D01*
X93112771Y-69135171D01*
%TO.C,C22*%
X95449571Y-70666428D02*
X95510047Y-70726904D01*
X95570523Y-70908333D01*
X95570523Y-71029285D01*
X95510047Y-71210714D01*
X95389095Y-71331666D01*
X95268142Y-71392142D01*
X95026238Y-71452619D01*
X94844809Y-71452619D01*
X94602904Y-71392142D01*
X94481952Y-71331666D01*
X94361000Y-71210714D01*
X94300523Y-71029285D01*
X94300523Y-70908333D01*
X94361000Y-70726904D01*
X94421476Y-70666428D01*
X94421476Y-70182619D02*
X94361000Y-70122142D01*
X94300523Y-70001190D01*
X94300523Y-69698809D01*
X94361000Y-69577857D01*
X94421476Y-69517380D01*
X94542428Y-69456904D01*
X94663380Y-69456904D01*
X94844809Y-69517380D01*
X95570523Y-70243095D01*
X95570523Y-69456904D01*
X94421476Y-68973095D02*
X94361000Y-68912619D01*
X94300523Y-68791666D01*
X94300523Y-68489285D01*
X94361000Y-68368333D01*
X94421476Y-68307857D01*
X94542428Y-68247380D01*
X94663380Y-68247380D01*
X94844809Y-68307857D01*
X95570523Y-69033571D01*
X95570523Y-68247380D01*
%TO.C,C21*%
X79193571Y-76856771D02*
X79133095Y-76917247D01*
X78951666Y-76977723D01*
X78830714Y-76977723D01*
X78649285Y-76917247D01*
X78528333Y-76796295D01*
X78467857Y-76675342D01*
X78407380Y-76433438D01*
X78407380Y-76252009D01*
X78467857Y-76010104D01*
X78528333Y-75889152D01*
X78649285Y-75768200D01*
X78830714Y-75707723D01*
X78951666Y-75707723D01*
X79133095Y-75768200D01*
X79193571Y-75828676D01*
X79677380Y-75828676D02*
X79737857Y-75768200D01*
X79858809Y-75707723D01*
X80161190Y-75707723D01*
X80282142Y-75768200D01*
X80342619Y-75828676D01*
X80403095Y-75949628D01*
X80403095Y-76070580D01*
X80342619Y-76252009D01*
X79616904Y-76977723D01*
X80403095Y-76977723D01*
X81612619Y-76977723D02*
X80886904Y-76977723D01*
X81249761Y-76977723D02*
X81249761Y-75707723D01*
X81128809Y-75889152D01*
X81007857Y-76010104D01*
X80886904Y-76070580D01*
%TO.C,C20*%
X84603771Y-76501171D02*
X84543295Y-76561647D01*
X84361866Y-76622123D01*
X84240914Y-76622123D01*
X84059485Y-76561647D01*
X83938533Y-76440695D01*
X83878057Y-76319742D01*
X83817580Y-76077838D01*
X83817580Y-75896409D01*
X83878057Y-75654504D01*
X83938533Y-75533552D01*
X84059485Y-75412600D01*
X84240914Y-75352123D01*
X84361866Y-75352123D01*
X84543295Y-75412600D01*
X84603771Y-75473076D01*
X85087580Y-75473076D02*
X85148057Y-75412600D01*
X85269009Y-75352123D01*
X85571390Y-75352123D01*
X85692342Y-75412600D01*
X85752819Y-75473076D01*
X85813295Y-75594028D01*
X85813295Y-75714980D01*
X85752819Y-75896409D01*
X85027104Y-76622123D01*
X85813295Y-76622123D01*
X86599485Y-75352123D02*
X86720438Y-75352123D01*
X86841390Y-75412600D01*
X86901866Y-75473076D01*
X86962342Y-75594028D01*
X87022819Y-75835933D01*
X87022819Y-76138314D01*
X86962342Y-76380219D01*
X86901866Y-76501171D01*
X86841390Y-76561647D01*
X86720438Y-76622123D01*
X86599485Y-76622123D01*
X86478533Y-76561647D01*
X86418057Y-76501171D01*
X86357580Y-76380219D01*
X86297104Y-76138314D01*
X86297104Y-75835933D01*
X86357580Y-75594028D01*
X86418057Y-75473076D01*
X86478533Y-75412600D01*
X86599485Y-75352123D01*
%TO.C,C19*%
X99970771Y-81930028D02*
X100031247Y-81990504D01*
X100091723Y-82171933D01*
X100091723Y-82292885D01*
X100031247Y-82474314D01*
X99910295Y-82595266D01*
X99789342Y-82655742D01*
X99547438Y-82716219D01*
X99366009Y-82716219D01*
X99124104Y-82655742D01*
X99003152Y-82595266D01*
X98882200Y-82474314D01*
X98821723Y-82292885D01*
X98821723Y-82171933D01*
X98882200Y-81990504D01*
X98942676Y-81930028D01*
X100091723Y-80720504D02*
X100091723Y-81446219D01*
X100091723Y-81083361D02*
X98821723Y-81083361D01*
X99003152Y-81204314D01*
X99124104Y-81325266D01*
X99184580Y-81446219D01*
X100091723Y-80115742D02*
X100091723Y-79873838D01*
X100031247Y-79752885D01*
X99970771Y-79692409D01*
X99789342Y-79571457D01*
X99547438Y-79510980D01*
X99063628Y-79510980D01*
X98942676Y-79571457D01*
X98882200Y-79631933D01*
X98821723Y-79752885D01*
X98821723Y-79994790D01*
X98882200Y-80115742D01*
X98942676Y-80176219D01*
X99063628Y-80236695D01*
X99366009Y-80236695D01*
X99486961Y-80176219D01*
X99547438Y-80115742D01*
X99607914Y-79994790D01*
X99607914Y-79752885D01*
X99547438Y-79631933D01*
X99486961Y-79571457D01*
X99366009Y-79510980D01*
%TO.C,C18*%
X79955571Y-74824771D02*
X79895095Y-74885247D01*
X79713666Y-74945723D01*
X79592714Y-74945723D01*
X79411285Y-74885247D01*
X79290333Y-74764295D01*
X79229857Y-74643342D01*
X79169380Y-74401438D01*
X79169380Y-74220009D01*
X79229857Y-73978104D01*
X79290333Y-73857152D01*
X79411285Y-73736200D01*
X79592714Y-73675723D01*
X79713666Y-73675723D01*
X79895095Y-73736200D01*
X79955571Y-73796676D01*
X81165095Y-74945723D02*
X80439380Y-74945723D01*
X80802238Y-74945723D02*
X80802238Y-73675723D01*
X80681285Y-73857152D01*
X80560333Y-73978104D01*
X80439380Y-74038580D01*
X81890809Y-74220009D02*
X81769857Y-74159533D01*
X81709380Y-74099057D01*
X81648904Y-73978104D01*
X81648904Y-73917628D01*
X81709380Y-73796676D01*
X81769857Y-73736200D01*
X81890809Y-73675723D01*
X82132714Y-73675723D01*
X82253666Y-73736200D01*
X82314142Y-73796676D01*
X82374619Y-73917628D01*
X82374619Y-73978104D01*
X82314142Y-74099057D01*
X82253666Y-74159533D01*
X82132714Y-74220009D01*
X81890809Y-74220009D01*
X81769857Y-74280485D01*
X81709380Y-74340961D01*
X81648904Y-74461914D01*
X81648904Y-74703819D01*
X81709380Y-74824771D01*
X81769857Y-74885247D01*
X81890809Y-74945723D01*
X82132714Y-74945723D01*
X82253666Y-74885247D01*
X82314142Y-74824771D01*
X82374619Y-74703819D01*
X82374619Y-74461914D01*
X82314142Y-74340961D01*
X82253666Y-74280485D01*
X82132714Y-74220009D01*
%TO.C,C17*%
X97684771Y-70666428D02*
X97745247Y-70726904D01*
X97805723Y-70908333D01*
X97805723Y-71029285D01*
X97745247Y-71210714D01*
X97624295Y-71331666D01*
X97503342Y-71392142D01*
X97261438Y-71452619D01*
X97080009Y-71452619D01*
X96838104Y-71392142D01*
X96717152Y-71331666D01*
X96596200Y-71210714D01*
X96535723Y-71029285D01*
X96535723Y-70908333D01*
X96596200Y-70726904D01*
X96656676Y-70666428D01*
X97805723Y-69456904D02*
X97805723Y-70182619D01*
X97805723Y-69819761D02*
X96535723Y-69819761D01*
X96717152Y-69940714D01*
X96838104Y-70061666D01*
X96898580Y-70182619D01*
X96535723Y-69033571D02*
X96535723Y-68186904D01*
X97805723Y-68731190D01*
%TO.C,C16*%
X80463571Y-78685571D02*
X80403095Y-78746047D01*
X80221666Y-78806523D01*
X80100714Y-78806523D01*
X79919285Y-78746047D01*
X79798333Y-78625095D01*
X79737857Y-78504142D01*
X79677380Y-78262238D01*
X79677380Y-78080809D01*
X79737857Y-77838904D01*
X79798333Y-77717952D01*
X79919285Y-77597000D01*
X80100714Y-77536523D01*
X80221666Y-77536523D01*
X80403095Y-77597000D01*
X80463571Y-77657476D01*
X81673095Y-78806523D02*
X80947380Y-78806523D01*
X81310238Y-78806523D02*
X81310238Y-77536523D01*
X81189285Y-77717952D01*
X81068333Y-77838904D01*
X80947380Y-77899380D01*
X82761666Y-77536523D02*
X82519761Y-77536523D01*
X82398809Y-77597000D01*
X82338333Y-77657476D01*
X82217380Y-77838904D01*
X82156904Y-78080809D01*
X82156904Y-78564619D01*
X82217380Y-78685571D01*
X82277857Y-78746047D01*
X82398809Y-78806523D01*
X82640714Y-78806523D01*
X82761666Y-78746047D01*
X82822142Y-78685571D01*
X82882619Y-78564619D01*
X82882619Y-78262238D01*
X82822142Y-78141285D01*
X82761666Y-78080809D01*
X82640714Y-78020333D01*
X82398809Y-78020333D01*
X82277857Y-78080809D01*
X82217380Y-78141285D01*
X82156904Y-78262238D01*
%TO.C,C15*%
X80463571Y-83627628D02*
X80524047Y-83688104D01*
X80584523Y-83869533D01*
X80584523Y-83990485D01*
X80524047Y-84171914D01*
X80403095Y-84292866D01*
X80282142Y-84353342D01*
X80040238Y-84413819D01*
X79858809Y-84413819D01*
X79616904Y-84353342D01*
X79495952Y-84292866D01*
X79375000Y-84171914D01*
X79314523Y-83990485D01*
X79314523Y-83869533D01*
X79375000Y-83688104D01*
X79435476Y-83627628D01*
X80584523Y-82418104D02*
X80584523Y-83143819D01*
X80584523Y-82780961D02*
X79314523Y-82780961D01*
X79495952Y-82901914D01*
X79616904Y-83022866D01*
X79677380Y-83143819D01*
X79314523Y-81269057D02*
X79314523Y-81873819D01*
X79919285Y-81934295D01*
X79858809Y-81873819D01*
X79798333Y-81752866D01*
X79798333Y-81450485D01*
X79858809Y-81329533D01*
X79919285Y-81269057D01*
X80040238Y-81208580D01*
X80342619Y-81208580D01*
X80463571Y-81269057D01*
X80524047Y-81329533D01*
X80584523Y-81450485D01*
X80584523Y-81752866D01*
X80524047Y-81873819D01*
X80463571Y-81934295D01*
%TO.C,C10*%
X87321571Y-90623571D02*
X87261095Y-90684047D01*
X87079666Y-90744523D01*
X86958714Y-90744523D01*
X86777285Y-90684047D01*
X86656333Y-90563095D01*
X86595857Y-90442142D01*
X86535380Y-90200238D01*
X86535380Y-90018809D01*
X86595857Y-89776904D01*
X86656333Y-89655952D01*
X86777285Y-89535000D01*
X86958714Y-89474523D01*
X87079666Y-89474523D01*
X87261095Y-89535000D01*
X87321571Y-89595476D01*
X88531095Y-90744523D02*
X87805380Y-90744523D01*
X88168238Y-90744523D02*
X88168238Y-89474523D01*
X88047285Y-89655952D01*
X87926333Y-89776904D01*
X87805380Y-89837380D01*
X89317285Y-89474523D02*
X89438238Y-89474523D01*
X89559190Y-89535000D01*
X89619666Y-89595476D01*
X89680142Y-89716428D01*
X89740619Y-89958333D01*
X89740619Y-90260714D01*
X89680142Y-90502619D01*
X89619666Y-90623571D01*
X89559190Y-90684047D01*
X89438238Y-90744523D01*
X89317285Y-90744523D01*
X89196333Y-90684047D01*
X89135857Y-90623571D01*
X89075380Y-90502619D01*
X89014904Y-90260714D01*
X89014904Y-89958333D01*
X89075380Y-89716428D01*
X89135857Y-89595476D01*
X89196333Y-89535000D01*
X89317285Y-89474523D01*
%TO.C,C9*%
X100695333Y-90979171D02*
X100634857Y-91039647D01*
X100453428Y-91100123D01*
X100332476Y-91100123D01*
X100151047Y-91039647D01*
X100030095Y-90918695D01*
X99969619Y-90797742D01*
X99909142Y-90555838D01*
X99909142Y-90374409D01*
X99969619Y-90132504D01*
X100030095Y-90011552D01*
X100151047Y-89890600D01*
X100332476Y-89830123D01*
X100453428Y-89830123D01*
X100634857Y-89890600D01*
X100695333Y-89951076D01*
X101300095Y-91100123D02*
X101542000Y-91100123D01*
X101662952Y-91039647D01*
X101723428Y-90979171D01*
X101844380Y-90797742D01*
X101904857Y-90555838D01*
X101904857Y-90072028D01*
X101844380Y-89951076D01*
X101783904Y-89890600D01*
X101662952Y-89830123D01*
X101421047Y-89830123D01*
X101300095Y-89890600D01*
X101239619Y-89951076D01*
X101179142Y-90072028D01*
X101179142Y-90374409D01*
X101239619Y-90495361D01*
X101300095Y-90555838D01*
X101421047Y-90616314D01*
X101662952Y-90616314D01*
X101783904Y-90555838D01*
X101844380Y-90495361D01*
X101904857Y-90374409D01*
%TO.C,C8*%
X98751571Y-110374866D02*
X98812047Y-110435342D01*
X98872523Y-110616771D01*
X98872523Y-110737723D01*
X98812047Y-110919152D01*
X98691095Y-111040104D01*
X98570142Y-111100580D01*
X98328238Y-111161057D01*
X98146809Y-111161057D01*
X97904904Y-111100580D01*
X97783952Y-111040104D01*
X97663000Y-110919152D01*
X97602523Y-110737723D01*
X97602523Y-110616771D01*
X97663000Y-110435342D01*
X97723476Y-110374866D01*
X98146809Y-109649152D02*
X98086333Y-109770104D01*
X98025857Y-109830580D01*
X97904904Y-109891057D01*
X97844428Y-109891057D01*
X97723476Y-109830580D01*
X97663000Y-109770104D01*
X97602523Y-109649152D01*
X97602523Y-109407247D01*
X97663000Y-109286295D01*
X97723476Y-109225819D01*
X97844428Y-109165342D01*
X97904904Y-109165342D01*
X98025857Y-109225819D01*
X98086333Y-109286295D01*
X98146809Y-109407247D01*
X98146809Y-109649152D01*
X98207285Y-109770104D01*
X98267761Y-109830580D01*
X98388714Y-109891057D01*
X98630619Y-109891057D01*
X98751571Y-109830580D01*
X98812047Y-109770104D01*
X98872523Y-109649152D01*
X98872523Y-109407247D01*
X98812047Y-109286295D01*
X98751571Y-109225819D01*
X98630619Y-109165342D01*
X98388714Y-109165342D01*
X98267761Y-109225819D01*
X98207285Y-109286295D01*
X98146809Y-109407247D01*
%TO.C,C7*%
X98751571Y-130767666D02*
X98812047Y-130828142D01*
X98872523Y-131009571D01*
X98872523Y-131130523D01*
X98812047Y-131311952D01*
X98691095Y-131432904D01*
X98570142Y-131493380D01*
X98328238Y-131553857D01*
X98146809Y-131553857D01*
X97904904Y-131493380D01*
X97783952Y-131432904D01*
X97663000Y-131311952D01*
X97602523Y-131130523D01*
X97602523Y-131009571D01*
X97663000Y-130828142D01*
X97723476Y-130767666D01*
X97602523Y-130344333D02*
X97602523Y-129497666D01*
X98872523Y-130041952D01*
%TO.C,C6*%
X113991571Y-110628866D02*
X114052047Y-110689342D01*
X114112523Y-110870771D01*
X114112523Y-110991723D01*
X114052047Y-111173152D01*
X113931095Y-111294104D01*
X113810142Y-111354580D01*
X113568238Y-111415057D01*
X113386809Y-111415057D01*
X113144904Y-111354580D01*
X113023952Y-111294104D01*
X112903000Y-111173152D01*
X112842523Y-110991723D01*
X112842523Y-110870771D01*
X112903000Y-110689342D01*
X112963476Y-110628866D01*
X112842523Y-109540295D02*
X112842523Y-109782200D01*
X112903000Y-109903152D01*
X112963476Y-109963628D01*
X113144904Y-110084580D01*
X113386809Y-110145057D01*
X113870619Y-110145057D01*
X113991571Y-110084580D01*
X114052047Y-110024104D01*
X114112523Y-109903152D01*
X114112523Y-109661247D01*
X114052047Y-109540295D01*
X113991571Y-109479819D01*
X113870619Y-109419342D01*
X113568238Y-109419342D01*
X113447285Y-109479819D01*
X113386809Y-109540295D01*
X113326333Y-109661247D01*
X113326333Y-109903152D01*
X113386809Y-110024104D01*
X113447285Y-110084580D01*
X113568238Y-110145057D01*
%TO.C,C5*%
X113483571Y-130259666D02*
X113544047Y-130320142D01*
X113604523Y-130501571D01*
X113604523Y-130622523D01*
X113544047Y-130803952D01*
X113423095Y-130924904D01*
X113302142Y-130985380D01*
X113060238Y-131045857D01*
X112878809Y-131045857D01*
X112636904Y-130985380D01*
X112515952Y-130924904D01*
X112395000Y-130803952D01*
X112334523Y-130622523D01*
X112334523Y-130501571D01*
X112395000Y-130320142D01*
X112455476Y-130259666D01*
X112334523Y-129110619D02*
X112334523Y-129715380D01*
X112939285Y-129775857D01*
X112878809Y-129715380D01*
X112818333Y-129594428D01*
X112818333Y-129292047D01*
X112878809Y-129171095D01*
X112939285Y-129110619D01*
X113060238Y-129050142D01*
X113362619Y-129050142D01*
X113483571Y-129110619D01*
X113544047Y-129171095D01*
X113604523Y-129292047D01*
X113604523Y-129594428D01*
X113544047Y-129715380D01*
X113483571Y-129775857D01*
%TO.C,C4*%
X128723571Y-110367666D02*
X128784047Y-110428142D01*
X128844523Y-110609571D01*
X128844523Y-110730523D01*
X128784047Y-110911952D01*
X128663095Y-111032904D01*
X128542142Y-111093380D01*
X128300238Y-111153857D01*
X128118809Y-111153857D01*
X127876904Y-111093380D01*
X127755952Y-111032904D01*
X127635000Y-110911952D01*
X127574523Y-110730523D01*
X127574523Y-110609571D01*
X127635000Y-110428142D01*
X127695476Y-110367666D01*
X127997857Y-109279095D02*
X128844523Y-109279095D01*
X127514047Y-109581476D02*
X128421190Y-109883857D01*
X128421190Y-109097666D01*
%TO.C,C3*%
X128723571Y-130905666D02*
X128784047Y-130966142D01*
X128844523Y-131147571D01*
X128844523Y-131268523D01*
X128784047Y-131449952D01*
X128663095Y-131570904D01*
X128542142Y-131631380D01*
X128300238Y-131691857D01*
X128118809Y-131691857D01*
X127876904Y-131631380D01*
X127755952Y-131570904D01*
X127635000Y-131449952D01*
X127574523Y-131268523D01*
X127574523Y-131147571D01*
X127635000Y-130966142D01*
X127695476Y-130905666D01*
X127574523Y-130482333D02*
X127574523Y-129696142D01*
X128058333Y-130119476D01*
X128058333Y-129938047D01*
X128118809Y-129817095D01*
X128179285Y-129756619D01*
X128300238Y-129696142D01*
X128602619Y-129696142D01*
X128723571Y-129756619D01*
X128784047Y-129817095D01*
X128844523Y-129938047D01*
X128844523Y-130300904D01*
X128784047Y-130421857D01*
X128723571Y-130482333D01*
%TO.C,C2*%
X62429571Y-84793666D02*
X62490047Y-84854142D01*
X62550523Y-85035571D01*
X62550523Y-85156523D01*
X62490047Y-85337952D01*
X62369095Y-85458904D01*
X62248142Y-85519380D01*
X62006238Y-85579857D01*
X61824809Y-85579857D01*
X61582904Y-85519380D01*
X61461952Y-85458904D01*
X61341000Y-85337952D01*
X61280523Y-85156523D01*
X61280523Y-85035571D01*
X61341000Y-84854142D01*
X61401476Y-84793666D01*
X61401476Y-84309857D02*
X61341000Y-84249380D01*
X61280523Y-84128428D01*
X61280523Y-83826047D01*
X61341000Y-83705095D01*
X61401476Y-83644619D01*
X61522428Y-83584142D01*
X61643380Y-83584142D01*
X61824809Y-83644619D01*
X62550523Y-84370333D01*
X62550523Y-83584142D01*
%TO.C,C1*%
X52218771Y-71680066D02*
X52279247Y-71740542D01*
X52339723Y-71921971D01*
X52339723Y-72042923D01*
X52279247Y-72224352D01*
X52158295Y-72345304D01*
X52037342Y-72405780D01*
X51795438Y-72466257D01*
X51614009Y-72466257D01*
X51372104Y-72405780D01*
X51251152Y-72345304D01*
X51130200Y-72224352D01*
X51069723Y-72042923D01*
X51069723Y-71921971D01*
X51130200Y-71740542D01*
X51190676Y-71680066D01*
X52339723Y-70470542D02*
X52339723Y-71196257D01*
X52339723Y-70833400D02*
X51069723Y-70833400D01*
X51251152Y-70954352D01*
X51372104Y-71075304D01*
X51432580Y-71196257D01*
%TD*%
M02*
