%TF.GenerationSoftware,KiCad,Pcbnew,(5.1.6)-1*%
%TF.CreationDate,2020-08-11T23:20:13+02:00*%
%TF.ProjectId,AudioBoard,41756469-6f42-46f6-9172-642e6b696361,rev?*%
%TF.SameCoordinates,Original*%
%TF.FileFunction,Paste,Top*%
%TF.FilePolarity,Positive*%
%FSLAX46Y46*%
G04 Gerber Fmt 4.6, Leading zero omitted, Abs format (unit mm)*
G04 Created by KiCad (PCBNEW (5.1.6)-1) date 2020-08-11 23:20:13*
%MOMM*%
%LPD*%
G01*
G04 APERTURE LIST*
%TA.AperFunction,Profile*%
%ADD10C,0.050000*%
%TD*%
%ADD11R,1.550000X1.000000*%
%ADD12R,1.000000X1.550000*%
%ADD13R,0.800000X0.500000*%
%ADD14R,0.500000X0.800000*%
%ADD15R,1.780000X2.000000*%
%ADD16R,1.020000X1.780000*%
%ADD17R,1.390000X0.910000*%
%ADD18R,1.200000X1.400000*%
%ADD19R,0.450000X1.800000*%
%ADD20R,0.450000X1.475000*%
%ADD21R,1.300000X3.250000*%
%ADD22R,1.300000X0.950000*%
%ADD23R,1.120000X1.220000*%
%ADD24R,1.430000X0.940000*%
%ADD25R,1.780000X1.020000*%
%ADD26R,0.910000X1.390000*%
%ADD27R,0.990000X1.470000*%
%ADD28R,1.820000X1.050000*%
%ADD29R,1.470000X0.990000*%
%ADD30R,0.940000X1.430000*%
G04 APERTURE END LIST*
D10*
X50000000Y-150000000D02*
X50000000Y-50000000D01*
X50000000Y-50000000D02*
X150000000Y-50000000D01*
X150000000Y-150000000D02*
X50000000Y-150000000D01*
X150000000Y-50000000D02*
X150000000Y-150000000D01*
D11*
%TO.C,R15*%
X95300800Y-65042300D03*
X95300800Y-67042300D03*
%TD*%
%TO.C,R14*%
X89789000Y-65040000D03*
X89789000Y-67040000D03*
%TD*%
%TO.C,R13*%
X77825600Y-69326000D03*
X77825600Y-67326000D03*
%TD*%
%TO.C,R12*%
X82600800Y-69275200D03*
X82600800Y-67275200D03*
%TD*%
D12*
%TO.C,R11*%
X130396500Y-70104000D03*
X132396500Y-70104000D03*
%TD*%
D11*
%TO.C,R10*%
X142341600Y-71866000D03*
X142341600Y-69866000D03*
%TD*%
D13*
%TO.C,R9*%
X115824000Y-89631000D03*
X115824000Y-88631000D03*
%TD*%
%TO.C,R8*%
X113334800Y-89848400D03*
X113334800Y-88848400D03*
%TD*%
D14*
%TO.C,R7*%
X115656600Y-70866000D03*
X116656600Y-70866000D03*
%TD*%
D12*
%TO.C,R6*%
X102267500Y-107362000D03*
X100267500Y-107362000D03*
%TD*%
%TO.C,R5*%
X102013500Y-127508000D03*
X100013500Y-127508000D03*
%TD*%
%TO.C,R4*%
X117156500Y-107565200D03*
X115156500Y-107565200D03*
%TD*%
%TO.C,R3*%
X117156500Y-127508000D03*
X115156500Y-127508000D03*
%TD*%
%TO.C,R2*%
X132318000Y-107311200D03*
X130318000Y-107311200D03*
%TD*%
%TO.C,R1*%
X132239500Y-127508000D03*
X130239500Y-127508000D03*
%TD*%
D15*
%TO.C,U2*%
X115824000Y-84612400D03*
X108204000Y-75082400D03*
X113284000Y-84612400D03*
X110744000Y-75082400D03*
X110744000Y-84612400D03*
X113284000Y-75082400D03*
X108204000Y-84612400D03*
X115824000Y-75082400D03*
%TD*%
D16*
%TO.C,C14*%
X91643200Y-87858600D03*
X94403200Y-87858600D03*
%TD*%
%TO.C,C13*%
X96012000Y-87731600D03*
X98772000Y-87731600D03*
%TD*%
D17*
%TO.C,C12*%
X77774800Y-65887600D03*
X77774800Y-64247600D03*
%TD*%
%TO.C,C11*%
X82600800Y-65844000D03*
X82600800Y-64204000D03*
%TD*%
D18*
%TO.C,U3*%
X73304400Y-94757600D03*
X73304400Y-92557600D03*
X75004400Y-92557600D03*
X75004400Y-94757600D03*
%TD*%
D19*
%TO.C,IC3*%
X75365800Y-89097200D03*
X74715800Y-89097200D03*
X74065800Y-89097200D03*
X73415800Y-89097200D03*
X72765800Y-89097200D03*
X72115800Y-89097200D03*
X71465800Y-89097200D03*
X70815800Y-89097200D03*
X70165800Y-89097200D03*
X69515800Y-89097200D03*
X69515800Y-81997200D03*
X70165800Y-81997200D03*
X70815800Y-81997200D03*
X71465800Y-81997200D03*
X72115800Y-81997200D03*
X72765800Y-81997200D03*
X73415800Y-81997200D03*
X74065800Y-81997200D03*
X74715800Y-81997200D03*
X75365800Y-81997200D03*
%TD*%
D20*
%TO.C,IC2*%
X94441200Y-84446600D03*
X93791200Y-84446600D03*
X93141200Y-84446600D03*
X92491200Y-84446600D03*
X91841200Y-84446600D03*
X91191200Y-84446600D03*
X90541200Y-84446600D03*
X89891200Y-84446600D03*
X89241200Y-84446600D03*
X88591200Y-84446600D03*
X88591200Y-78570600D03*
X89241200Y-78570600D03*
X89891200Y-78570600D03*
X90541200Y-78570600D03*
X91191200Y-78570600D03*
X91841200Y-78570600D03*
X92491200Y-78570600D03*
X93141200Y-78570600D03*
X93791200Y-78570600D03*
X94441200Y-78570600D03*
%TD*%
D21*
%TO.C,IC1*%
X52174400Y-80670400D03*
D22*
X58874400Y-78380400D03*
X58874400Y-80670400D03*
X58874400Y-82960400D03*
%TD*%
D23*
%TO.C,D1*%
X113537600Y-70815200D03*
X110337600Y-70815200D03*
%TD*%
D24*
%TO.C,C31*%
X77419200Y-94437200D03*
X77419200Y-92797200D03*
%TD*%
D25*
%TO.C,C30*%
X71272400Y-99330800D03*
X71272400Y-96570800D03*
%TD*%
D26*
%TO.C,C29*%
X96977200Y-62712600D03*
X95337200Y-62712600D03*
%TD*%
%TO.C,C28*%
X88098200Y-62712600D03*
X89738200Y-62712600D03*
%TD*%
D27*
%TO.C,C27*%
X73826800Y-76403200D03*
X72186800Y-76403200D03*
%TD*%
%TO.C,C26*%
X72593200Y-79146400D03*
X70953200Y-79146400D03*
%TD*%
D16*
%TO.C,C25*%
X73812400Y-74371200D03*
X71052400Y-74371200D03*
%TD*%
%TO.C,C24*%
X86817200Y-73380600D03*
X89577200Y-73380600D03*
%TD*%
D28*
%TO.C,C23*%
X92532200Y-75285600D03*
X92532200Y-72505600D03*
%TD*%
D29*
%TO.C,C22*%
X95199200Y-73772600D03*
X95199200Y-75412600D03*
%TD*%
D27*
%TO.C,C21*%
X75234800Y-76403200D03*
X76874800Y-76403200D03*
%TD*%
%TO.C,C20*%
X88029200Y-75920600D03*
X89669200Y-75920600D03*
%TD*%
D28*
%TO.C,C19*%
X97231200Y-82510600D03*
X97231200Y-79730600D03*
%TD*%
D16*
%TO.C,C18*%
X75234800Y-74371200D03*
X77994800Y-74371200D03*
%TD*%
D25*
%TO.C,C17*%
X97231200Y-72652600D03*
X97231200Y-75412600D03*
%TD*%
D30*
%TO.C,C16*%
X78551200Y-78181200D03*
X76911200Y-78181200D03*
%TD*%
D24*
%TO.C,C15*%
X77876400Y-83631200D03*
X77876400Y-81991200D03*
%TD*%
D27*
%TO.C,C10*%
X91643200Y-90144600D03*
X93283200Y-90144600D03*
%TD*%
%TO.C,C9*%
X97166000Y-90398600D03*
X98806000Y-90398600D03*
%TD*%
D17*
%TO.C,C8*%
X100330000Y-110983200D03*
X100330000Y-109343200D03*
%TD*%
%TO.C,C7*%
X100330000Y-131434000D03*
X100330000Y-129794000D03*
%TD*%
%TO.C,C6*%
X115316000Y-111237200D03*
X115316000Y-109597200D03*
%TD*%
%TO.C,C5*%
X115062000Y-130926000D03*
X115062000Y-129286000D03*
%TD*%
%TO.C,C4*%
X130302000Y-110925200D03*
X130302000Y-109285200D03*
%TD*%
%TO.C,C3*%
X130302000Y-131572000D03*
X130302000Y-129932000D03*
%TD*%
D24*
%TO.C,C2*%
X61874400Y-82310400D03*
X61874400Y-80670400D03*
%TD*%
%TO.C,C1*%
X54051200Y-70648400D03*
X54051200Y-72288400D03*
%TD*%
M02*
