M48
; DRILL file {KiCad (5.1.6)-1} date 08/11/20 23:20:17
; FORMAT={-:-/ absolute / inch / decimal}
; #@! TF.CreationDate,2020-08-11T23:20:17+02:00
; #@! TF.GenerationSoftware,Kicad,Pcbnew,(5.1.6)-1
FMAT,2
INCH
T1C0.0157
T2C0.0197
T3C0.0394
T4C0.0433
T5C0.0512
T6C0.0551
T7C0.0591
T8C0.0941
T9C0.1433
T10C0.1358
%
G90
G05
T1
X2.02Y-2.98
X2.04Y-4.19
X2.416Y-5.542
X2.43Y-4.21
X2.516Y-5.576
X2.57Y-3.82
X2.59Y-2.98
X2.59Y-4.2
X2.61Y-3.12
X2.702Y-3.834
X2.7306Y-3.796
X2.734Y-3.87
X2.75Y-3.4
X2.816Y-2.762
X2.9Y-3.99
X3.07Y-3.79
X3.11Y-3.37
X3.36Y-2.65
X3.37Y-5.45
X3.496Y-3.604
X3.53Y-2.81
X3.568Y-3.604
X3.598Y-3.249
X3.75Y-3.66
X3.78Y-4.17
X3.84Y-3.34
X3.9Y-2.97
X3.94Y-4.55
X3.94Y-4.9
X4.26Y-3.43
X4.36Y-3.85
X4.462Y-3.592
X4.53Y-4.58
X4.53Y-4.88
X5.13Y-4.61
X5.13Y-4.89
X5.4Y-3.0
T2
X4.814Y-2.762
T3
X4.7244Y-4.9213
X4.7244Y-5.0213
X4.7244Y-5.1213
X3.15Y-3.97
X3.15Y-4.07
X4.7244Y-4.1339
X4.7244Y-4.2339
X4.7244Y-4.3339
X4.1339Y-4.9213
X4.1339Y-5.0213
X4.1339Y-5.1213
X3.436Y-3.966
X3.436Y-4.066
X5.65Y-3.97
X5.65Y-4.07
X5.65Y-4.17
X2.516Y-5.686
X2.616Y-5.686
X2.716Y-5.686
X2.816Y-5.686
X2.916Y-5.686
X3.016Y-5.686
X4.1339Y-4.1339
X4.1339Y-4.2339
X4.1339Y-4.3339
X5.65Y-4.4
X5.65Y-4.5
X5.65Y-4.6
X5.65Y-4.7
X3.292Y-3.97
X3.292Y-4.07
X3.27Y-5.68
X3.37Y-5.68
X3.47Y-5.68
X3.57Y-5.68
X3.67Y-5.68
X3.77Y-5.68
X5.73Y-3.06
X5.73Y-3.16
X5.73Y-3.26
X5.315Y-4.1339
X5.315Y-4.2339
X5.315Y-4.3339
X2.318Y-2.846
X2.318Y-2.946
X5.315Y-4.9213
X5.315Y-5.0213
X5.315Y-5.1213
T4
X2.316Y-4.708
X2.316Y-5.308
X2.416Y-4.708
X2.416Y-4.808
X2.416Y-5.308
X2.516Y-4.708
X2.516Y-5.308
X2.616Y-4.708
X2.616Y-5.308
X2.716Y-4.708
X2.716Y-5.308
X2.816Y-4.708
X2.816Y-5.308
X2.916Y-4.708
X2.916Y-5.308
X3.016Y-4.708
X3.016Y-5.308
X3.116Y-4.708
X3.116Y-5.308
X3.216Y-4.708
X3.216Y-5.308
X3.316Y-4.708
X3.316Y-5.308
X3.416Y-4.708
X3.416Y-5.308
X3.516Y-4.708
X3.516Y-5.308
X3.616Y-4.708
X3.616Y-4.808
X3.616Y-4.908
X3.616Y-5.008
X3.616Y-5.108
X3.616Y-5.208
X3.616Y-5.308
T5
X2.8345Y-2.3376
X3.1298Y-2.3376
X3.3857Y-2.3376
X3.6809Y-2.3376
T6
X4.1631Y-2.172
X4.2615Y-2.074
X4.3601Y-2.5661
X4.4585Y-2.172
X4.557Y-2.5661
X4.6556Y-2.074
X4.754Y-2.172
X5.112Y-2.1688
X5.2104Y-2.0707
X5.309Y-2.5629
X5.4075Y-2.1688
X5.5059Y-2.5629
X5.6045Y-2.0707
X5.7029Y-2.1688
T7
X2.8345Y-2.0522
X3.3857Y-2.0522
T8
X4.1631Y-2.3692
X4.754Y-2.3692
X5.112Y-2.366
X5.7029Y-2.366
T9
X2.128Y-2.4466
X2.3209Y-2.3265
X2.3209Y-2.5628
T10
X2.74Y-2.19
X3.7754Y-2.19
T0
M30
