%TF.GenerationSoftware,KiCad,Pcbnew,(5.1.6)-1*%
%TF.CreationDate,2020-08-11T23:20:14+02:00*%
%TF.ProjectId,AudioBoard,41756469-6f42-46f6-9172-642e6b696361,rev?*%
%TF.SameCoordinates,Original*%
%TF.FileFunction,Soldermask,Top*%
%TF.FilePolarity,Negative*%
%FSLAX46Y46*%
G04 Gerber Fmt 4.6, Leading zero omitted, Abs format (unit mm)*
G04 Created by KiCad (PCBNEW (5.1.6)-1) date 2020-08-11 23:20:14*
%MOMM*%
%LPD*%
G01*
G04 APERTURE LIST*
%TA.AperFunction,Profile*%
%ADD10C,0.050000*%
%TD*%
%ADD11R,1.650000X1.100000*%
%ADD12R,1.100000X1.650000*%
%ADD13R,0.900000X0.600000*%
%ADD14R,0.600000X0.900000*%
%ADD15C,3.548200*%
%ADD16C,2.350000*%
%ADD17C,2.050000*%
%ADD18R,1.880000X2.100000*%
%ADD19R,1.120000X1.880000*%
%ADD20R,1.490000X1.010000*%
%ADD21R,1.300000X1.500000*%
%ADD22C,1.700000*%
%ADD23O,1.800000X1.800000*%
%ADD24R,1.800000X1.800000*%
%ADD25C,3.685000*%
%ADD26C,2.200000*%
%ADD27C,5.560000*%
%ADD28R,0.550000X1.900000*%
%ADD29R,0.550000X1.575000*%
%ADD30R,1.400000X3.350000*%
%ADD31R,1.400000X1.050000*%
%ADD32R,1.220000X1.320000*%
%ADD33R,1.530000X1.040000*%
%ADD34R,1.880000X1.120000*%
%ADD35R,1.010000X1.490000*%
%ADD36R,1.090000X1.570000*%
%ADD37R,1.920000X1.150000*%
%ADD38R,1.570000X1.090000*%
%ADD39R,1.040000X1.530000*%
G04 APERTURE END LIST*
D10*
X50000000Y-150000000D02*
X50000000Y-50000000D01*
X50000000Y-50000000D02*
X150000000Y-50000000D01*
X150000000Y-150000000D02*
X50000000Y-150000000D01*
X150000000Y-50000000D02*
X150000000Y-150000000D01*
D11*
%TO.C,R15*%
X95300800Y-65042300D03*
X95300800Y-67042300D03*
%TD*%
%TO.C,R14*%
X89789000Y-65040000D03*
X89789000Y-67040000D03*
%TD*%
%TO.C,R13*%
X77825600Y-69326000D03*
X77825600Y-67326000D03*
%TD*%
%TO.C,R12*%
X82600800Y-69275200D03*
X82600800Y-67275200D03*
%TD*%
D12*
%TO.C,R11*%
X130396500Y-70104000D03*
X132396500Y-70104000D03*
%TD*%
D11*
%TO.C,R10*%
X142341600Y-71866000D03*
X142341600Y-69866000D03*
%TD*%
D13*
%TO.C,R9*%
X115824000Y-89631000D03*
X115824000Y-88631000D03*
%TD*%
%TO.C,R8*%
X113334800Y-89848400D03*
X113334800Y-88848400D03*
%TD*%
D14*
%TO.C,R7*%
X115656600Y-70866000D03*
X116656600Y-70866000D03*
%TD*%
D12*
%TO.C,R6*%
X102267500Y-107362000D03*
X100267500Y-107362000D03*
%TD*%
%TO.C,R5*%
X102013500Y-127508000D03*
X100013500Y-127508000D03*
%TD*%
%TO.C,R4*%
X117156500Y-107565200D03*
X115156500Y-107565200D03*
%TD*%
%TO.C,R3*%
X117156500Y-127508000D03*
X115156500Y-127508000D03*
%TD*%
%TO.C,R2*%
X132318000Y-107311200D03*
X130318000Y-107311200D03*
%TD*%
%TO.C,R1*%
X132239500Y-127508000D03*
X130239500Y-127508000D03*
%TD*%
D15*
%TO.C,J15*%
X95896000Y-55626000D03*
X69596000Y-55626000D03*
D16*
X71996000Y-52126000D03*
X85996000Y-52126000D03*
D17*
X71996000Y-59376000D03*
X79496000Y-59376000D03*
X85996000Y-59376000D03*
X93496000Y-59376000D03*
%TD*%
D18*
%TO.C,U2*%
X115824000Y-84612400D03*
X108204000Y-75082400D03*
X113284000Y-84612400D03*
X110744000Y-75082400D03*
X110744000Y-84612400D03*
X113284000Y-75082400D03*
X108204000Y-84612400D03*
X115824000Y-75082400D03*
%TD*%
D19*
%TO.C,C14*%
X91643200Y-87858600D03*
X94403200Y-87858600D03*
%TD*%
%TO.C,C13*%
X96012000Y-87731600D03*
X98772000Y-87731600D03*
%TD*%
D20*
%TO.C,C12*%
X77774800Y-65887600D03*
X77774800Y-64247600D03*
%TD*%
%TO.C,C11*%
X82600800Y-65844000D03*
X82600800Y-64204000D03*
%TD*%
D21*
%TO.C,U3*%
X73304400Y-94757600D03*
X73304400Y-92557600D03*
X75004400Y-92557600D03*
X75004400Y-94757600D03*
%TD*%
D22*
%TO.C,U1*%
X58826400Y-134823200D03*
X61366400Y-134823200D03*
X63906400Y-134823200D03*
X66446400Y-134823200D03*
X68986400Y-134823200D03*
X71526400Y-134823200D03*
X74066400Y-134823200D03*
X76606400Y-134823200D03*
X79146400Y-134823200D03*
X81686400Y-134823200D03*
X84226400Y-134823200D03*
X86766400Y-134823200D03*
X89306400Y-134823200D03*
X61366400Y-122123200D03*
X58826400Y-119583200D03*
X61366400Y-119583200D03*
X63906400Y-119583200D03*
X66446400Y-119583200D03*
X68986400Y-119583200D03*
X71526400Y-119583200D03*
X74066400Y-119583200D03*
X76606400Y-119583200D03*
X79146400Y-119583200D03*
X81686400Y-119583200D03*
X84226400Y-119583200D03*
X86766400Y-119583200D03*
X89306400Y-119583200D03*
X91846400Y-134823200D03*
X91846400Y-132283200D03*
X91846400Y-129743200D03*
X91846400Y-119583200D03*
X91846400Y-122123200D03*
X91846400Y-124663200D03*
X91846400Y-127203200D03*
%TD*%
D23*
%TO.C,JP4*%
X87274400Y-100736400D03*
D24*
X87274400Y-103276400D03*
%TD*%
D23*
%TO.C,JP3*%
X83616800Y-100838000D03*
D24*
X83616800Y-103378000D03*
%TD*%
D23*
%TO.C,JP2*%
X80010000Y-100838000D03*
D24*
X80010000Y-103378000D03*
%TD*%
D23*
%TO.C,JP1*%
X58877200Y-74828400D03*
D24*
X58877200Y-72288400D03*
%TD*%
D25*
%TO.C,J14*%
X129844800Y-60096400D03*
X144854800Y-60096400D03*
D26*
X134849800Y-65096400D03*
X139849800Y-65096400D03*
X132344800Y-52596400D03*
X142354800Y-52596400D03*
X129844800Y-55086400D03*
X137349800Y-55086400D03*
X144854800Y-55086400D03*
%TD*%
D25*
%TO.C,J13*%
X105741600Y-60178800D03*
X120751600Y-60178800D03*
D26*
X110746600Y-65178800D03*
X115746600Y-65178800D03*
X108241600Y-52678800D03*
X118251600Y-52678800D03*
X105741600Y-55168800D03*
X113246600Y-55168800D03*
X120751600Y-55168800D03*
%TD*%
D23*
%TO.C,J12*%
X105000000Y-110080000D03*
X105000000Y-107540000D03*
D24*
X105000000Y-105000000D03*
%TD*%
D23*
%TO.C,J11*%
X105000000Y-130080000D03*
X105000000Y-127540000D03*
D24*
X105000000Y-125000000D03*
%TD*%
D23*
%TO.C,J10*%
X120000000Y-110080000D03*
X120000000Y-107540000D03*
D24*
X120000000Y-105000000D03*
%TD*%
D23*
%TO.C,J9*%
X120000000Y-130080000D03*
X120000000Y-127540000D03*
D24*
X120000000Y-125000000D03*
%TD*%
D23*
%TO.C,J8*%
X135000000Y-110080000D03*
X135000000Y-107540000D03*
D24*
X135000000Y-105000000D03*
%TD*%
D23*
%TO.C,J7*%
X135000000Y-130080000D03*
X135000000Y-127540000D03*
D24*
X135000000Y-125000000D03*
%TD*%
D23*
%TO.C,J6*%
X145542000Y-82804000D03*
X145542000Y-80264000D03*
D24*
X145542000Y-77724000D03*
%TD*%
D27*
%TO.C,J5*%
X58951200Y-59094000D03*
X54051200Y-62144000D03*
X58951200Y-65094000D03*
%TD*%
D23*
%TO.C,J4*%
X143510000Y-105918000D03*
X143510000Y-103378000D03*
D24*
X143510000Y-100838000D03*
%TD*%
D23*
%TO.C,J3*%
X143510000Y-119380000D03*
X143510000Y-116840000D03*
X143510000Y-114300000D03*
D24*
X143510000Y-111760000D03*
%TD*%
D23*
%TO.C,J2*%
X83058000Y-144272000D03*
X85598000Y-144272000D03*
X88138000Y-144272000D03*
X90678000Y-144272000D03*
X93218000Y-144272000D03*
D24*
X95758000Y-144272000D03*
%TD*%
D23*
%TO.C,J1*%
X63906400Y-144424400D03*
X66446400Y-144424400D03*
X68986400Y-144424400D03*
X71526400Y-144424400D03*
X74066400Y-144424400D03*
D24*
X76606400Y-144424400D03*
%TD*%
D28*
%TO.C,IC3*%
X75365800Y-89097200D03*
X74715800Y-89097200D03*
X74065800Y-89097200D03*
X73415800Y-89097200D03*
X72765800Y-89097200D03*
X72115800Y-89097200D03*
X71465800Y-89097200D03*
X70815800Y-89097200D03*
X70165800Y-89097200D03*
X69515800Y-89097200D03*
X69515800Y-81997200D03*
X70165800Y-81997200D03*
X70815800Y-81997200D03*
X71465800Y-81997200D03*
X72115800Y-81997200D03*
X72765800Y-81997200D03*
X73415800Y-81997200D03*
X74065800Y-81997200D03*
X74715800Y-81997200D03*
X75365800Y-81997200D03*
%TD*%
D29*
%TO.C,IC2*%
X94441200Y-84446600D03*
X93791200Y-84446600D03*
X93141200Y-84446600D03*
X92491200Y-84446600D03*
X91841200Y-84446600D03*
X91191200Y-84446600D03*
X90541200Y-84446600D03*
X89891200Y-84446600D03*
X89241200Y-84446600D03*
X88591200Y-84446600D03*
X88591200Y-78570600D03*
X89241200Y-78570600D03*
X89891200Y-78570600D03*
X90541200Y-78570600D03*
X91191200Y-78570600D03*
X91841200Y-78570600D03*
X92491200Y-78570600D03*
X93141200Y-78570600D03*
X93791200Y-78570600D03*
X94441200Y-78570600D03*
%TD*%
D30*
%TO.C,IC1*%
X52174400Y-80670400D03*
D31*
X58874400Y-78380400D03*
X58874400Y-80670400D03*
X58874400Y-82960400D03*
%TD*%
D32*
%TO.C,D1*%
X113537600Y-70815200D03*
X110337600Y-70815200D03*
%TD*%
D33*
%TO.C,C31*%
X77419200Y-94437200D03*
X77419200Y-92797200D03*
%TD*%
D34*
%TO.C,C30*%
X71272400Y-99330800D03*
X71272400Y-96570800D03*
%TD*%
D35*
%TO.C,C29*%
X96977200Y-62712600D03*
X95337200Y-62712600D03*
%TD*%
%TO.C,C28*%
X88098200Y-62712600D03*
X89738200Y-62712600D03*
%TD*%
D36*
%TO.C,C27*%
X73826800Y-76403200D03*
X72186800Y-76403200D03*
%TD*%
%TO.C,C26*%
X72593200Y-79146400D03*
X70953200Y-79146400D03*
%TD*%
D19*
%TO.C,C25*%
X73812400Y-74371200D03*
X71052400Y-74371200D03*
%TD*%
%TO.C,C24*%
X86817200Y-73380600D03*
X89577200Y-73380600D03*
%TD*%
D37*
%TO.C,C23*%
X92532200Y-75285600D03*
X92532200Y-72505600D03*
%TD*%
D38*
%TO.C,C22*%
X95199200Y-73772600D03*
X95199200Y-75412600D03*
%TD*%
D36*
%TO.C,C21*%
X75234800Y-76403200D03*
X76874800Y-76403200D03*
%TD*%
%TO.C,C20*%
X88029200Y-75920600D03*
X89669200Y-75920600D03*
%TD*%
D37*
%TO.C,C19*%
X97231200Y-82510600D03*
X97231200Y-79730600D03*
%TD*%
D19*
%TO.C,C18*%
X75234800Y-74371200D03*
X77994800Y-74371200D03*
%TD*%
D34*
%TO.C,C17*%
X97231200Y-72652600D03*
X97231200Y-75412600D03*
%TD*%
D39*
%TO.C,C16*%
X78551200Y-78181200D03*
X76911200Y-78181200D03*
%TD*%
D33*
%TO.C,C15*%
X77876400Y-83631200D03*
X77876400Y-81991200D03*
%TD*%
D36*
%TO.C,C10*%
X91643200Y-90144600D03*
X93283200Y-90144600D03*
%TD*%
%TO.C,C9*%
X97166000Y-90398600D03*
X98806000Y-90398600D03*
%TD*%
D20*
%TO.C,C8*%
X100330000Y-110983200D03*
X100330000Y-109343200D03*
%TD*%
%TO.C,C7*%
X100330000Y-131434000D03*
X100330000Y-129794000D03*
%TD*%
%TO.C,C6*%
X115316000Y-111237200D03*
X115316000Y-109597200D03*
%TD*%
%TO.C,C5*%
X115062000Y-130926000D03*
X115062000Y-129286000D03*
%TD*%
%TO.C,C4*%
X130302000Y-110925200D03*
X130302000Y-109285200D03*
%TD*%
%TO.C,C3*%
X130302000Y-131572000D03*
X130302000Y-129932000D03*
%TD*%
D33*
%TO.C,C2*%
X61874400Y-82310400D03*
X61874400Y-80670400D03*
%TD*%
%TO.C,C1*%
X54051200Y-70648400D03*
X54051200Y-72288400D03*
%TD*%
M02*
