M48
; DRILL file {KiCad (5.1.6)-1} date 12/29/20 12:28:12
; FORMAT={-:-/ absolute / inch / decimal}
; #@! TF.CreationDate,2020-12-29T12:28:12+01:00
; #@! TF.GenerationSoftware,Kicad,Pcbnew,(5.1.6)-1
FMAT,2
INCH
T1C0.0157
T2C0.0394
T3C0.0433
T4C0.0512
T5C0.0551
T6C0.0591
T7C0.0669
T8C0.0941
T9C0.0472
T10C0.1083
T11C0.1260
T12C0.1358
%
G90
G05
T1
X2.44Y-3.31
X2.59Y-2.98
X2.6346Y-2.9831
X2.64Y-3.41
X2.72Y-4.19
X2.7201Y-3.5099
X2.7439Y-3.46
X2.77Y-2.84
X2.77Y-3.25
X2.77Y-4.19
X2.81Y-3.48
X2.93Y-5.28
X2.95Y-3.11
X2.97Y-5.09
X3.0Y-5.04
X3.02Y-4.01
X3.17Y-4.63
X3.27Y-2.9
X3.28Y-3.18
X3.29Y-3.25
X3.31Y-5.6
X3.36Y-3.94
X3.41Y-3.966
X3.43Y-3.13
X3.5Y-3.45
X3.55Y-2.83
X3.65Y-3.89
X3.77Y-3.86
X3.77Y-4.79
X3.83Y-3.86
X3.83Y-4.75
X4.09Y-3.08
X4.29Y-3.37
X5.0Y-3.83
T2
X5.005Y-4.4013
X5.005Y-4.5013
X5.005Y-4.6013
X2.09Y-2.95
X2.19Y-2.95
X2.29Y-2.95
X2.97Y-3.2
X3.07Y-3.2
X3.22Y-5.71
X3.22Y-5.81
X3.32Y-5.71
X3.32Y-5.81
X3.42Y-5.71
X3.42Y-5.81
X3.52Y-5.71
X3.52Y-5.81
X3.62Y-5.71
X3.62Y-5.81
X3.72Y-5.71
X3.72Y-5.81
X3.82Y-5.71
X3.82Y-5.81
X3.92Y-5.71
X3.92Y-5.81
X4.02Y-5.71
X4.02Y-5.81
X4.12Y-5.71
X4.12Y-5.81
X4.22Y-5.71
X4.22Y-5.81
X4.32Y-5.71
X4.32Y-5.81
X4.42Y-5.71
X4.42Y-5.81
X4.52Y-5.71
X4.52Y-5.81
X4.62Y-5.71
X4.62Y-5.81
X4.72Y-5.71
X4.72Y-5.81
X4.82Y-5.71
X4.82Y-5.81
X4.92Y-5.71
X4.92Y-5.81
X5.02Y-5.71
X5.02Y-5.81
X5.12Y-5.71
X5.12Y-5.81
X5.76Y-3.02
X5.76Y-3.12
X5.76Y-3.22
X2.44Y-2.97
X2.44Y-3.07
X2.97Y-3.34
X3.07Y-3.34
X2.61Y-3.51
X2.37Y-5.046
X2.47Y-5.046
X2.57Y-5.046
X2.67Y-5.046
X2.77Y-5.046
X2.87Y-5.046
X5.34Y-4.86
X5.34Y-4.96
X5.34Y-5.06
X2.67Y-3.85
X2.77Y-3.85
X3.07Y-5.04
X3.17Y-5.04
X3.27Y-5.04
X3.37Y-5.04
X3.47Y-5.04
X3.57Y-5.04
X5.3444Y-4.4013
X5.3444Y-4.5013
X5.3444Y-4.6013
X4.34Y-4.47
X4.34Y-4.57
X4.34Y-4.67
X4.34Y-4.77
X5.7044Y-4.8639
X5.7044Y-4.9639
X5.7044Y-5.0639
X5.76Y-3.45
X5.76Y-3.55
X5.76Y-3.65
X5.6939Y-4.4013
X5.6939Y-4.5013
X5.6939Y-4.6013
T3
X2.17Y-4.11
X2.17Y-4.71
X2.27Y-4.11
X2.27Y-4.21
X2.27Y-4.71
X2.37Y-4.11
X2.37Y-4.71
X2.47Y-4.11
X2.47Y-4.71
X2.57Y-4.11
X2.57Y-4.71
X2.67Y-4.11
X2.67Y-4.71
X2.77Y-4.11
X2.77Y-4.71
X2.87Y-4.11
X2.87Y-4.71
X2.97Y-4.11
X2.97Y-4.71
X3.07Y-4.11
X3.07Y-4.71
X3.17Y-4.11
X3.17Y-4.71
X3.27Y-4.11
X3.27Y-4.71
X3.37Y-4.11
X3.37Y-4.71
X3.47Y-4.11
X3.47Y-4.21
X3.47Y-4.31
X3.47Y-4.41
X3.47Y-4.51
X3.47Y-4.61
X3.47Y-4.71
T4
X2.6268Y-2.4624
X2.922Y-2.4624
X3.178Y-2.4624
X3.4732Y-2.4624
T5
X3.79Y-2.4572
X3.8884Y-2.5553
X3.987Y-2.0631
X4.0855Y-2.4572
X4.1839Y-2.0631
X4.2825Y-2.5553
X4.3809Y-2.4572
X4.64Y-2.4572
X4.7384Y-2.5553
X4.837Y-2.0631
X4.9355Y-2.4572
X5.0339Y-2.0631
X5.1325Y-2.5553
X5.2309Y-2.4572
T6
X2.6268Y-2.177
X3.178Y-2.177
T7
X5.4431Y-2.344
X5.5613Y-2.344
X5.64Y-2.1472
X5.7187Y-2.344
X5.8369Y-2.344
T8
X3.79Y-2.26
X4.3809Y-2.26
X4.64Y-2.26
X5.2309Y-2.26
T9
X5.4431Y-2.0487
X5.4431Y-2.1472
X5.64Y-2.344
X5.8369Y-2.0487
X5.8369Y-2.1472
T10
X3.03Y-3.5509
X3.03Y-5.48
X5.3135Y-3.5509
X5.3135Y-5.48
T11
X5.7087Y-5.7087
X2.1654Y-5.7087
X2.3622Y-2.7362
X5.6299Y-2.7362
T12
X2.5323Y-2.3148
X3.5677Y-2.3148
T2
G00X2.055Y-2.3525
M15
G01X2.055Y-2.4313
M16
G05
G00X2.2794Y-2.2738
M15
G01X2.2006Y-2.2738
M16
G05
G00X2.2794Y-2.51
M15
G01X2.2006Y-2.51
M16
G05
T0
M30
