%TF.GenerationSoftware,KiCad,Pcbnew,(5.1.6)-1*%
%TF.CreationDate,2020-12-29T15:10:31+01:00*%
%TF.ProjectId,AudioBoard,41756469-6f42-46f6-9172-642e6b696361,rev?*%
%TF.SameCoordinates,Original*%
%TF.FileFunction,Soldermask,Bot*%
%TF.FilePolarity,Negative*%
%FSLAX46Y46*%
G04 Gerber Fmt 4.6, Leading zero omitted, Abs format (unit mm)*
G04 Created by KiCad (PCBNEW (5.1.6)-1) date 2020-12-29 15:10:31*
%MOMM*%
%LPD*%
G01*
G04 APERTURE LIST*
%TA.AperFunction,Profile*%
%ADD10C,0.050000*%
%TD*%
%ADD11C,6.000000*%
%ADD12C,3.300000*%
%ADD13C,1.700000*%
%ADD14R,1.800000X1.800000*%
%ADD15O,1.800000X1.800000*%
%ADD16R,3.600000X3.600000*%
%ADD17C,3.548200*%
%ADD18C,2.350000*%
%ADD19C,2.050000*%
%ADD20C,3.685000*%
%ADD21C,2.200000*%
%ADD22C,2.650000*%
%ADD23C,2.500000*%
%ADD24C,1.300000*%
G04 APERTURE END LIST*
D10*
X50000000Y-150000000D02*
X50000000Y-50000000D01*
X50000000Y-50000000D02*
X150000000Y-50000000D01*
X150000000Y-150000000D02*
X50000000Y-150000000D01*
X150000000Y-50000000D02*
X150000000Y-150000000D01*
D11*
%TO.C,REF\u002A\u002A*%
X76962000Y-139192000D03*
X134962000Y-90192000D03*
X76962000Y-90192000D03*
X134962000Y-139192000D03*
%TD*%
D12*
%TO.C,REF\u002A\u002A*%
X143000000Y-69500000D03*
%TD*%
%TO.C,REF\u002A\u002A*%
X60000000Y-69500000D03*
%TD*%
%TO.C,REF\u002A\u002A*%
X145000000Y-145000000D03*
%TD*%
%TO.C,REF\u002A\u002A*%
X55000000Y-145000000D03*
%TD*%
D13*
%TO.C,U1*%
X55118000Y-119634000D03*
X57658000Y-119634000D03*
X60198000Y-119634000D03*
X62738000Y-119634000D03*
X65278000Y-119634000D03*
X67818000Y-119634000D03*
X70358000Y-119634000D03*
X72898000Y-119634000D03*
X75438000Y-119634000D03*
X77978000Y-119634000D03*
X80518000Y-119634000D03*
X83058000Y-119634000D03*
X85598000Y-119634000D03*
X57658000Y-106934000D03*
X55118000Y-104394000D03*
X57658000Y-104394000D03*
X60198000Y-104394000D03*
X62738000Y-104394000D03*
X65278000Y-104394000D03*
X67818000Y-104394000D03*
X70358000Y-104394000D03*
X72898000Y-104394000D03*
X75438000Y-104394000D03*
X77978000Y-104394000D03*
X80518000Y-104394000D03*
X83058000Y-104394000D03*
X85598000Y-104394000D03*
X88138000Y-119634000D03*
X88138000Y-117094000D03*
X88138000Y-114554000D03*
X88138000Y-104394000D03*
X88138000Y-106934000D03*
X88138000Y-109474000D03*
X88138000Y-112014000D03*
%TD*%
D14*
%TO.C,JP1*%
X58166000Y-74930000D03*
D15*
X55626000Y-74930000D03*
X53086000Y-74930000D03*
%TD*%
%TO.C,J5*%
G36*
G01*
X51296000Y-58954000D02*
X53096000Y-58954000D01*
G75*
G02*
X53996000Y-59854000I0J-900000D01*
G01*
X53996000Y-61654000D01*
G75*
G02*
X53096000Y-62554000I-900000J0D01*
G01*
X51296000Y-62554000D01*
G75*
G02*
X50396000Y-61654000I0J900000D01*
G01*
X50396000Y-59854000D01*
G75*
G02*
X51296000Y-58954000I900000J0D01*
G01*
G37*
G36*
G01*
X55871000Y-56204000D02*
X57921000Y-56204000D01*
G75*
G02*
X58696000Y-56979000I0J-775000D01*
G01*
X58696000Y-58529000D01*
G75*
G02*
X57921000Y-59304000I-775000J0D01*
G01*
X55871000Y-59304000D01*
G75*
G02*
X55096000Y-58529000I0J775000D01*
G01*
X55096000Y-56979000D01*
G75*
G02*
X55871000Y-56204000I775000J0D01*
G01*
G37*
D16*
X56896000Y-63754000D03*
%TD*%
D17*
%TO.C,J15*%
X90620000Y-58796000D03*
X64320000Y-58796000D03*
D18*
X66720000Y-55296000D03*
X80720000Y-55296000D03*
D19*
X66720000Y-62546000D03*
X74220000Y-62546000D03*
X80720000Y-62546000D03*
X88220000Y-62546000D03*
%TD*%
D15*
%TO.C,JP4*%
X61976000Y-77978000D03*
D14*
X61976000Y-75438000D03*
%TD*%
D15*
%TO.C,JP3*%
X75438000Y-84836000D03*
D14*
X77978000Y-84836000D03*
%TD*%
D15*
%TO.C,JP2*%
X75438000Y-81280000D03*
D14*
X77978000Y-81280000D03*
%TD*%
D20*
%TO.C,J14*%
X132866000Y-57404000D03*
X117856000Y-57404000D03*
D21*
X127861000Y-52404000D03*
X122861000Y-52404000D03*
X130366000Y-64904000D03*
X120356000Y-64904000D03*
X132866000Y-62414000D03*
X125361000Y-62414000D03*
X117856000Y-62414000D03*
%TD*%
D20*
%TO.C,J13*%
X111276000Y-57404000D03*
X96266000Y-57404000D03*
D21*
X106271000Y-52404000D03*
X101271000Y-52404000D03*
X108776000Y-64904000D03*
X98766000Y-64904000D03*
X111276000Y-62414000D03*
X103771000Y-62414000D03*
X96266000Y-62414000D03*
%TD*%
D15*
%TO.C,J11*%
X144624000Y-116872000D03*
X144624000Y-114332000D03*
D14*
X144624000Y-111792000D03*
%TD*%
D15*
%TO.C,J10*%
X144892000Y-128622000D03*
X144892000Y-126082000D03*
D14*
X144892000Y-123542000D03*
%TD*%
D15*
%TO.C,J9*%
X135748000Y-116872000D03*
X135748000Y-114332000D03*
D14*
X135748000Y-111792000D03*
%TD*%
D15*
%TO.C,J8*%
X135636000Y-128524000D03*
X135636000Y-125984000D03*
D14*
X135636000Y-123444000D03*
%TD*%
D15*
%TO.C,J7*%
X127126000Y-116872000D03*
X127126000Y-114332000D03*
D14*
X127126000Y-111792000D03*
%TD*%
D15*
%TO.C,J6*%
X146304000Y-81788000D03*
X146304000Y-79248000D03*
D14*
X146304000Y-76708000D03*
%TD*%
D15*
%TO.C,J4*%
X146304000Y-92710000D03*
X146304000Y-90170000D03*
D14*
X146304000Y-87630000D03*
%TD*%
D15*
%TO.C,J3*%
X110236000Y-121158000D03*
X110236000Y-118618000D03*
X110236000Y-116078000D03*
D14*
X110236000Y-113538000D03*
%TD*%
D15*
%TO.C,J2*%
X77978000Y-128016000D03*
X80518000Y-128016000D03*
X83058000Y-128016000D03*
X85598000Y-128016000D03*
X88138000Y-128016000D03*
D14*
X90678000Y-128016000D03*
%TD*%
D15*
%TO.C,J1*%
X60198000Y-128168400D03*
X62738000Y-128168400D03*
X65278000Y-128168400D03*
X67818000Y-128168400D03*
X70358000Y-128168400D03*
D14*
X72898000Y-128168400D03*
%TD*%
D22*
%TO.C,J16*%
X143256000Y-54538000D03*
X138256000Y-59538000D03*
X148256000Y-59538000D03*
D23*
X141256000Y-59538000D03*
X145256000Y-59538000D03*
D24*
X148256000Y-52038000D03*
X148256000Y-54538000D03*
X143256000Y-59538000D03*
X138256000Y-52038000D03*
X138256000Y-54538000D03*
%TD*%
D14*
%TO.C,JP5*%
X67818000Y-97790000D03*
D15*
X70358000Y-97790000D03*
%TD*%
D14*
%TO.C,J12*%
X130048000Y-145034000D03*
D15*
X130048000Y-147574000D03*
X127508000Y-145034000D03*
X127508000Y-147574000D03*
X124968000Y-145034000D03*
X124968000Y-147574000D03*
X122428000Y-145034000D03*
X122428000Y-147574000D03*
X119888000Y-145034000D03*
X119888000Y-147574000D03*
X117348000Y-145034000D03*
X117348000Y-147574000D03*
X114808000Y-145034000D03*
X114808000Y-147574000D03*
X112268000Y-145034000D03*
X112268000Y-147574000D03*
X109728000Y-145034000D03*
X109728000Y-147574000D03*
X107188000Y-145034000D03*
X107188000Y-147574000D03*
X104648000Y-145034000D03*
X104648000Y-147574000D03*
X102108000Y-145034000D03*
X102108000Y-147574000D03*
X99568000Y-145034000D03*
X99568000Y-147574000D03*
X97028000Y-145034000D03*
X97028000Y-147574000D03*
X94488000Y-145034000D03*
X94488000Y-147574000D03*
X91948000Y-145034000D03*
X91948000Y-147574000D03*
X89408000Y-145034000D03*
X89408000Y-147574000D03*
X86868000Y-145034000D03*
X86868000Y-147574000D03*
X84328000Y-145034000D03*
X84328000Y-147574000D03*
X81788000Y-145034000D03*
X81788000Y-147574000D03*
%TD*%
D14*
%TO.C,TP1*%
X66294000Y-89154000D03*
%TD*%
%TO.C,J17 I2S_IN*%
X51816000Y-99060000D03*
D15*
X51816000Y-96520000D03*
X51816000Y-93980000D03*
X51816000Y-91440000D03*
X51816000Y-88900000D03*
X51816000Y-86360000D03*
%TD*%
M02*
