%TF.GenerationSoftware,KiCad,Pcbnew,(5.1.6)-1*%
%TF.CreationDate,2020-12-29T12:28:21+01:00*%
%TF.ProjectId,AudioBoard,41756469-6f42-46f6-9172-642e6b696361,rev?*%
%TF.SameCoordinates,Original*%
%TF.FileFunction,Legend,Top*%
%TF.FilePolarity,Positive*%
%FSLAX46Y46*%
G04 Gerber Fmt 4.6, Leading zero omitted, Abs format (unit mm)*
G04 Created by KiCad (PCBNEW (5.1.6)-1) date 2020-12-29 12:28:21*
%MOMM*%
%LPD*%
G01*
G04 APERTURE LIST*
%ADD10C,0.150000*%
%ADD11C,0.400000*%
%TA.AperFunction,Profile*%
%ADD12C,0.050000*%
%TD*%
%ADD13C,0.100000*%
%ADD14C,0.120000*%
%ADD15C,0.200000*%
%ADD16C,0.254000*%
G04 APERTURE END LIST*
D10*
X139660761Y-62936380D02*
X139660761Y-61936380D01*
X139994095Y-62650666D01*
X140327428Y-61936380D01*
X140327428Y-62936380D01*
X140803619Y-62936380D02*
X140803619Y-61936380D01*
X141279809Y-62936380D02*
X141279809Y-61936380D01*
X141517904Y-61936380D01*
X141660761Y-61984000D01*
X141756000Y-62079238D01*
X141803619Y-62174476D01*
X141851238Y-62364952D01*
X141851238Y-62507809D01*
X141803619Y-62698285D01*
X141756000Y-62793523D01*
X141660761Y-62888761D01*
X141517904Y-62936380D01*
X141279809Y-62936380D01*
X142279809Y-62936380D02*
X142279809Y-61936380D01*
X143708380Y-61936380D02*
X143898857Y-61936380D01*
X143994095Y-61984000D01*
X144089333Y-62079238D01*
X144136952Y-62269714D01*
X144136952Y-62603047D01*
X144089333Y-62793523D01*
X143994095Y-62888761D01*
X143898857Y-62936380D01*
X143708380Y-62936380D01*
X143613142Y-62888761D01*
X143517904Y-62793523D01*
X143470285Y-62603047D01*
X143470285Y-62269714D01*
X143517904Y-62079238D01*
X143613142Y-61984000D01*
X143708380Y-61936380D01*
X144565523Y-61936380D02*
X144565523Y-62745904D01*
X144613142Y-62841142D01*
X144660761Y-62888761D01*
X144756000Y-62936380D01*
X144946476Y-62936380D01*
X145041714Y-62888761D01*
X145089333Y-62841142D01*
X145136952Y-62745904D01*
X145136952Y-61936380D01*
X145470285Y-61936380D02*
X146041714Y-61936380D01*
X145756000Y-62936380D02*
X145756000Y-61936380D01*
X146327428Y-62031619D02*
X146375047Y-61984000D01*
X146470285Y-61936380D01*
X146708380Y-61936380D01*
X146803619Y-61984000D01*
X146851238Y-62031619D01*
X146898857Y-62126857D01*
X146898857Y-62222095D01*
X146851238Y-62364952D01*
X146279809Y-62936380D01*
X146898857Y-62936380D01*
X143962380Y-81303523D02*
X142962380Y-81303523D01*
X142962380Y-80922571D01*
X143010000Y-80827333D01*
X143057619Y-80779714D01*
X143152857Y-80732095D01*
X143295714Y-80732095D01*
X143390952Y-80779714D01*
X143438571Y-80827333D01*
X143486190Y-80922571D01*
X143486190Y-81303523D01*
X142962380Y-80113047D02*
X142962380Y-79922571D01*
X143010000Y-79827333D01*
X143105238Y-79732095D01*
X143295714Y-79684476D01*
X143629047Y-79684476D01*
X143819523Y-79732095D01*
X143914761Y-79827333D01*
X143962380Y-79922571D01*
X143962380Y-80113047D01*
X143914761Y-80208285D01*
X143819523Y-80303523D01*
X143629047Y-80351142D01*
X143295714Y-80351142D01*
X143105238Y-80303523D01*
X143010000Y-80208285D01*
X142962380Y-80113047D01*
X142962380Y-79351142D02*
X143962380Y-79113047D01*
X143248095Y-78922571D01*
X143962380Y-78732095D01*
X142962380Y-78494000D01*
X143438571Y-78113047D02*
X143438571Y-77779714D01*
X143962380Y-77636857D02*
X143962380Y-78113047D01*
X142962380Y-78113047D01*
X142962380Y-77636857D01*
X143962380Y-76636857D02*
X143486190Y-76970190D01*
X143962380Y-77208285D02*
X142962380Y-77208285D01*
X142962380Y-76827333D01*
X143010000Y-76732095D01*
X143057619Y-76684476D01*
X143152857Y-76636857D01*
X143295714Y-76636857D01*
X143390952Y-76684476D01*
X143438571Y-76732095D01*
X143486190Y-76827333D01*
X143486190Y-77208285D01*
X103878857Y-123404380D02*
X104069333Y-123404380D01*
X104164571Y-123452000D01*
X104259809Y-123547238D01*
X104307428Y-123737714D01*
X104307428Y-124071047D01*
X104259809Y-124261523D01*
X104164571Y-124356761D01*
X104069333Y-124404380D01*
X103878857Y-124404380D01*
X103783619Y-124356761D01*
X103688380Y-124261523D01*
X103640761Y-124071047D01*
X103640761Y-123737714D01*
X103688380Y-123547238D01*
X103783619Y-123452000D01*
X103878857Y-123404380D01*
X104593142Y-123737714D02*
X104974095Y-123737714D01*
X104736000Y-123404380D02*
X104736000Y-124261523D01*
X104783619Y-124356761D01*
X104878857Y-124404380D01*
X104974095Y-124404380D01*
X105307428Y-124404380D02*
X105307428Y-123404380D01*
X105736000Y-124404380D02*
X105736000Y-123880571D01*
X105688380Y-123785333D01*
X105593142Y-123737714D01*
X105450285Y-123737714D01*
X105355047Y-123785333D01*
X105307428Y-123832952D01*
X106593142Y-124356761D02*
X106497904Y-124404380D01*
X106307428Y-124404380D01*
X106212190Y-124356761D01*
X106164571Y-124261523D01*
X106164571Y-123880571D01*
X106212190Y-123785333D01*
X106307428Y-123737714D01*
X106497904Y-123737714D01*
X106593142Y-123785333D01*
X106640761Y-123880571D01*
X106640761Y-123975809D01*
X106164571Y-124071047D01*
X107069333Y-124404380D02*
X107069333Y-123737714D01*
X107069333Y-123928190D02*
X107116952Y-123832952D01*
X107164571Y-123785333D01*
X107259809Y-123737714D01*
X107355047Y-123737714D01*
X108307428Y-123404380D02*
X108878857Y-123404380D01*
X108593142Y-124404380D02*
X108593142Y-123404380D01*
X109593142Y-124356761D02*
X109497904Y-124404380D01*
X109307428Y-124404380D01*
X109212190Y-124356761D01*
X109164571Y-124261523D01*
X109164571Y-123880571D01*
X109212190Y-123785333D01*
X109307428Y-123737714D01*
X109497904Y-123737714D01*
X109593142Y-123785333D01*
X109640761Y-123880571D01*
X109640761Y-123975809D01*
X109164571Y-124071047D01*
X110450285Y-124356761D02*
X110355047Y-124404380D01*
X110164571Y-124404380D01*
X110069333Y-124356761D01*
X110021714Y-124261523D01*
X110021714Y-123880571D01*
X110069333Y-123785333D01*
X110164571Y-123737714D01*
X110355047Y-123737714D01*
X110450285Y-123785333D01*
X110497904Y-123880571D01*
X110497904Y-123975809D01*
X110021714Y-124071047D01*
X110926476Y-123737714D02*
X110926476Y-124404380D01*
X110926476Y-123832952D02*
X110974095Y-123785333D01*
X111069333Y-123737714D01*
X111212190Y-123737714D01*
X111307428Y-123785333D01*
X111355047Y-123880571D01*
X111355047Y-124404380D01*
X111783619Y-124356761D02*
X111878857Y-124404380D01*
X112069333Y-124404380D01*
X112164571Y-124356761D01*
X112212190Y-124261523D01*
X112212190Y-124213904D01*
X112164571Y-124118666D01*
X112069333Y-124071047D01*
X111926476Y-124071047D01*
X111831238Y-124023428D01*
X111783619Y-123928190D01*
X111783619Y-123880571D01*
X111831238Y-123785333D01*
X111926476Y-123737714D01*
X112069333Y-123737714D01*
X112164571Y-123785333D01*
X112545523Y-123737714D02*
X112783619Y-124404380D01*
X113021714Y-123737714D02*
X112783619Y-124404380D01*
X112688380Y-124642476D01*
X112640761Y-124690095D01*
X112545523Y-124737714D01*
X114164571Y-123737714D02*
X114164571Y-124737714D01*
X114164571Y-123785333D02*
X114259809Y-123737714D01*
X114450285Y-123737714D01*
X114545523Y-123785333D01*
X114593142Y-123832952D01*
X114640761Y-123928190D01*
X114640761Y-124213904D01*
X114593142Y-124309142D01*
X114545523Y-124356761D01*
X114450285Y-124404380D01*
X114259809Y-124404380D01*
X114164571Y-124356761D01*
X115069333Y-124404380D02*
X115069333Y-123737714D01*
X115069333Y-123404380D02*
X115021714Y-123452000D01*
X115069333Y-123499619D01*
X115116952Y-123452000D01*
X115069333Y-123404380D01*
X115069333Y-123499619D01*
X115545523Y-123737714D02*
X115545523Y-124404380D01*
X115545523Y-123832952D02*
X115593142Y-123785333D01*
X115688380Y-123737714D01*
X115831238Y-123737714D01*
X115926476Y-123785333D01*
X115974095Y-123880571D01*
X115974095Y-124404380D01*
X116402666Y-124356761D02*
X116497904Y-124404380D01*
X116688380Y-124404380D01*
X116783619Y-124356761D01*
X116831238Y-124261523D01*
X116831238Y-124213904D01*
X116783619Y-124118666D01*
X116688380Y-124071047D01*
X116545523Y-124071047D01*
X116450285Y-124023428D01*
X116402666Y-123928190D01*
X116402666Y-123880571D01*
X116450285Y-123785333D01*
X116545523Y-123737714D01*
X116688380Y-123737714D01*
X116783619Y-123785333D01*
X134501380Y-147208761D02*
X134025190Y-147542095D01*
X134501380Y-147780190D02*
X133501380Y-147780190D01*
X133501380Y-147399238D01*
X133549000Y-147304000D01*
X133596619Y-147256380D01*
X133691857Y-147208761D01*
X133834714Y-147208761D01*
X133929952Y-147256380D01*
X133977571Y-147304000D01*
X134025190Y-147399238D01*
X134025190Y-147780190D01*
X134501380Y-146780190D02*
X133501380Y-146780190D01*
X133501380Y-146399238D01*
X133549000Y-146304000D01*
X133596619Y-146256380D01*
X133691857Y-146208761D01*
X133834714Y-146208761D01*
X133929952Y-146256380D01*
X133977571Y-146304000D01*
X134025190Y-146399238D01*
X134025190Y-146780190D01*
X134501380Y-145780190D02*
X133501380Y-145780190D01*
X133501380Y-145399238D02*
X133501380Y-144780190D01*
X133882333Y-145113523D01*
X133882333Y-144970666D01*
X133929952Y-144875428D01*
X133977571Y-144827809D01*
X134072809Y-144780190D01*
X134310904Y-144780190D01*
X134406142Y-144827809D01*
X134453761Y-144875428D01*
X134501380Y-144970666D01*
X134501380Y-145256380D01*
X134453761Y-145351619D01*
X134406142Y-145399238D01*
X136151380Y-148661142D02*
X135151380Y-148661142D01*
X135627571Y-148661142D02*
X135627571Y-148089714D01*
X136151380Y-148089714D02*
X135151380Y-148089714D01*
X136103761Y-147232571D02*
X136151380Y-147327809D01*
X136151380Y-147518285D01*
X136103761Y-147613523D01*
X136008523Y-147661142D01*
X135627571Y-147661142D01*
X135532333Y-147613523D01*
X135484714Y-147518285D01*
X135484714Y-147327809D01*
X135532333Y-147232571D01*
X135627571Y-147184952D01*
X135722809Y-147184952D01*
X135818047Y-147661142D01*
X136151380Y-146327809D02*
X135627571Y-146327809D01*
X135532333Y-146375428D01*
X135484714Y-146470666D01*
X135484714Y-146661142D01*
X135532333Y-146756380D01*
X136103761Y-146327809D02*
X136151380Y-146423047D01*
X136151380Y-146661142D01*
X136103761Y-146756380D01*
X136008523Y-146804000D01*
X135913285Y-146804000D01*
X135818047Y-146756380D01*
X135770428Y-146661142D01*
X135770428Y-146423047D01*
X135722809Y-146327809D01*
X136151380Y-145423047D02*
X135151380Y-145423047D01*
X136103761Y-145423047D02*
X136151380Y-145518285D01*
X136151380Y-145708761D01*
X136103761Y-145804000D01*
X136056142Y-145851619D01*
X135960904Y-145899238D01*
X135675190Y-145899238D01*
X135579952Y-145851619D01*
X135532333Y-145804000D01*
X135484714Y-145708761D01*
X135484714Y-145518285D01*
X135532333Y-145423047D01*
X136103761Y-144565904D02*
X136151380Y-144661142D01*
X136151380Y-144851619D01*
X136103761Y-144946857D01*
X136008523Y-144994476D01*
X135627571Y-144994476D01*
X135532333Y-144946857D01*
X135484714Y-144851619D01*
X135484714Y-144661142D01*
X135532333Y-144565904D01*
X135627571Y-144518285D01*
X135722809Y-144518285D01*
X135818047Y-144994476D01*
X136151380Y-144089714D02*
X135484714Y-144089714D01*
X135675190Y-144089714D02*
X135579952Y-144042095D01*
X135532333Y-143994476D01*
X135484714Y-143899238D01*
X135484714Y-143804000D01*
X143391142Y-119832380D02*
X143391142Y-118832380D01*
X143772095Y-118832380D01*
X143867333Y-118880000D01*
X143914952Y-118927619D01*
X143962571Y-119022857D01*
X143962571Y-119165714D01*
X143914952Y-119260952D01*
X143867333Y-119308571D01*
X143772095Y-119356190D01*
X143391142Y-119356190D01*
X144581619Y-118832380D02*
X144772095Y-118832380D01*
X144867333Y-118880000D01*
X144962571Y-118975238D01*
X145010190Y-119165714D01*
X145010190Y-119499047D01*
X144962571Y-119689523D01*
X144867333Y-119784761D01*
X144772095Y-119832380D01*
X144581619Y-119832380D01*
X144486380Y-119784761D01*
X144391142Y-119689523D01*
X144343523Y-119499047D01*
X144343523Y-119165714D01*
X144391142Y-118975238D01*
X144486380Y-118880000D01*
X144581619Y-118832380D01*
X145295904Y-118832380D02*
X145867333Y-118832380D01*
X145581619Y-119832380D02*
X145581619Y-118832380D01*
X146676857Y-118832380D02*
X146200666Y-118832380D01*
X146153047Y-119308571D01*
X146200666Y-119260952D01*
X146295904Y-119213333D01*
X146534000Y-119213333D01*
X146629238Y-119260952D01*
X146676857Y-119308571D01*
X146724476Y-119403809D01*
X146724476Y-119641904D01*
X146676857Y-119737142D01*
X146629238Y-119784761D01*
X146534000Y-119832380D01*
X146295904Y-119832380D01*
X146200666Y-119784761D01*
X146153047Y-119737142D01*
X134247142Y-119832380D02*
X134247142Y-118832380D01*
X134628095Y-118832380D01*
X134723333Y-118880000D01*
X134770952Y-118927619D01*
X134818571Y-119022857D01*
X134818571Y-119165714D01*
X134770952Y-119260952D01*
X134723333Y-119308571D01*
X134628095Y-119356190D01*
X134247142Y-119356190D01*
X135437619Y-118832380D02*
X135628095Y-118832380D01*
X135723333Y-118880000D01*
X135818571Y-118975238D01*
X135866190Y-119165714D01*
X135866190Y-119499047D01*
X135818571Y-119689523D01*
X135723333Y-119784761D01*
X135628095Y-119832380D01*
X135437619Y-119832380D01*
X135342380Y-119784761D01*
X135247142Y-119689523D01*
X135199523Y-119499047D01*
X135199523Y-119165714D01*
X135247142Y-118975238D01*
X135342380Y-118880000D01*
X135437619Y-118832380D01*
X136151904Y-118832380D02*
X136723333Y-118832380D01*
X136437619Y-119832380D02*
X136437619Y-118832380D01*
X137485238Y-119165714D02*
X137485238Y-119832380D01*
X137247142Y-118784761D02*
X137009047Y-119499047D01*
X137628095Y-119499047D01*
X142883142Y-107894380D02*
X142883142Y-106894380D01*
X143264095Y-106894380D01*
X143359333Y-106942000D01*
X143406952Y-106989619D01*
X143454571Y-107084857D01*
X143454571Y-107227714D01*
X143406952Y-107322952D01*
X143359333Y-107370571D01*
X143264095Y-107418190D01*
X142883142Y-107418190D01*
X144073619Y-106894380D02*
X144264095Y-106894380D01*
X144359333Y-106942000D01*
X144454571Y-107037238D01*
X144502190Y-107227714D01*
X144502190Y-107561047D01*
X144454571Y-107751523D01*
X144359333Y-107846761D01*
X144264095Y-107894380D01*
X144073619Y-107894380D01*
X143978380Y-107846761D01*
X143883142Y-107751523D01*
X143835523Y-107561047D01*
X143835523Y-107227714D01*
X143883142Y-107037238D01*
X143978380Y-106942000D01*
X144073619Y-106894380D01*
X144787904Y-106894380D02*
X145359333Y-106894380D01*
X145073619Y-107894380D02*
X145073619Y-106894380D01*
X145597428Y-106894380D02*
X146216476Y-106894380D01*
X145883142Y-107275333D01*
X146026000Y-107275333D01*
X146121238Y-107322952D01*
X146168857Y-107370571D01*
X146216476Y-107465809D01*
X146216476Y-107703904D01*
X146168857Y-107799142D01*
X146121238Y-107846761D01*
X146026000Y-107894380D01*
X145740285Y-107894380D01*
X145645047Y-107846761D01*
X145597428Y-107799142D01*
X133993142Y-107894380D02*
X133993142Y-106894380D01*
X134374095Y-106894380D01*
X134469333Y-106942000D01*
X134516952Y-106989619D01*
X134564571Y-107084857D01*
X134564571Y-107227714D01*
X134516952Y-107322952D01*
X134469333Y-107370571D01*
X134374095Y-107418190D01*
X133993142Y-107418190D01*
X135183619Y-106894380D02*
X135374095Y-106894380D01*
X135469333Y-106942000D01*
X135564571Y-107037238D01*
X135612190Y-107227714D01*
X135612190Y-107561047D01*
X135564571Y-107751523D01*
X135469333Y-107846761D01*
X135374095Y-107894380D01*
X135183619Y-107894380D01*
X135088380Y-107846761D01*
X134993142Y-107751523D01*
X134945523Y-107561047D01*
X134945523Y-107227714D01*
X134993142Y-107037238D01*
X135088380Y-106942000D01*
X135183619Y-106894380D01*
X135897904Y-106894380D02*
X136469333Y-106894380D01*
X136183619Y-107894380D02*
X136183619Y-106894380D01*
X136755047Y-106989619D02*
X136802666Y-106942000D01*
X136897904Y-106894380D01*
X137136000Y-106894380D01*
X137231238Y-106942000D01*
X137278857Y-106989619D01*
X137326476Y-107084857D01*
X137326476Y-107180095D01*
X137278857Y-107322952D01*
X136707428Y-107894380D01*
X137326476Y-107894380D01*
X125611142Y-107894380D02*
X125611142Y-106894380D01*
X125992095Y-106894380D01*
X126087333Y-106942000D01*
X126134952Y-106989619D01*
X126182571Y-107084857D01*
X126182571Y-107227714D01*
X126134952Y-107322952D01*
X126087333Y-107370571D01*
X125992095Y-107418190D01*
X125611142Y-107418190D01*
X126801619Y-106894380D02*
X126992095Y-106894380D01*
X127087333Y-106942000D01*
X127182571Y-107037238D01*
X127230190Y-107227714D01*
X127230190Y-107561047D01*
X127182571Y-107751523D01*
X127087333Y-107846761D01*
X126992095Y-107894380D01*
X126801619Y-107894380D01*
X126706380Y-107846761D01*
X126611142Y-107751523D01*
X126563523Y-107561047D01*
X126563523Y-107227714D01*
X126611142Y-107037238D01*
X126706380Y-106942000D01*
X126801619Y-106894380D01*
X127515904Y-106894380D02*
X128087333Y-106894380D01*
X127801619Y-107894380D02*
X127801619Y-106894380D01*
X128944476Y-107894380D02*
X128373047Y-107894380D01*
X128658761Y-107894380D02*
X128658761Y-106894380D01*
X128563523Y-107037238D01*
X128468285Y-107132476D01*
X128373047Y-107180095D01*
D11*
X87044857Y-139692000D02*
X88473428Y-139692000D01*
X86759142Y-140549142D02*
X87759142Y-137549142D01*
X88759142Y-140549142D01*
X91044857Y-138549142D02*
X91044857Y-140549142D01*
X89759142Y-138549142D02*
X89759142Y-140120571D01*
X89902000Y-140406285D01*
X90187714Y-140549142D01*
X90616285Y-140549142D01*
X90902000Y-140406285D01*
X91044857Y-140263428D01*
X93759142Y-140549142D02*
X93759142Y-137549142D01*
X93759142Y-140406285D02*
X93473428Y-140549142D01*
X92902000Y-140549142D01*
X92616285Y-140406285D01*
X92473428Y-140263428D01*
X92330571Y-139977714D01*
X92330571Y-139120571D01*
X92473428Y-138834857D01*
X92616285Y-138692000D01*
X92902000Y-138549142D01*
X93473428Y-138549142D01*
X93759142Y-138692000D01*
X95187714Y-140549142D02*
X95187714Y-138549142D01*
X95187714Y-137549142D02*
X95044857Y-137692000D01*
X95187714Y-137834857D01*
X95330571Y-137692000D01*
X95187714Y-137549142D01*
X95187714Y-137834857D01*
X97044857Y-140549142D02*
X96759142Y-140406285D01*
X96616285Y-140263428D01*
X96473428Y-139977714D01*
X96473428Y-139120571D01*
X96616285Y-138834857D01*
X96759142Y-138692000D01*
X97044857Y-138549142D01*
X97473428Y-138549142D01*
X97759142Y-138692000D01*
X97902000Y-138834857D01*
X98044857Y-139120571D01*
X98044857Y-139977714D01*
X97902000Y-140263428D01*
X97759142Y-140406285D01*
X97473428Y-140549142D01*
X97044857Y-140549142D01*
X100330571Y-138977714D02*
X100759142Y-139120571D01*
X100902000Y-139263428D01*
X101044857Y-139549142D01*
X101044857Y-139977714D01*
X100902000Y-140263428D01*
X100759142Y-140406285D01*
X100473428Y-140549142D01*
X99330571Y-140549142D01*
X99330571Y-137549142D01*
X100330571Y-137549142D01*
X100616285Y-137692000D01*
X100759142Y-137834857D01*
X100902000Y-138120571D01*
X100902000Y-138406285D01*
X100759142Y-138692000D01*
X100616285Y-138834857D01*
X100330571Y-138977714D01*
X99330571Y-138977714D01*
X102759142Y-140549142D02*
X102473428Y-140406285D01*
X102330571Y-140263428D01*
X102187714Y-139977714D01*
X102187714Y-139120571D01*
X102330571Y-138834857D01*
X102473428Y-138692000D01*
X102759142Y-138549142D01*
X103187714Y-138549142D01*
X103473428Y-138692000D01*
X103616285Y-138834857D01*
X103759142Y-139120571D01*
X103759142Y-139977714D01*
X103616285Y-140263428D01*
X103473428Y-140406285D01*
X103187714Y-140549142D01*
X102759142Y-140549142D01*
X106330571Y-140549142D02*
X106330571Y-138977714D01*
X106187714Y-138692000D01*
X105902000Y-138549142D01*
X105330571Y-138549142D01*
X105044857Y-138692000D01*
X106330571Y-140406285D02*
X106044857Y-140549142D01*
X105330571Y-140549142D01*
X105044857Y-140406285D01*
X104902000Y-140120571D01*
X104902000Y-139834857D01*
X105044857Y-139549142D01*
X105330571Y-139406285D01*
X106044857Y-139406285D01*
X106330571Y-139263428D01*
X107759142Y-140549142D02*
X107759142Y-138549142D01*
X107759142Y-139120571D02*
X107902000Y-138834857D01*
X108044857Y-138692000D01*
X108330571Y-138549142D01*
X108616285Y-138549142D01*
X110902000Y-140549142D02*
X110902000Y-137549142D01*
X110902000Y-140406285D02*
X110616285Y-140549142D01*
X110044857Y-140549142D01*
X109759142Y-140406285D01*
X109616285Y-140263428D01*
X109473428Y-139977714D01*
X109473428Y-139120571D01*
X109616285Y-138834857D01*
X109759142Y-138692000D01*
X110044857Y-138549142D01*
X110616285Y-138549142D01*
X110902000Y-138692000D01*
X114330571Y-138549142D02*
X115044857Y-140549142D01*
X115759142Y-138549142D01*
X117473428Y-137549142D02*
X117759142Y-137549142D01*
X118044857Y-137692000D01*
X118187714Y-137834857D01*
X118330571Y-138120571D01*
X118473428Y-138692000D01*
X118473428Y-139406285D01*
X118330571Y-139977714D01*
X118187714Y-140263428D01*
X118044857Y-140406285D01*
X117759142Y-140549142D01*
X117473428Y-140549142D01*
X117187714Y-140406285D01*
X117044857Y-140263428D01*
X116901999Y-139977714D01*
X116759142Y-139406285D01*
X116759142Y-138692000D01*
X116901999Y-138120571D01*
X117044857Y-137834857D01*
X117187714Y-137692000D01*
X117473428Y-137549142D01*
X119759142Y-140263428D02*
X119902000Y-140406285D01*
X119759142Y-140549142D01*
X119616285Y-140406285D01*
X119759142Y-140263428D01*
X119759142Y-140549142D01*
X121044857Y-137834857D02*
X121187714Y-137692000D01*
X121473428Y-137549142D01*
X122187714Y-137549142D01*
X122473428Y-137692000D01*
X122616285Y-137834857D01*
X122759142Y-138120571D01*
X122759142Y-138406285D01*
X122616285Y-138834857D01*
X120901999Y-140549142D01*
X122759142Y-140549142D01*
D10*
X82812190Y-63968380D02*
X83002666Y-63968380D01*
X83097904Y-64016000D01*
X83193142Y-64111238D01*
X83240761Y-64301714D01*
X83240761Y-64635047D01*
X83193142Y-64825523D01*
X83097904Y-64920761D01*
X83002666Y-64968380D01*
X82812190Y-64968380D01*
X82716952Y-64920761D01*
X82621714Y-64825523D01*
X82574095Y-64635047D01*
X82574095Y-64301714D01*
X82621714Y-64111238D01*
X82716952Y-64016000D01*
X82812190Y-63968380D01*
X84097904Y-64301714D02*
X84097904Y-64968380D01*
X83669333Y-64301714D02*
X83669333Y-64825523D01*
X83716952Y-64920761D01*
X83812190Y-64968380D01*
X83955047Y-64968380D01*
X84050285Y-64920761D01*
X84097904Y-64873142D01*
X84431238Y-64301714D02*
X84812190Y-64301714D01*
X84574095Y-63968380D02*
X84574095Y-64825523D01*
X84621714Y-64920761D01*
X84716952Y-64968380D01*
X84812190Y-64968380D01*
X85145523Y-64301714D02*
X85145523Y-65301714D01*
X85145523Y-64349333D02*
X85240761Y-64301714D01*
X85431238Y-64301714D01*
X85526476Y-64349333D01*
X85574095Y-64396952D01*
X85621714Y-64492190D01*
X85621714Y-64777904D01*
X85574095Y-64873142D01*
X85526476Y-64920761D01*
X85431238Y-64968380D01*
X85240761Y-64968380D01*
X85145523Y-64920761D01*
X86478857Y-64301714D02*
X86478857Y-64968380D01*
X86050285Y-64301714D02*
X86050285Y-64825523D01*
X86097904Y-64920761D01*
X86193142Y-64968380D01*
X86336000Y-64968380D01*
X86431238Y-64920761D01*
X86478857Y-64873142D01*
X86812190Y-64301714D02*
X87193142Y-64301714D01*
X86955047Y-63968380D02*
X86955047Y-64825523D01*
X87002666Y-64920761D01*
X87097904Y-64968380D01*
X87193142Y-64968380D01*
X68715142Y-64968380D02*
X68715142Y-63968380D01*
X69191333Y-64301714D02*
X69191333Y-64968380D01*
X69191333Y-64396952D02*
X69238952Y-64349333D01*
X69334190Y-64301714D01*
X69477047Y-64301714D01*
X69572285Y-64349333D01*
X69619904Y-64444571D01*
X69619904Y-64968380D01*
X70096095Y-64301714D02*
X70096095Y-65301714D01*
X70096095Y-64349333D02*
X70191333Y-64301714D01*
X70381809Y-64301714D01*
X70477047Y-64349333D01*
X70524666Y-64396952D01*
X70572285Y-64492190D01*
X70572285Y-64777904D01*
X70524666Y-64873142D01*
X70477047Y-64920761D01*
X70381809Y-64968380D01*
X70191333Y-64968380D01*
X70096095Y-64920761D01*
X71429428Y-64301714D02*
X71429428Y-64968380D01*
X71000857Y-64301714D02*
X71000857Y-64825523D01*
X71048476Y-64920761D01*
X71143714Y-64968380D01*
X71286571Y-64968380D01*
X71381809Y-64920761D01*
X71429428Y-64873142D01*
X71762761Y-64301714D02*
X72143714Y-64301714D01*
X71905619Y-63968380D02*
X71905619Y-64825523D01*
X71953238Y-64920761D01*
X72048476Y-64968380D01*
X72143714Y-64968380D01*
X122102952Y-66746380D02*
X122102952Y-65746380D01*
X122436285Y-66460666D01*
X122769619Y-65746380D01*
X122769619Y-66746380D01*
X123245809Y-66746380D02*
X123245809Y-65746380D01*
X123722000Y-66746380D02*
X123722000Y-65746380D01*
X123960095Y-65746380D01*
X124102952Y-65794000D01*
X124198190Y-65889238D01*
X124245809Y-65984476D01*
X124293428Y-66174952D01*
X124293428Y-66317809D01*
X124245809Y-66508285D01*
X124198190Y-66603523D01*
X124102952Y-66698761D01*
X123960095Y-66746380D01*
X123722000Y-66746380D01*
X124722000Y-66746380D02*
X124722000Y-65746380D01*
X126150571Y-65746380D02*
X126341047Y-65746380D01*
X126436285Y-65794000D01*
X126531523Y-65889238D01*
X126579142Y-66079714D01*
X126579142Y-66413047D01*
X126531523Y-66603523D01*
X126436285Y-66698761D01*
X126341047Y-66746380D01*
X126150571Y-66746380D01*
X126055333Y-66698761D01*
X125960095Y-66603523D01*
X125912476Y-66413047D01*
X125912476Y-66079714D01*
X125960095Y-65889238D01*
X126055333Y-65794000D01*
X126150571Y-65746380D01*
X127007714Y-65746380D02*
X127007714Y-66555904D01*
X127055333Y-66651142D01*
X127102952Y-66698761D01*
X127198190Y-66746380D01*
X127388666Y-66746380D01*
X127483904Y-66698761D01*
X127531523Y-66651142D01*
X127579142Y-66555904D01*
X127579142Y-65746380D01*
X127912476Y-65746380D02*
X128483904Y-65746380D01*
X128198190Y-66746380D02*
X128198190Y-65746380D01*
X101179619Y-66746380D02*
X101179619Y-65746380D01*
X101512952Y-66460666D01*
X101846285Y-65746380D01*
X101846285Y-66746380D01*
X102322476Y-66746380D02*
X102322476Y-65746380D01*
X102798666Y-66746380D02*
X102798666Y-65746380D01*
X103036761Y-65746380D01*
X103179619Y-65794000D01*
X103274857Y-65889238D01*
X103322476Y-65984476D01*
X103370095Y-66174952D01*
X103370095Y-66317809D01*
X103322476Y-66508285D01*
X103274857Y-66603523D01*
X103179619Y-66698761D01*
X103036761Y-66746380D01*
X102798666Y-66746380D01*
X103798666Y-66746380D02*
X103798666Y-65746380D01*
X105036761Y-66746380D02*
X105036761Y-65746380D01*
X105512952Y-66746380D02*
X105512952Y-65746380D01*
X106084380Y-66746380D01*
X106084380Y-65746380D01*
X142708380Y-92019238D02*
X143517904Y-92019238D01*
X143613142Y-91971619D01*
X143660761Y-91924000D01*
X143708380Y-91828761D01*
X143708380Y-91638285D01*
X143660761Y-91543047D01*
X143613142Y-91495428D01*
X143517904Y-91447809D01*
X142708380Y-91447809D01*
X143422666Y-91019238D02*
X143422666Y-90543047D01*
X143708380Y-91114476D02*
X142708380Y-90781142D01*
X143708380Y-90447809D01*
X143708380Y-89543047D02*
X143232190Y-89876380D01*
X143708380Y-90114476D02*
X142708380Y-90114476D01*
X142708380Y-89733523D01*
X142756000Y-89638285D01*
X142803619Y-89590666D01*
X142898857Y-89543047D01*
X143041714Y-89543047D01*
X143136952Y-89590666D01*
X143184571Y-89638285D01*
X143232190Y-89733523D01*
X143232190Y-90114476D01*
X142708380Y-89257333D02*
X142708380Y-88685904D01*
X143708380Y-88971619D02*
X142708380Y-88971619D01*
X80764190Y-125880761D02*
X80907047Y-125928380D01*
X81145142Y-125928380D01*
X81240380Y-125880761D01*
X81288000Y-125833142D01*
X81335619Y-125737904D01*
X81335619Y-125642666D01*
X81288000Y-125547428D01*
X81240380Y-125499809D01*
X81145142Y-125452190D01*
X80954666Y-125404571D01*
X80859428Y-125356952D01*
X80811809Y-125309333D01*
X80764190Y-125214095D01*
X80764190Y-125118857D01*
X80811809Y-125023619D01*
X80859428Y-124976000D01*
X80954666Y-124928380D01*
X81192761Y-124928380D01*
X81335619Y-124976000D01*
X81764190Y-125928380D02*
X81764190Y-124928380D01*
X82145142Y-124928380D01*
X82240380Y-124976000D01*
X82288000Y-125023619D01*
X82335619Y-125118857D01*
X82335619Y-125261714D01*
X82288000Y-125356952D01*
X82240380Y-125404571D01*
X82145142Y-125452190D01*
X81764190Y-125452190D01*
X82764190Y-125928380D02*
X82764190Y-124928380D01*
X62960476Y-125928380D02*
X62960476Y-124928380D01*
X63389047Y-125023619D02*
X63436666Y-124976000D01*
X63531904Y-124928380D01*
X63770000Y-124928380D01*
X63865238Y-124976000D01*
X63912857Y-125023619D01*
X63960476Y-125118857D01*
X63960476Y-125214095D01*
X63912857Y-125356952D01*
X63341428Y-125928380D01*
X63960476Y-125928380D01*
X64341428Y-125880761D02*
X64484285Y-125928380D01*
X64722380Y-125928380D01*
X64817619Y-125880761D01*
X64865238Y-125833142D01*
X64912857Y-125737904D01*
X64912857Y-125642666D01*
X64865238Y-125547428D01*
X64817619Y-125499809D01*
X64722380Y-125452190D01*
X64531904Y-125404571D01*
X64436666Y-125356952D01*
X64389047Y-125309333D01*
X64341428Y-125214095D01*
X64341428Y-125118857D01*
X64389047Y-125023619D01*
X64436666Y-124976000D01*
X64531904Y-124928380D01*
X64770000Y-124928380D01*
X64912857Y-124976000D01*
X66055714Y-125023619D02*
X66103333Y-124976000D01*
X66198571Y-124928380D01*
X66436666Y-124928380D01*
X66531904Y-124976000D01*
X66579523Y-125023619D01*
X66627142Y-125118857D01*
X66627142Y-125214095D01*
X66579523Y-125356952D01*
X66008095Y-125928380D01*
X66627142Y-125928380D01*
D12*
X50000000Y-150000000D02*
X50000000Y-50000000D01*
X50000000Y-50000000D02*
X150000000Y-50000000D01*
X150000000Y-150000000D02*
X50000000Y-150000000D01*
X150000000Y-50000000D02*
X150000000Y-150000000D01*
D10*
%TO.C,U1*%
X53848000Y-115824000D02*
X52578000Y-115824000D01*
X52578000Y-115824000D02*
X52578000Y-108204000D01*
X52578000Y-108204000D02*
X53848000Y-108204000D01*
X58928000Y-115824000D02*
X58928000Y-108204000D01*
X58928000Y-108204000D02*
X53848000Y-108204000D01*
X58928000Y-115824000D02*
X53848000Y-115824000D01*
X86360000Y-110744000D02*
X86360000Y-113284000D01*
X86360000Y-113284000D02*
X81788000Y-113284000D01*
X81788000Y-113284000D02*
X81788000Y-110744000D01*
X81788000Y-110744000D02*
X86360000Y-110744000D01*
X76073000Y-117094000D02*
X76073000Y-106934000D01*
X65913000Y-106934000D02*
X65913000Y-117094000D01*
X76073000Y-106934000D02*
X65913000Y-106934000D01*
X76073000Y-117094000D02*
X65913000Y-117094000D01*
X53848000Y-103124000D02*
X89408000Y-103124000D01*
X89408000Y-103124000D02*
X89408000Y-120904000D01*
X89408000Y-120904000D02*
X53848000Y-120904000D01*
X53848000Y-120904000D02*
X53848000Y-103124000D01*
X76708000Y-106934000D02*
X79248000Y-106934000D01*
X79248000Y-106934000D02*
X79248000Y-110109000D01*
X79248000Y-110109000D02*
X76708000Y-110109000D01*
X76708000Y-110109000D02*
X76708000Y-106934000D01*
D13*
G36*
X68453000Y-111379000D02*
G01*
X68707000Y-111125000D01*
X68961000Y-111506000D01*
X68707000Y-111760000D01*
X68453000Y-111379000D01*
G37*
X68453000Y-111379000D02*
X68707000Y-111125000D01*
X68961000Y-111506000D01*
X68707000Y-111760000D01*
X68453000Y-111379000D01*
G36*
X68834000Y-111887000D02*
G01*
X69088000Y-111633000D01*
X69342000Y-112014000D01*
X69088000Y-112268000D01*
X68834000Y-111887000D01*
G37*
X68834000Y-111887000D02*
X69088000Y-111633000D01*
X69342000Y-112014000D01*
X69088000Y-112268000D01*
X68834000Y-111887000D01*
G36*
X69215000Y-112395000D02*
G01*
X69469000Y-112141000D01*
X69723000Y-112522000D01*
X69469000Y-112776000D01*
X69215000Y-112395000D01*
G37*
X69215000Y-112395000D02*
X69469000Y-112141000D01*
X69723000Y-112522000D01*
X69469000Y-112776000D01*
X69215000Y-112395000D01*
G36*
X69215000Y-111506000D02*
G01*
X69469000Y-111252000D01*
X69723000Y-111633000D01*
X69469000Y-111887000D01*
X69215000Y-111506000D01*
G37*
X69215000Y-111506000D02*
X69469000Y-111252000D01*
X69723000Y-111633000D01*
X69469000Y-111887000D01*
X69215000Y-111506000D01*
G36*
X69596000Y-112014000D02*
G01*
X69850000Y-111760000D01*
X70104000Y-112141000D01*
X69850000Y-112395000D01*
X69596000Y-112014000D01*
G37*
X69596000Y-112014000D02*
X69850000Y-111760000D01*
X70104000Y-112141000D01*
X69850000Y-112395000D01*
X69596000Y-112014000D01*
G36*
X69977000Y-112522000D02*
G01*
X70231000Y-112268000D01*
X70485000Y-112649000D01*
X70231000Y-112903000D01*
X69977000Y-112522000D01*
G37*
X69977000Y-112522000D02*
X70231000Y-112268000D01*
X70485000Y-112649000D01*
X70231000Y-112903000D01*
X69977000Y-112522000D01*
G36*
X68072000Y-111760000D02*
G01*
X68326000Y-111506000D01*
X68580000Y-111887000D01*
X68326000Y-112141000D01*
X68072000Y-111760000D01*
G37*
X68072000Y-111760000D02*
X68326000Y-111506000D01*
X68580000Y-111887000D01*
X68326000Y-112141000D01*
X68072000Y-111760000D01*
G36*
X67691000Y-112141000D02*
G01*
X67945000Y-111887000D01*
X68199000Y-112268000D01*
X67945000Y-112522000D01*
X67691000Y-112141000D01*
G37*
X67691000Y-112141000D02*
X67945000Y-111887000D01*
X68199000Y-112268000D01*
X67945000Y-112522000D01*
X67691000Y-112141000D01*
D14*
%TO.C,JP1*%
X56896000Y-73600000D02*
X56896000Y-76260000D01*
X56896000Y-73600000D02*
X51756000Y-73600000D01*
X51756000Y-73600000D02*
X51756000Y-76260000D01*
X56896000Y-76260000D02*
X51756000Y-76260000D01*
X59496000Y-76260000D02*
X58166000Y-76260000D01*
X59496000Y-74930000D02*
X59496000Y-76260000D01*
%TO.C,J5*%
X61496000Y-64654000D02*
X58896000Y-64654000D01*
X61496000Y-49954000D02*
X61496000Y-64654000D01*
X52296000Y-64654000D02*
X52296000Y-62754000D01*
X54996000Y-64654000D02*
X52296000Y-64654000D01*
X52296000Y-49954000D02*
X61496000Y-49954000D01*
X52296000Y-58754000D02*
X52296000Y-49954000D01*
X61696000Y-63804000D02*
X61696000Y-64854000D01*
X60646000Y-64854000D02*
X61696000Y-64854000D01*
%TO.C,R15*%
X80290000Y-69258578D02*
X80290000Y-68741422D01*
X81710000Y-69258578D02*
X81710000Y-68741422D01*
%TO.C,R14*%
X87290000Y-69258578D02*
X87290000Y-68741422D01*
X88710000Y-69258578D02*
X88710000Y-68741422D01*
%TO.C,R13*%
X76402000Y-68067422D02*
X76402000Y-68584578D01*
X74982000Y-68067422D02*
X74982000Y-68584578D01*
%TO.C,R12*%
X66472000Y-68270622D02*
X66472000Y-68787778D01*
X65052000Y-68270622D02*
X65052000Y-68787778D01*
%TO.C,R5*%
X140378922Y-113590000D02*
X140896078Y-113590000D01*
X140378922Y-115010000D02*
X140896078Y-115010000D01*
%TO.C,R4*%
X140789922Y-125397200D02*
X141307078Y-125397200D01*
X140789922Y-126817200D02*
X141307078Y-126817200D01*
%TO.C,R3*%
X131645922Y-113590000D02*
X132163078Y-113590000D01*
X131645922Y-115010000D02*
X132163078Y-115010000D01*
%TO.C,R2*%
X131821422Y-125397200D02*
X132338578Y-125397200D01*
X131821422Y-126817200D02*
X132338578Y-126817200D01*
%TO.C,R1*%
X123106922Y-113590000D02*
X123624078Y-113590000D01*
X123106922Y-115010000D02*
X123624078Y-115010000D01*
D13*
%TO.C,J15*%
X90970000Y-56671000D02*
X90970000Y-50046000D01*
X90970000Y-50046000D02*
X63970000Y-50046000D01*
X63970000Y-50046000D02*
X63970000Y-56671000D01*
X90970000Y-61171000D02*
X90970000Y-63746000D01*
X90970000Y-63746000D02*
X63970000Y-63746000D01*
X63970000Y-63746000D02*
X63970000Y-61171000D01*
D14*
%TO.C,U2*%
X112836000Y-79374000D02*
X112836000Y-77139000D01*
X102556000Y-79374000D02*
X112836000Y-79374000D01*
X102556000Y-72904000D02*
X102556000Y-79374000D01*
X112836000Y-72904000D02*
X102556000Y-72904000D01*
X112836000Y-75139000D02*
X112836000Y-72904000D01*
X112836000Y-77139000D02*
G75*
G02*
X112836000Y-75139000I0J1000000D01*
G01*
%TO.C,JP4*%
X61976000Y-74108000D02*
X63306000Y-74108000D01*
X63306000Y-74108000D02*
X63306000Y-75438000D01*
X63306000Y-76708000D02*
X63306000Y-79308000D01*
X60646000Y-79308000D02*
X63306000Y-79308000D01*
X60646000Y-76708000D02*
X60646000Y-79308000D01*
X60646000Y-76708000D02*
X63306000Y-76708000D01*
%TO.C,JP3*%
X79308000Y-84836000D02*
X79308000Y-86166000D01*
X79308000Y-86166000D02*
X77978000Y-86166000D01*
X76708000Y-86166000D02*
X74108000Y-86166000D01*
X74108000Y-83506000D02*
X74108000Y-86166000D01*
X76708000Y-83506000D02*
X74108000Y-83506000D01*
X76708000Y-83506000D02*
X76708000Y-86166000D01*
%TO.C,JP2*%
X79308000Y-81280000D02*
X79308000Y-82610000D01*
X79308000Y-82610000D02*
X77978000Y-82610000D01*
X76708000Y-82610000D02*
X74108000Y-82610000D01*
X74108000Y-79950000D02*
X74108000Y-82610000D01*
X76708000Y-79950000D02*
X74108000Y-79950000D01*
X76708000Y-79950000D02*
X76708000Y-82610000D01*
D15*
%TO.C,J14*%
X114856000Y-62514000D02*
X114856000Y-62514000D01*
X114856000Y-62314000D02*
X114856000Y-62314000D01*
D13*
X115361000Y-65414000D02*
X117861000Y-65414000D01*
X115361000Y-49914000D02*
X115361000Y-65414000D01*
X135361000Y-49914000D02*
X115361000Y-49914000D01*
X135361000Y-65414000D02*
X135361000Y-49914000D01*
X132866000Y-65414000D02*
X135361000Y-65414000D01*
D15*
X114856000Y-62314000D02*
G75*
G03*
X114856000Y-62514000I0J-100000D01*
G01*
X114856000Y-62514000D02*
G75*
G03*
X114856000Y-62314000I0J100000D01*
G01*
%TO.C,J13*%
X93266000Y-62514000D02*
X93266000Y-62514000D01*
X93266000Y-62314000D02*
X93266000Y-62314000D01*
D13*
X93771000Y-65414000D02*
X96271000Y-65414000D01*
X93771000Y-49914000D02*
X93771000Y-65414000D01*
X113771000Y-49914000D02*
X93771000Y-49914000D01*
X113771000Y-65414000D02*
X113771000Y-49914000D01*
X111276000Y-65414000D02*
X113771000Y-65414000D01*
D15*
X93266000Y-62314000D02*
G75*
G03*
X93266000Y-62514000I0J-100000D01*
G01*
X93266000Y-62514000D02*
G75*
G03*
X93266000Y-62314000I0J100000D01*
G01*
D14*
%TO.C,J11*%
X144624000Y-110462000D02*
X145954000Y-110462000D01*
X145954000Y-110462000D02*
X145954000Y-111792000D01*
X145954000Y-113062000D02*
X145954000Y-118202000D01*
X143294000Y-118202000D02*
X145954000Y-118202000D01*
X143294000Y-113062000D02*
X143294000Y-118202000D01*
X143294000Y-113062000D02*
X145954000Y-113062000D01*
%TO.C,J10*%
X144892000Y-122212000D02*
X146222000Y-122212000D01*
X146222000Y-122212000D02*
X146222000Y-123542000D01*
X146222000Y-124812000D02*
X146222000Y-129952000D01*
X143562000Y-129952000D02*
X146222000Y-129952000D01*
X143562000Y-124812000D02*
X143562000Y-129952000D01*
X143562000Y-124812000D02*
X146222000Y-124812000D01*
%TO.C,J9*%
X135748000Y-110462000D02*
X137078000Y-110462000D01*
X137078000Y-110462000D02*
X137078000Y-111792000D01*
X137078000Y-113062000D02*
X137078000Y-118202000D01*
X134418000Y-118202000D02*
X137078000Y-118202000D01*
X134418000Y-113062000D02*
X134418000Y-118202000D01*
X134418000Y-113062000D02*
X137078000Y-113062000D01*
%TO.C,J8*%
X135636000Y-122114000D02*
X136966000Y-122114000D01*
X136966000Y-122114000D02*
X136966000Y-123444000D01*
X136966000Y-124714000D02*
X136966000Y-129854000D01*
X134306000Y-129854000D02*
X136966000Y-129854000D01*
X134306000Y-124714000D02*
X134306000Y-129854000D01*
X134306000Y-124714000D02*
X136966000Y-124714000D01*
%TO.C,J7*%
X127126000Y-110462000D02*
X128456000Y-110462000D01*
X128456000Y-110462000D02*
X128456000Y-111792000D01*
X128456000Y-113062000D02*
X128456000Y-118202000D01*
X125796000Y-118202000D02*
X128456000Y-118202000D01*
X125796000Y-113062000D02*
X125796000Y-118202000D01*
X125796000Y-113062000D02*
X128456000Y-113062000D01*
%TO.C,J6*%
X146304000Y-75378000D02*
X147634000Y-75378000D01*
X147634000Y-75378000D02*
X147634000Y-76708000D01*
X147634000Y-77978000D02*
X147634000Y-83118000D01*
X144974000Y-83118000D02*
X147634000Y-83118000D01*
X144974000Y-77978000D02*
X144974000Y-83118000D01*
X144974000Y-77978000D02*
X147634000Y-77978000D01*
%TO.C,J4*%
X146304000Y-86300000D02*
X147634000Y-86300000D01*
X147634000Y-86300000D02*
X147634000Y-87630000D01*
X147634000Y-88900000D02*
X147634000Y-94040000D01*
X144974000Y-94040000D02*
X147634000Y-94040000D01*
X144974000Y-88900000D02*
X144974000Y-94040000D01*
X144974000Y-88900000D02*
X147634000Y-88900000D01*
%TO.C,J3*%
X110236000Y-112208000D02*
X111566000Y-112208000D01*
X111566000Y-112208000D02*
X111566000Y-113538000D01*
X111566000Y-114808000D02*
X111566000Y-122488000D01*
X108906000Y-122488000D02*
X111566000Y-122488000D01*
X108906000Y-114808000D02*
X108906000Y-122488000D01*
X108906000Y-114808000D02*
X111566000Y-114808000D01*
%TO.C,J2*%
X92008000Y-128016000D02*
X92008000Y-129346000D01*
X92008000Y-129346000D02*
X90678000Y-129346000D01*
X89408000Y-129346000D02*
X76648000Y-129346000D01*
X76648000Y-126686000D02*
X76648000Y-129346000D01*
X89408000Y-126686000D02*
X76648000Y-126686000D01*
X89408000Y-126686000D02*
X89408000Y-129346000D01*
%TO.C,J1*%
X74228000Y-128168400D02*
X74228000Y-129498400D01*
X74228000Y-129498400D02*
X72898000Y-129498400D01*
X71628000Y-129498400D02*
X58868000Y-129498400D01*
X58868000Y-126838400D02*
X58868000Y-129498400D01*
X71628000Y-126838400D02*
X58868000Y-126838400D01*
X71628000Y-126838400D02*
X71628000Y-129498400D01*
D15*
%TO.C,IC3*%
X72190000Y-76525200D02*
X72190000Y-78325200D01*
X65090000Y-78675200D02*
X72290000Y-78675200D01*
X65090000Y-83275200D02*
X65090000Y-78675200D01*
X72290000Y-83275200D02*
X65090000Y-83275200D01*
X72290000Y-78675200D02*
X72290000Y-83275200D01*
%TO.C,IC2*%
X91206200Y-76055600D02*
X91206200Y-77530600D01*
X84456200Y-77880600D02*
X90956200Y-77880600D01*
X84456200Y-81580600D02*
X84456200Y-77880600D01*
X90956200Y-81580600D02*
X84456200Y-81580600D01*
X90956200Y-77880600D02*
X90956200Y-81580600D01*
%TO.C,IC1*%
X59524400Y-83785400D02*
X58224400Y-83785400D01*
X57276400Y-77418400D02*
X57276400Y-83922400D01*
X53772400Y-77418400D02*
X57276400Y-77418400D01*
X53772400Y-83922400D02*
X53772400Y-77418400D01*
X57276400Y-83922400D02*
X53772400Y-83922400D01*
%TO.C,D1*%
X109780000Y-69226000D02*
X106220000Y-69226000D01*
X109020000Y-67426000D02*
X106220000Y-67426000D01*
%TO.C,C29*%
X81820000Y-65475000D02*
X81820000Y-66525000D01*
%TO.C,C28*%
X87180000Y-66525000D02*
X87180000Y-65475000D01*
%TO.C,C23*%
X88584000Y-73286000D02*
X87184000Y-73286000D01*
%TO.C,C19*%
X93664000Y-79756000D02*
X92264000Y-79756000D01*
%TO.C,C16*%
X73931000Y-68522000D02*
X72881000Y-68522000D01*
%TO.C,C15*%
X67547000Y-68638000D02*
X68597000Y-68638000D01*
%TO.C,C2*%
X62399400Y-81490400D02*
X61349400Y-81490400D01*
%TO.C,C1*%
X52774000Y-66819000D02*
X52774000Y-65769000D01*
D14*
%TO.C,R10*%
X119686000Y-69321422D02*
X119686000Y-69838578D01*
X121106000Y-69321422D02*
X121106000Y-69838578D01*
%TO.C,R11*%
X131212000Y-69377936D02*
X131212000Y-70582064D01*
X129392000Y-69377936D02*
X129392000Y-70582064D01*
D13*
%TO.C,J16*%
X147256000Y-50038000D02*
X139256000Y-50038000D01*
X137256000Y-55238000D02*
X137256000Y-58238000D01*
X149256000Y-55238000D02*
X149256000Y-58238000D01*
X149256000Y-61238000D02*
X149256000Y-61738000D01*
X149256000Y-61738000D02*
X137256000Y-61738000D01*
X137256000Y-61738000D02*
X137256000Y-61238000D01*
D15*
X143356000Y-47188000D02*
X143356000Y-47188000D01*
X143156000Y-47188000D02*
X143156000Y-47188000D01*
X143156000Y-47188000D02*
G75*
G02*
X143356000Y-47188000I100000J0D01*
G01*
X143356000Y-47188000D02*
G75*
G02*
X143156000Y-47188000I-100000J0D01*
G01*
D14*
%TO.C,JP5*%
X69088000Y-99120000D02*
X69088000Y-96460000D01*
X69088000Y-99120000D02*
X71688000Y-99120000D01*
X71688000Y-99120000D02*
X71688000Y-96460000D01*
X69088000Y-96460000D02*
X71688000Y-96460000D01*
X66488000Y-96460000D02*
X67818000Y-96460000D01*
X66488000Y-97790000D02*
X66488000Y-96460000D01*
%TO.C,R6*%
X147626000Y-65273422D02*
X147626000Y-65790578D01*
X149046000Y-65273422D02*
X149046000Y-65790578D01*
%TO.C,R16*%
X137266000Y-64675936D02*
X137266000Y-65880064D01*
X139086000Y-64675936D02*
X139086000Y-65880064D01*
%TO.C,U3*%
X67376000Y-95134000D02*
X70676000Y-95134000D01*
X70676000Y-95134000D02*
X70676000Y-91134000D01*
%TO.C,J12*%
X80458000Y-143704000D02*
X80458000Y-148904000D01*
X128778000Y-143704000D02*
X80458000Y-143704000D01*
X131378000Y-148904000D02*
X80458000Y-148904000D01*
X128778000Y-143704000D02*
X128778000Y-146304000D01*
X128778000Y-146304000D02*
X131378000Y-146304000D01*
X131378000Y-146304000D02*
X131378000Y-148904000D01*
X130048000Y-143704000D02*
X131378000Y-143704000D01*
X131378000Y-143704000D02*
X131378000Y-145034000D01*
%TO.C,TP1*%
X64964000Y-90484000D02*
X67624000Y-90484000D01*
X64964000Y-90424000D02*
X64964000Y-90484000D01*
X67624000Y-90424000D02*
X67624000Y-90484000D01*
X64964000Y-90424000D02*
X67624000Y-90424000D01*
X64964000Y-89154000D02*
X64964000Y-87824000D01*
X64964000Y-87824000D02*
X66294000Y-87824000D01*
%TD*%
%TO.C,JP1*%
D10*
X51744666Y-71842380D02*
X51744666Y-72556666D01*
X51697047Y-72699523D01*
X51601809Y-72794761D01*
X51458952Y-72842380D01*
X51363714Y-72842380D01*
X52220857Y-72842380D02*
X52220857Y-71842380D01*
X52601809Y-71842380D01*
X52697047Y-71890000D01*
X52744666Y-71937619D01*
X52792285Y-72032857D01*
X52792285Y-72175714D01*
X52744666Y-72270952D01*
X52697047Y-72318571D01*
X52601809Y-72366190D01*
X52220857Y-72366190D01*
X53744666Y-72842380D02*
X53173238Y-72842380D01*
X53458952Y-72842380D02*
X53458952Y-71842380D01*
X53363714Y-71985238D01*
X53268476Y-72080476D01*
X53173238Y-72128095D01*
%TO.C,J5*%
X50598380Y-55637333D02*
X51312666Y-55637333D01*
X51455523Y-55684952D01*
X51550761Y-55780190D01*
X51598380Y-55923047D01*
X51598380Y-56018285D01*
X50598380Y-54684952D02*
X50598380Y-55161142D01*
X51074571Y-55208761D01*
X51026952Y-55161142D01*
X50979333Y-55065904D01*
X50979333Y-54827809D01*
X51026952Y-54732571D01*
X51074571Y-54684952D01*
X51169809Y-54637333D01*
X51407904Y-54637333D01*
X51503142Y-54684952D01*
X51550761Y-54732571D01*
X51598380Y-54827809D01*
X51598380Y-55065904D01*
X51550761Y-55161142D01*
X51503142Y-55208761D01*
%TO.C,R15*%
X79802380Y-69642857D02*
X79326190Y-69976190D01*
X79802380Y-70214285D02*
X78802380Y-70214285D01*
X78802380Y-69833333D01*
X78850000Y-69738095D01*
X78897619Y-69690476D01*
X78992857Y-69642857D01*
X79135714Y-69642857D01*
X79230952Y-69690476D01*
X79278571Y-69738095D01*
X79326190Y-69833333D01*
X79326190Y-70214285D01*
X79802380Y-68690476D02*
X79802380Y-69261904D01*
X79802380Y-68976190D02*
X78802380Y-68976190D01*
X78945238Y-69071428D01*
X79040476Y-69166666D01*
X79088095Y-69261904D01*
X78802380Y-67785714D02*
X78802380Y-68261904D01*
X79278571Y-68309523D01*
X79230952Y-68261904D01*
X79183333Y-68166666D01*
X79183333Y-67928571D01*
X79230952Y-67833333D01*
X79278571Y-67785714D01*
X79373809Y-67738095D01*
X79611904Y-67738095D01*
X79707142Y-67785714D01*
X79754761Y-67833333D01*
X79802380Y-67928571D01*
X79802380Y-68166666D01*
X79754761Y-68261904D01*
X79707142Y-68309523D01*
%TO.C,R14*%
X86802380Y-69642857D02*
X86326190Y-69976190D01*
X86802380Y-70214285D02*
X85802380Y-70214285D01*
X85802380Y-69833333D01*
X85850000Y-69738095D01*
X85897619Y-69690476D01*
X85992857Y-69642857D01*
X86135714Y-69642857D01*
X86230952Y-69690476D01*
X86278571Y-69738095D01*
X86326190Y-69833333D01*
X86326190Y-70214285D01*
X86802380Y-68690476D02*
X86802380Y-69261904D01*
X86802380Y-68976190D02*
X85802380Y-68976190D01*
X85945238Y-69071428D01*
X86040476Y-69166666D01*
X86088095Y-69261904D01*
X86135714Y-67833333D02*
X86802380Y-67833333D01*
X85754761Y-68071428D02*
X86469047Y-68309523D01*
X86469047Y-67690476D01*
%TO.C,R13*%
X77922380Y-69222857D02*
X77446190Y-69556190D01*
X77922380Y-69794285D02*
X76922380Y-69794285D01*
X76922380Y-69413333D01*
X76970000Y-69318095D01*
X77017619Y-69270476D01*
X77112857Y-69222857D01*
X77255714Y-69222857D01*
X77350952Y-69270476D01*
X77398571Y-69318095D01*
X77446190Y-69413333D01*
X77446190Y-69794285D01*
X77922380Y-68270476D02*
X77922380Y-68841904D01*
X77922380Y-68556190D02*
X76922380Y-68556190D01*
X77065238Y-68651428D01*
X77160476Y-68746666D01*
X77208095Y-68841904D01*
X76922380Y-67937142D02*
X76922380Y-67318095D01*
X77303333Y-67651428D01*
X77303333Y-67508571D01*
X77350952Y-67413333D01*
X77398571Y-67365714D01*
X77493809Y-67318095D01*
X77731904Y-67318095D01*
X77827142Y-67365714D01*
X77874761Y-67413333D01*
X77922380Y-67508571D01*
X77922380Y-67794285D01*
X77874761Y-67889523D01*
X77827142Y-67937142D01*
%TO.C,R12*%
X64524380Y-69426857D02*
X64048190Y-69760190D01*
X64524380Y-69998285D02*
X63524380Y-69998285D01*
X63524380Y-69617333D01*
X63572000Y-69522095D01*
X63619619Y-69474476D01*
X63714857Y-69426857D01*
X63857714Y-69426857D01*
X63952952Y-69474476D01*
X64000571Y-69522095D01*
X64048190Y-69617333D01*
X64048190Y-69998285D01*
X64524380Y-68474476D02*
X64524380Y-69045904D01*
X64524380Y-68760190D02*
X63524380Y-68760190D01*
X63667238Y-68855428D01*
X63762476Y-68950666D01*
X63810095Y-69045904D01*
X63619619Y-68093523D02*
X63572000Y-68045904D01*
X63524380Y-67950666D01*
X63524380Y-67712571D01*
X63572000Y-67617333D01*
X63619619Y-67569714D01*
X63714857Y-67522095D01*
X63810095Y-67522095D01*
X63952952Y-67569714D01*
X64524380Y-68141142D01*
X64524380Y-67522095D01*
%TO.C,R9*%
X105962380Y-83978666D02*
X105486190Y-84312000D01*
X105962380Y-84550095D02*
X104962380Y-84550095D01*
X104962380Y-84169142D01*
X105010000Y-84073904D01*
X105057619Y-84026285D01*
X105152857Y-83978666D01*
X105295714Y-83978666D01*
X105390952Y-84026285D01*
X105438571Y-84073904D01*
X105486190Y-84169142D01*
X105486190Y-84550095D01*
X105962380Y-83502476D02*
X105962380Y-83312000D01*
X105914761Y-83216761D01*
X105867142Y-83169142D01*
X105724285Y-83073904D01*
X105533809Y-83026285D01*
X105152857Y-83026285D01*
X105057619Y-83073904D01*
X105010000Y-83121523D01*
X104962380Y-83216761D01*
X104962380Y-83407238D01*
X105010000Y-83502476D01*
X105057619Y-83550095D01*
X105152857Y-83597714D01*
X105390952Y-83597714D01*
X105486190Y-83550095D01*
X105533809Y-83502476D01*
X105581428Y-83407238D01*
X105581428Y-83216761D01*
X105533809Y-83121523D01*
X105486190Y-83073904D01*
X105390952Y-83026285D01*
%TO.C,R8*%
X110588380Y-83986666D02*
X110112190Y-84320000D01*
X110588380Y-84558095D02*
X109588380Y-84558095D01*
X109588380Y-84177142D01*
X109636000Y-84081904D01*
X109683619Y-84034285D01*
X109778857Y-83986666D01*
X109921714Y-83986666D01*
X110016952Y-84034285D01*
X110064571Y-84081904D01*
X110112190Y-84177142D01*
X110112190Y-84558095D01*
X110016952Y-83415238D02*
X109969333Y-83510476D01*
X109921714Y-83558095D01*
X109826476Y-83605714D01*
X109778857Y-83605714D01*
X109683619Y-83558095D01*
X109636000Y-83510476D01*
X109588380Y-83415238D01*
X109588380Y-83224761D01*
X109636000Y-83129523D01*
X109683619Y-83081904D01*
X109778857Y-83034285D01*
X109826476Y-83034285D01*
X109921714Y-83081904D01*
X109969333Y-83129523D01*
X110016952Y-83224761D01*
X110016952Y-83415238D01*
X110064571Y-83510476D01*
X110112190Y-83558095D01*
X110207428Y-83605714D01*
X110397904Y-83605714D01*
X110493142Y-83558095D01*
X110540761Y-83510476D01*
X110588380Y-83415238D01*
X110588380Y-83224761D01*
X110540761Y-83129523D01*
X110493142Y-83081904D01*
X110397904Y-83034285D01*
X110207428Y-83034285D01*
X110112190Y-83081904D01*
X110064571Y-83129523D01*
X110016952Y-83224761D01*
%TO.C,R7*%
X97988380Y-69000666D02*
X97512190Y-69334000D01*
X97988380Y-69572095D02*
X96988380Y-69572095D01*
X96988380Y-69191142D01*
X97036000Y-69095904D01*
X97083619Y-69048285D01*
X97178857Y-69000666D01*
X97321714Y-69000666D01*
X97416952Y-69048285D01*
X97464571Y-69095904D01*
X97512190Y-69191142D01*
X97512190Y-69572095D01*
X96988380Y-68667333D02*
X96988380Y-68000666D01*
X97988380Y-68429238D01*
%TO.C,R5*%
X140470833Y-113102380D02*
X140137500Y-112626190D01*
X139899404Y-113102380D02*
X139899404Y-112102380D01*
X140280357Y-112102380D01*
X140375595Y-112150000D01*
X140423214Y-112197619D01*
X140470833Y-112292857D01*
X140470833Y-112435714D01*
X140423214Y-112530952D01*
X140375595Y-112578571D01*
X140280357Y-112626190D01*
X139899404Y-112626190D01*
X141375595Y-112102380D02*
X140899404Y-112102380D01*
X140851785Y-112578571D01*
X140899404Y-112530952D01*
X140994642Y-112483333D01*
X141232738Y-112483333D01*
X141327976Y-112530952D01*
X141375595Y-112578571D01*
X141423214Y-112673809D01*
X141423214Y-112911904D01*
X141375595Y-113007142D01*
X141327976Y-113054761D01*
X141232738Y-113102380D01*
X140994642Y-113102380D01*
X140899404Y-113054761D01*
X140851785Y-113007142D01*
%TO.C,R4*%
X140881833Y-124909580D02*
X140548500Y-124433390D01*
X140310404Y-124909580D02*
X140310404Y-123909580D01*
X140691357Y-123909580D01*
X140786595Y-123957200D01*
X140834214Y-124004819D01*
X140881833Y-124100057D01*
X140881833Y-124242914D01*
X140834214Y-124338152D01*
X140786595Y-124385771D01*
X140691357Y-124433390D01*
X140310404Y-124433390D01*
X141738976Y-124242914D02*
X141738976Y-124909580D01*
X141500880Y-123861961D02*
X141262785Y-124576247D01*
X141881833Y-124576247D01*
%TO.C,R3*%
X131737833Y-113102380D02*
X131404500Y-112626190D01*
X131166404Y-113102380D02*
X131166404Y-112102380D01*
X131547357Y-112102380D01*
X131642595Y-112150000D01*
X131690214Y-112197619D01*
X131737833Y-112292857D01*
X131737833Y-112435714D01*
X131690214Y-112530952D01*
X131642595Y-112578571D01*
X131547357Y-112626190D01*
X131166404Y-112626190D01*
X132071166Y-112102380D02*
X132690214Y-112102380D01*
X132356880Y-112483333D01*
X132499738Y-112483333D01*
X132594976Y-112530952D01*
X132642595Y-112578571D01*
X132690214Y-112673809D01*
X132690214Y-112911904D01*
X132642595Y-113007142D01*
X132594976Y-113054761D01*
X132499738Y-113102380D01*
X132214023Y-113102380D01*
X132118785Y-113054761D01*
X132071166Y-113007142D01*
%TO.C,R2*%
X131913333Y-124909580D02*
X131580000Y-124433390D01*
X131341904Y-124909580D02*
X131341904Y-123909580D01*
X131722857Y-123909580D01*
X131818095Y-123957200D01*
X131865714Y-124004819D01*
X131913333Y-124100057D01*
X131913333Y-124242914D01*
X131865714Y-124338152D01*
X131818095Y-124385771D01*
X131722857Y-124433390D01*
X131341904Y-124433390D01*
X132294285Y-124004819D02*
X132341904Y-123957200D01*
X132437142Y-123909580D01*
X132675238Y-123909580D01*
X132770476Y-123957200D01*
X132818095Y-124004819D01*
X132865714Y-124100057D01*
X132865714Y-124195295D01*
X132818095Y-124338152D01*
X132246666Y-124909580D01*
X132865714Y-124909580D01*
%TO.C,R1*%
X123198833Y-113102380D02*
X122865500Y-112626190D01*
X122627404Y-113102380D02*
X122627404Y-112102380D01*
X123008357Y-112102380D01*
X123103595Y-112150000D01*
X123151214Y-112197619D01*
X123198833Y-112292857D01*
X123198833Y-112435714D01*
X123151214Y-112530952D01*
X123103595Y-112578571D01*
X123008357Y-112626190D01*
X122627404Y-112626190D01*
X124151214Y-113102380D02*
X123579785Y-113102380D01*
X123865500Y-113102380D02*
X123865500Y-112102380D01*
X123770261Y-112245238D01*
X123675023Y-112340476D01*
X123579785Y-112388095D01*
%TO.C,J15*%
D16*
X76441904Y-56200523D02*
X76441904Y-57107666D01*
X76381428Y-57289095D01*
X76260476Y-57410047D01*
X76079047Y-57470523D01*
X75958095Y-57470523D01*
X77711904Y-57470523D02*
X76986190Y-57470523D01*
X77349047Y-57470523D02*
X77349047Y-56200523D01*
X77228095Y-56381952D01*
X77107142Y-56502904D01*
X76986190Y-56563380D01*
X78860952Y-56200523D02*
X78256190Y-56200523D01*
X78195714Y-56805285D01*
X78256190Y-56744809D01*
X78377142Y-56684333D01*
X78679523Y-56684333D01*
X78800476Y-56744809D01*
X78860952Y-56805285D01*
X78921428Y-56926238D01*
X78921428Y-57228619D01*
X78860952Y-57349571D01*
X78800476Y-57410047D01*
X78679523Y-57470523D01*
X78377142Y-57470523D01*
X78256190Y-57410047D01*
X78195714Y-57349571D01*
%TO.C,U2*%
D10*
X100747580Y-77114304D02*
X101557104Y-77114304D01*
X101652342Y-77066685D01*
X101699961Y-77019066D01*
X101747580Y-76923828D01*
X101747580Y-76733352D01*
X101699961Y-76638114D01*
X101652342Y-76590495D01*
X101557104Y-76542876D01*
X100747580Y-76542876D01*
X100842819Y-76114304D02*
X100795200Y-76066685D01*
X100747580Y-75971447D01*
X100747580Y-75733352D01*
X100795200Y-75638114D01*
X100842819Y-75590495D01*
X100938057Y-75542876D01*
X101033295Y-75542876D01*
X101176152Y-75590495D01*
X101747580Y-76161923D01*
X101747580Y-75542876D01*
%TO.C,JP4*%
X60888666Y-72350380D02*
X60888666Y-73064666D01*
X60841047Y-73207523D01*
X60745809Y-73302761D01*
X60602952Y-73350380D01*
X60507714Y-73350380D01*
X61364857Y-73350380D02*
X61364857Y-72350380D01*
X61745809Y-72350380D01*
X61841047Y-72398000D01*
X61888666Y-72445619D01*
X61936285Y-72540857D01*
X61936285Y-72683714D01*
X61888666Y-72778952D01*
X61841047Y-72826571D01*
X61745809Y-72874190D01*
X61364857Y-72874190D01*
X62793428Y-72683714D02*
X62793428Y-73350380D01*
X62555333Y-72302761D02*
X62317238Y-73017047D01*
X62936285Y-73017047D01*
%TO.C,JP3*%
X80200380Y-85669333D02*
X80914666Y-85669333D01*
X81057523Y-85716952D01*
X81152761Y-85812190D01*
X81200380Y-85955047D01*
X81200380Y-86050285D01*
X81200380Y-85193142D02*
X80200380Y-85193142D01*
X80200380Y-84812190D01*
X80248000Y-84716952D01*
X80295619Y-84669333D01*
X80390857Y-84621714D01*
X80533714Y-84621714D01*
X80628952Y-84669333D01*
X80676571Y-84716952D01*
X80724190Y-84812190D01*
X80724190Y-85193142D01*
X80200380Y-84288380D02*
X80200380Y-83669333D01*
X80581333Y-84002666D01*
X80581333Y-83859809D01*
X80628952Y-83764571D01*
X80676571Y-83716952D01*
X80771809Y-83669333D01*
X81009904Y-83669333D01*
X81105142Y-83716952D01*
X81152761Y-83764571D01*
X81200380Y-83859809D01*
X81200380Y-84145523D01*
X81152761Y-84240761D01*
X81105142Y-84288380D01*
%TO.C,JP2*%
X80200380Y-82113333D02*
X80914666Y-82113333D01*
X81057523Y-82160952D01*
X81152761Y-82256190D01*
X81200380Y-82399047D01*
X81200380Y-82494285D01*
X81200380Y-81637142D02*
X80200380Y-81637142D01*
X80200380Y-81256190D01*
X80248000Y-81160952D01*
X80295619Y-81113333D01*
X80390857Y-81065714D01*
X80533714Y-81065714D01*
X80628952Y-81113333D01*
X80676571Y-81160952D01*
X80724190Y-81256190D01*
X80724190Y-81637142D01*
X80295619Y-80684761D02*
X80248000Y-80637142D01*
X80200380Y-80541904D01*
X80200380Y-80303809D01*
X80248000Y-80208571D01*
X80295619Y-80160952D01*
X80390857Y-80113333D01*
X80486095Y-80113333D01*
X80628952Y-80160952D01*
X81200380Y-80732380D01*
X81200380Y-80113333D01*
%TO.C,J14*%
D16*
X124522704Y-57238523D02*
X124522704Y-58145666D01*
X124462228Y-58327095D01*
X124341276Y-58448047D01*
X124159847Y-58508523D01*
X124038895Y-58508523D01*
X125792704Y-58508523D02*
X125066990Y-58508523D01*
X125429847Y-58508523D02*
X125429847Y-57238523D01*
X125308895Y-57419952D01*
X125187942Y-57540904D01*
X125066990Y-57601380D01*
X126881276Y-57661857D02*
X126881276Y-58508523D01*
X126578895Y-57178047D02*
X126276514Y-58085190D01*
X127062704Y-58085190D01*
%TO.C,J13*%
X102959504Y-57451323D02*
X102959504Y-58358466D01*
X102899028Y-58539895D01*
X102778076Y-58660847D01*
X102596647Y-58721323D01*
X102475695Y-58721323D01*
X104229504Y-58721323D02*
X103503790Y-58721323D01*
X103866647Y-58721323D02*
X103866647Y-57451323D01*
X103745695Y-57632752D01*
X103624742Y-57753704D01*
X103503790Y-57814180D01*
X104652838Y-57451323D02*
X105439028Y-57451323D01*
X105015695Y-57935133D01*
X105197123Y-57935133D01*
X105318076Y-57995609D01*
X105378552Y-58056085D01*
X105439028Y-58177038D01*
X105439028Y-58479419D01*
X105378552Y-58600371D01*
X105318076Y-58660847D01*
X105197123Y-58721323D01*
X104834266Y-58721323D01*
X104713314Y-58660847D01*
X104652838Y-58600371D01*
%TO.C,J11*%
D10*
X143814476Y-108474380D02*
X143814476Y-109188666D01*
X143766857Y-109331523D01*
X143671619Y-109426761D01*
X143528761Y-109474380D01*
X143433523Y-109474380D01*
X144814476Y-109474380D02*
X144243047Y-109474380D01*
X144528761Y-109474380D02*
X144528761Y-108474380D01*
X144433523Y-108617238D01*
X144338285Y-108712476D01*
X144243047Y-108760095D01*
X145766857Y-109474380D02*
X145195428Y-109474380D01*
X145481142Y-109474380D02*
X145481142Y-108474380D01*
X145385904Y-108617238D01*
X145290666Y-108712476D01*
X145195428Y-108760095D01*
%TO.C,J10*%
X144082476Y-120224380D02*
X144082476Y-120938666D01*
X144034857Y-121081523D01*
X143939619Y-121176761D01*
X143796761Y-121224380D01*
X143701523Y-121224380D01*
X145082476Y-121224380D02*
X144511047Y-121224380D01*
X144796761Y-121224380D02*
X144796761Y-120224380D01*
X144701523Y-120367238D01*
X144606285Y-120462476D01*
X144511047Y-120510095D01*
X145701523Y-120224380D02*
X145796761Y-120224380D01*
X145892000Y-120272000D01*
X145939619Y-120319619D01*
X145987238Y-120414857D01*
X146034857Y-120605333D01*
X146034857Y-120843428D01*
X145987238Y-121033904D01*
X145939619Y-121129142D01*
X145892000Y-121176761D01*
X145796761Y-121224380D01*
X145701523Y-121224380D01*
X145606285Y-121176761D01*
X145558666Y-121129142D01*
X145511047Y-121033904D01*
X145463428Y-120843428D01*
X145463428Y-120605333D01*
X145511047Y-120414857D01*
X145558666Y-120319619D01*
X145606285Y-120272000D01*
X145701523Y-120224380D01*
%TO.C,J9*%
X135414666Y-108474380D02*
X135414666Y-109188666D01*
X135367047Y-109331523D01*
X135271809Y-109426761D01*
X135128952Y-109474380D01*
X135033714Y-109474380D01*
X135938476Y-109474380D02*
X136128952Y-109474380D01*
X136224190Y-109426761D01*
X136271809Y-109379142D01*
X136367047Y-109236285D01*
X136414666Y-109045809D01*
X136414666Y-108664857D01*
X136367047Y-108569619D01*
X136319428Y-108522000D01*
X136224190Y-108474380D01*
X136033714Y-108474380D01*
X135938476Y-108522000D01*
X135890857Y-108569619D01*
X135843238Y-108664857D01*
X135843238Y-108902952D01*
X135890857Y-108998190D01*
X135938476Y-109045809D01*
X136033714Y-109093428D01*
X136224190Y-109093428D01*
X136319428Y-109045809D01*
X136367047Y-108998190D01*
X136414666Y-108902952D01*
%TO.C,J8*%
X135302666Y-120126380D02*
X135302666Y-120840666D01*
X135255047Y-120983523D01*
X135159809Y-121078761D01*
X135016952Y-121126380D01*
X134921714Y-121126380D01*
X135921714Y-120554952D02*
X135826476Y-120507333D01*
X135778857Y-120459714D01*
X135731238Y-120364476D01*
X135731238Y-120316857D01*
X135778857Y-120221619D01*
X135826476Y-120174000D01*
X135921714Y-120126380D01*
X136112190Y-120126380D01*
X136207428Y-120174000D01*
X136255047Y-120221619D01*
X136302666Y-120316857D01*
X136302666Y-120364476D01*
X136255047Y-120459714D01*
X136207428Y-120507333D01*
X136112190Y-120554952D01*
X135921714Y-120554952D01*
X135826476Y-120602571D01*
X135778857Y-120650190D01*
X135731238Y-120745428D01*
X135731238Y-120935904D01*
X135778857Y-121031142D01*
X135826476Y-121078761D01*
X135921714Y-121126380D01*
X136112190Y-121126380D01*
X136207428Y-121078761D01*
X136255047Y-121031142D01*
X136302666Y-120935904D01*
X136302666Y-120745428D01*
X136255047Y-120650190D01*
X136207428Y-120602571D01*
X136112190Y-120554952D01*
%TO.C,J7*%
X126792666Y-108474380D02*
X126792666Y-109188666D01*
X126745047Y-109331523D01*
X126649809Y-109426761D01*
X126506952Y-109474380D01*
X126411714Y-109474380D01*
X127173619Y-108474380D02*
X127840285Y-108474380D01*
X127411714Y-109474380D01*
%TO.C,J6*%
X145970666Y-73390380D02*
X145970666Y-74104666D01*
X145923047Y-74247523D01*
X145827809Y-74342761D01*
X145684952Y-74390380D01*
X145589714Y-74390380D01*
X146875428Y-73390380D02*
X146684952Y-73390380D01*
X146589714Y-73438000D01*
X146542095Y-73485619D01*
X146446857Y-73628476D01*
X146399238Y-73818952D01*
X146399238Y-74199904D01*
X146446857Y-74295142D01*
X146494476Y-74342761D01*
X146589714Y-74390380D01*
X146780190Y-74390380D01*
X146875428Y-74342761D01*
X146923047Y-74295142D01*
X146970666Y-74199904D01*
X146970666Y-73961809D01*
X146923047Y-73866571D01*
X146875428Y-73818952D01*
X146780190Y-73771333D01*
X146589714Y-73771333D01*
X146494476Y-73818952D01*
X146446857Y-73866571D01*
X146399238Y-73961809D01*
%TO.C,J4*%
X145716666Y-84288380D02*
X145716666Y-85002666D01*
X145669047Y-85145523D01*
X145573809Y-85240761D01*
X145430952Y-85288380D01*
X145335714Y-85288380D01*
X146621428Y-84621714D02*
X146621428Y-85288380D01*
X146383333Y-84240761D02*
X146145238Y-84955047D01*
X146764285Y-84955047D01*
%TO.C,J3*%
X109902666Y-110220380D02*
X109902666Y-110934666D01*
X109855047Y-111077523D01*
X109759809Y-111172761D01*
X109616952Y-111220380D01*
X109521714Y-111220380D01*
X110283619Y-110220380D02*
X110902666Y-110220380D01*
X110569333Y-110601333D01*
X110712190Y-110601333D01*
X110807428Y-110648952D01*
X110855047Y-110696571D01*
X110902666Y-110791809D01*
X110902666Y-111029904D01*
X110855047Y-111125142D01*
X110807428Y-111172761D01*
X110712190Y-111220380D01*
X110426476Y-111220380D01*
X110331238Y-111172761D01*
X110283619Y-111125142D01*
%TO.C,J2*%
X77390666Y-124928380D02*
X77390666Y-125642666D01*
X77343047Y-125785523D01*
X77247809Y-125880761D01*
X77104952Y-125928380D01*
X77009714Y-125928380D01*
X77819238Y-125023619D02*
X77866857Y-124976000D01*
X77962095Y-124928380D01*
X78200190Y-124928380D01*
X78295428Y-124976000D01*
X78343047Y-125023619D01*
X78390666Y-125118857D01*
X78390666Y-125214095D01*
X78343047Y-125356952D01*
X77771619Y-125928380D01*
X78390666Y-125928380D01*
%TO.C,J1*%
X59204266Y-124928380D02*
X59204266Y-125642666D01*
X59156647Y-125785523D01*
X59061409Y-125880761D01*
X58918552Y-125928380D01*
X58823314Y-125928380D01*
X60204266Y-125928380D02*
X59632838Y-125928380D01*
X59918552Y-125928380D02*
X59918552Y-124928380D01*
X59823314Y-125071238D01*
X59728076Y-125166476D01*
X59632838Y-125214095D01*
%TO.C,IC3*%
D16*
X64387723Y-82265761D02*
X63117723Y-82265761D01*
X64266771Y-80935285D02*
X64327247Y-80995761D01*
X64387723Y-81177190D01*
X64387723Y-81298142D01*
X64327247Y-81479571D01*
X64206295Y-81600523D01*
X64085342Y-81661000D01*
X63843438Y-81721476D01*
X63662009Y-81721476D01*
X63420104Y-81661000D01*
X63299152Y-81600523D01*
X63178200Y-81479571D01*
X63117723Y-81298142D01*
X63117723Y-81177190D01*
X63178200Y-80995761D01*
X63238676Y-80935285D01*
X63117723Y-80511952D02*
X63117723Y-79725761D01*
X63601533Y-80149095D01*
X63601533Y-79967666D01*
X63662009Y-79846714D01*
X63722485Y-79786238D01*
X63843438Y-79725761D01*
X64145819Y-79725761D01*
X64266771Y-79786238D01*
X64327247Y-79846714D01*
X64387723Y-79967666D01*
X64387723Y-80330523D01*
X64327247Y-80451476D01*
X64266771Y-80511952D01*
%TO.C,IC2*%
X83708723Y-80970361D02*
X82438723Y-80970361D01*
X83587771Y-79639885D02*
X83648247Y-79700361D01*
X83708723Y-79881790D01*
X83708723Y-80002742D01*
X83648247Y-80184171D01*
X83527295Y-80305123D01*
X83406342Y-80365600D01*
X83164438Y-80426076D01*
X82983009Y-80426076D01*
X82741104Y-80365600D01*
X82620152Y-80305123D01*
X82499200Y-80184171D01*
X82438723Y-80002742D01*
X82438723Y-79881790D01*
X82499200Y-79700361D01*
X82559676Y-79639885D01*
X82559676Y-79156076D02*
X82499200Y-79095600D01*
X82438723Y-78974647D01*
X82438723Y-78672266D01*
X82499200Y-78551314D01*
X82559676Y-78490838D01*
X82680628Y-78430361D01*
X82801580Y-78430361D01*
X82983009Y-78490838D01*
X83708723Y-79216552D01*
X83708723Y-78430361D01*
%TO.C,IC1*%
X54284638Y-86070923D02*
X54284638Y-84800923D01*
X55615114Y-85949971D02*
X55554638Y-86010447D01*
X55373209Y-86070923D01*
X55252257Y-86070923D01*
X55070828Y-86010447D01*
X54949876Y-85889495D01*
X54889400Y-85768542D01*
X54828923Y-85526638D01*
X54828923Y-85345209D01*
X54889400Y-85103304D01*
X54949876Y-84982352D01*
X55070828Y-84861400D01*
X55252257Y-84800923D01*
X55373209Y-84800923D01*
X55554638Y-84861400D01*
X55615114Y-84921876D01*
X56824638Y-86070923D02*
X56098923Y-86070923D01*
X56461780Y-86070923D02*
X56461780Y-84800923D01*
X56340828Y-84982352D01*
X56219876Y-85103304D01*
X56098923Y-85163780D01*
%TO.C,D1*%
X102745819Y-68849723D02*
X102745819Y-67579723D01*
X103048200Y-67579723D01*
X103229628Y-67640200D01*
X103350580Y-67761152D01*
X103411057Y-67882104D01*
X103471533Y-68124009D01*
X103471533Y-68305438D01*
X103411057Y-68547342D01*
X103350580Y-68668295D01*
X103229628Y-68789247D01*
X103048200Y-68849723D01*
X102745819Y-68849723D01*
X104681057Y-68849723D02*
X103955342Y-68849723D01*
X104318200Y-68849723D02*
X104318200Y-67579723D01*
X104197247Y-67761152D01*
X104076295Y-67882104D01*
X103955342Y-67942580D01*
%TO.C,C29*%
X77669571Y-66453571D02*
X77609095Y-66514047D01*
X77427666Y-66574523D01*
X77306714Y-66574523D01*
X77125285Y-66514047D01*
X77004333Y-66393095D01*
X76943857Y-66272142D01*
X76883380Y-66030238D01*
X76883380Y-65848809D01*
X76943857Y-65606904D01*
X77004333Y-65485952D01*
X77125285Y-65365000D01*
X77306714Y-65304523D01*
X77427666Y-65304523D01*
X77609095Y-65365000D01*
X77669571Y-65425476D01*
X78153380Y-65425476D02*
X78213857Y-65365000D01*
X78334809Y-65304523D01*
X78637190Y-65304523D01*
X78758142Y-65365000D01*
X78818619Y-65425476D01*
X78879095Y-65546428D01*
X78879095Y-65667380D01*
X78818619Y-65848809D01*
X78092904Y-66574523D01*
X78879095Y-66574523D01*
X79483857Y-66574523D02*
X79725761Y-66574523D01*
X79846714Y-66514047D01*
X79907190Y-66453571D01*
X80028142Y-66272142D01*
X80088619Y-66030238D01*
X80088619Y-65546428D01*
X80028142Y-65425476D01*
X79967666Y-65365000D01*
X79846714Y-65304523D01*
X79604809Y-65304523D01*
X79483857Y-65365000D01*
X79423380Y-65425476D01*
X79362904Y-65546428D01*
X79362904Y-65848809D01*
X79423380Y-65969761D01*
X79483857Y-66030238D01*
X79604809Y-66090714D01*
X79846714Y-66090714D01*
X79967666Y-66030238D01*
X80028142Y-65969761D01*
X80088619Y-65848809D01*
%TO.C,C28*%
X83043371Y-66453571D02*
X82982895Y-66514047D01*
X82801466Y-66574523D01*
X82680514Y-66574523D01*
X82499085Y-66514047D01*
X82378133Y-66393095D01*
X82317657Y-66272142D01*
X82257180Y-66030238D01*
X82257180Y-65848809D01*
X82317657Y-65606904D01*
X82378133Y-65485952D01*
X82499085Y-65365000D01*
X82680514Y-65304523D01*
X82801466Y-65304523D01*
X82982895Y-65365000D01*
X83043371Y-65425476D01*
X83527180Y-65425476D02*
X83587657Y-65365000D01*
X83708609Y-65304523D01*
X84010990Y-65304523D01*
X84131942Y-65365000D01*
X84192419Y-65425476D01*
X84252895Y-65546428D01*
X84252895Y-65667380D01*
X84192419Y-65848809D01*
X83466704Y-66574523D01*
X84252895Y-66574523D01*
X84978609Y-65848809D02*
X84857657Y-65788333D01*
X84797180Y-65727857D01*
X84736704Y-65606904D01*
X84736704Y-65546428D01*
X84797180Y-65425476D01*
X84857657Y-65365000D01*
X84978609Y-65304523D01*
X85220514Y-65304523D01*
X85341466Y-65365000D01*
X85401942Y-65425476D01*
X85462419Y-65546428D01*
X85462419Y-65606904D01*
X85401942Y-65727857D01*
X85341466Y-65788333D01*
X85220514Y-65848809D01*
X84978609Y-65848809D01*
X84857657Y-65909285D01*
X84797180Y-65969761D01*
X84736704Y-66090714D01*
X84736704Y-66332619D01*
X84797180Y-66453571D01*
X84857657Y-66514047D01*
X84978609Y-66574523D01*
X85220514Y-66574523D01*
X85341466Y-66514047D01*
X85401942Y-66453571D01*
X85462419Y-66332619D01*
X85462419Y-66090714D01*
X85401942Y-65969761D01*
X85341466Y-65909285D01*
X85220514Y-65848809D01*
%TO.C,C23*%
X83765571Y-72335571D02*
X83705095Y-72396047D01*
X83523666Y-72456523D01*
X83402714Y-72456523D01*
X83221285Y-72396047D01*
X83100333Y-72275095D01*
X83039857Y-72154142D01*
X82979380Y-71912238D01*
X82979380Y-71730809D01*
X83039857Y-71488904D01*
X83100333Y-71367952D01*
X83221285Y-71247000D01*
X83402714Y-71186523D01*
X83523666Y-71186523D01*
X83705095Y-71247000D01*
X83765571Y-71307476D01*
X84249380Y-71307476D02*
X84309857Y-71247000D01*
X84430809Y-71186523D01*
X84733190Y-71186523D01*
X84854142Y-71247000D01*
X84914619Y-71307476D01*
X84975095Y-71428428D01*
X84975095Y-71549380D01*
X84914619Y-71730809D01*
X84188904Y-72456523D01*
X84975095Y-72456523D01*
X85398428Y-71186523D02*
X86184619Y-71186523D01*
X85761285Y-71670333D01*
X85942714Y-71670333D01*
X86063666Y-71730809D01*
X86124142Y-71791285D01*
X86184619Y-71912238D01*
X86184619Y-72214619D01*
X86124142Y-72335571D01*
X86063666Y-72396047D01*
X85942714Y-72456523D01*
X85579857Y-72456523D01*
X85458904Y-72396047D01*
X85398428Y-72335571D01*
%TO.C,C19*%
X95703571Y-80565428D02*
X95764047Y-80625904D01*
X95824523Y-80807333D01*
X95824523Y-80928285D01*
X95764047Y-81109714D01*
X95643095Y-81230666D01*
X95522142Y-81291142D01*
X95280238Y-81351619D01*
X95098809Y-81351619D01*
X94856904Y-81291142D01*
X94735952Y-81230666D01*
X94615000Y-81109714D01*
X94554523Y-80928285D01*
X94554523Y-80807333D01*
X94615000Y-80625904D01*
X94675476Y-80565428D01*
X95824523Y-79355904D02*
X95824523Y-80081619D01*
X95824523Y-79718761D02*
X94554523Y-79718761D01*
X94735952Y-79839714D01*
X94856904Y-79960666D01*
X94917380Y-80081619D01*
X95824523Y-78751142D02*
X95824523Y-78509238D01*
X95764047Y-78388285D01*
X95703571Y-78327809D01*
X95522142Y-78206857D01*
X95280238Y-78146380D01*
X94796428Y-78146380D01*
X94675476Y-78206857D01*
X94615000Y-78267333D01*
X94554523Y-78388285D01*
X94554523Y-78630190D01*
X94615000Y-78751142D01*
X94675476Y-78811619D01*
X94796428Y-78872095D01*
X95098809Y-78872095D01*
X95219761Y-78811619D01*
X95280238Y-78751142D01*
X95340714Y-78630190D01*
X95340714Y-78388285D01*
X95280238Y-78267333D01*
X95219761Y-78206857D01*
X95098809Y-78146380D01*
%TO.C,C16*%
X72081571Y-69396428D02*
X72142047Y-69456904D01*
X72202523Y-69638333D01*
X72202523Y-69759285D01*
X72142047Y-69940714D01*
X72021095Y-70061666D01*
X71900142Y-70122142D01*
X71658238Y-70182619D01*
X71476809Y-70182619D01*
X71234904Y-70122142D01*
X71113952Y-70061666D01*
X70993000Y-69940714D01*
X70932523Y-69759285D01*
X70932523Y-69638333D01*
X70993000Y-69456904D01*
X71053476Y-69396428D01*
X72202523Y-68186904D02*
X72202523Y-68912619D01*
X72202523Y-68549761D02*
X70932523Y-68549761D01*
X71113952Y-68670714D01*
X71234904Y-68791666D01*
X71295380Y-68912619D01*
X70932523Y-67098333D02*
X70932523Y-67340238D01*
X70993000Y-67461190D01*
X71053476Y-67521666D01*
X71234904Y-67642619D01*
X71476809Y-67703095D01*
X71960619Y-67703095D01*
X72081571Y-67642619D01*
X72142047Y-67582142D01*
X72202523Y-67461190D01*
X72202523Y-67219285D01*
X72142047Y-67098333D01*
X72081571Y-67037857D01*
X71960619Y-66977380D01*
X71658238Y-66977380D01*
X71537285Y-67037857D01*
X71476809Y-67098333D01*
X71416333Y-67219285D01*
X71416333Y-67461190D01*
X71476809Y-67582142D01*
X71537285Y-67642619D01*
X71658238Y-67703095D01*
%TO.C,C15*%
X70303571Y-69396428D02*
X70364047Y-69456904D01*
X70424523Y-69638333D01*
X70424523Y-69759285D01*
X70364047Y-69940714D01*
X70243095Y-70061666D01*
X70122142Y-70122142D01*
X69880238Y-70182619D01*
X69698809Y-70182619D01*
X69456904Y-70122142D01*
X69335952Y-70061666D01*
X69215000Y-69940714D01*
X69154523Y-69759285D01*
X69154523Y-69638333D01*
X69215000Y-69456904D01*
X69275476Y-69396428D01*
X70424523Y-68186904D02*
X70424523Y-68912619D01*
X70424523Y-68549761D02*
X69154523Y-68549761D01*
X69335952Y-68670714D01*
X69456904Y-68791666D01*
X69517380Y-68912619D01*
X69154523Y-67037857D02*
X69154523Y-67642619D01*
X69759285Y-67703095D01*
X69698809Y-67642619D01*
X69638333Y-67521666D01*
X69638333Y-67219285D01*
X69698809Y-67098333D01*
X69759285Y-67037857D01*
X69880238Y-66977380D01*
X70182619Y-66977380D01*
X70303571Y-67037857D01*
X70364047Y-67098333D01*
X70424523Y-67219285D01*
X70424523Y-67521666D01*
X70364047Y-67642619D01*
X70303571Y-67703095D01*
%TO.C,C2*%
X62429571Y-84793666D02*
X62490047Y-84854142D01*
X62550523Y-85035571D01*
X62550523Y-85156523D01*
X62490047Y-85337952D01*
X62369095Y-85458904D01*
X62248142Y-85519380D01*
X62006238Y-85579857D01*
X61824809Y-85579857D01*
X61582904Y-85519380D01*
X61461952Y-85458904D01*
X61341000Y-85337952D01*
X61280523Y-85156523D01*
X61280523Y-85035571D01*
X61341000Y-84854142D01*
X61401476Y-84793666D01*
X61401476Y-84309857D02*
X61341000Y-84249380D01*
X61280523Y-84128428D01*
X61280523Y-83826047D01*
X61341000Y-83705095D01*
X61401476Y-83644619D01*
X61522428Y-83584142D01*
X61643380Y-83584142D01*
X61824809Y-83644619D01*
X62550523Y-84370333D01*
X62550523Y-83584142D01*
%TO.C,C1*%
X52562333Y-69033571D02*
X52501857Y-69094047D01*
X52320428Y-69154523D01*
X52199476Y-69154523D01*
X52018047Y-69094047D01*
X51897095Y-68973095D01*
X51836619Y-68852142D01*
X51776142Y-68610238D01*
X51776142Y-68428809D01*
X51836619Y-68186904D01*
X51897095Y-68065952D01*
X52018047Y-67945000D01*
X52199476Y-67884523D01*
X52320428Y-67884523D01*
X52501857Y-67945000D01*
X52562333Y-68005476D01*
X53771857Y-69154523D02*
X53046142Y-69154523D01*
X53409000Y-69154523D02*
X53409000Y-67884523D01*
X53288047Y-68065952D01*
X53167095Y-68186904D01*
X53046142Y-68247380D01*
%TO.C,R10*%
D10*
X122498380Y-70222857D02*
X122022190Y-70556190D01*
X122498380Y-70794285D02*
X121498380Y-70794285D01*
X121498380Y-70413333D01*
X121546000Y-70318095D01*
X121593619Y-70270476D01*
X121688857Y-70222857D01*
X121831714Y-70222857D01*
X121926952Y-70270476D01*
X121974571Y-70318095D01*
X122022190Y-70413333D01*
X122022190Y-70794285D01*
X122498380Y-69270476D02*
X122498380Y-69841904D01*
X122498380Y-69556190D02*
X121498380Y-69556190D01*
X121641238Y-69651428D01*
X121736476Y-69746666D01*
X121784095Y-69841904D01*
X121498380Y-68651428D02*
X121498380Y-68556190D01*
X121546000Y-68460952D01*
X121593619Y-68413333D01*
X121688857Y-68365714D01*
X121879333Y-68318095D01*
X122117428Y-68318095D01*
X122307904Y-68365714D01*
X122403142Y-68413333D01*
X122450761Y-68460952D01*
X122498380Y-68556190D01*
X122498380Y-68651428D01*
X122450761Y-68746666D01*
X122403142Y-68794285D01*
X122307904Y-68841904D01*
X122117428Y-68889523D01*
X121879333Y-68889523D01*
X121688857Y-68841904D01*
X121593619Y-68794285D01*
X121546000Y-68746666D01*
X121498380Y-68651428D01*
%TO.C,R11*%
X132574380Y-70622857D02*
X132098190Y-70956190D01*
X132574380Y-71194285D02*
X131574380Y-71194285D01*
X131574380Y-70813333D01*
X131622000Y-70718095D01*
X131669619Y-70670476D01*
X131764857Y-70622857D01*
X131907714Y-70622857D01*
X132002952Y-70670476D01*
X132050571Y-70718095D01*
X132098190Y-70813333D01*
X132098190Y-71194285D01*
X132574380Y-69670476D02*
X132574380Y-70241904D01*
X132574380Y-69956190D02*
X131574380Y-69956190D01*
X131717238Y-70051428D01*
X131812476Y-70146666D01*
X131860095Y-70241904D01*
X132574380Y-68718095D02*
X132574380Y-69289523D01*
X132574380Y-69003809D02*
X131574380Y-69003809D01*
X131717238Y-69099047D01*
X131812476Y-69194285D01*
X131860095Y-69289523D01*
%TO.C,C3*%
D16*
X93006333Y-86813571D02*
X92945857Y-86874047D01*
X92764428Y-86934523D01*
X92643476Y-86934523D01*
X92462047Y-86874047D01*
X92341095Y-86753095D01*
X92280619Y-86632142D01*
X92220142Y-86390238D01*
X92220142Y-86208809D01*
X92280619Y-85966904D01*
X92341095Y-85845952D01*
X92462047Y-85725000D01*
X92643476Y-85664523D01*
X92764428Y-85664523D01*
X92945857Y-85725000D01*
X93006333Y-85785476D01*
X93429666Y-85664523D02*
X94215857Y-85664523D01*
X93792523Y-86148333D01*
X93973952Y-86148333D01*
X94094904Y-86208809D01*
X94155380Y-86269285D01*
X94215857Y-86390238D01*
X94215857Y-86692619D01*
X94155380Y-86813571D01*
X94094904Y-86874047D01*
X93973952Y-86934523D01*
X93611095Y-86934523D01*
X93490142Y-86874047D01*
X93429666Y-86813571D01*
%TO.C,C4*%
X86148333Y-87067571D02*
X86087857Y-87128047D01*
X85906428Y-87188523D01*
X85785476Y-87188523D01*
X85604047Y-87128047D01*
X85483095Y-87007095D01*
X85422619Y-86886142D01*
X85362142Y-86644238D01*
X85362142Y-86462809D01*
X85422619Y-86220904D01*
X85483095Y-86099952D01*
X85604047Y-85979000D01*
X85785476Y-85918523D01*
X85906428Y-85918523D01*
X86087857Y-85979000D01*
X86148333Y-86039476D01*
X87236904Y-86341857D02*
X87236904Y-87188523D01*
X86934523Y-85858047D02*
X86632142Y-86765190D01*
X87418333Y-86765190D01*
%TO.C,C5*%
X63124333Y-66233571D02*
X63063857Y-66294047D01*
X62882428Y-66354523D01*
X62761476Y-66354523D01*
X62580047Y-66294047D01*
X62459095Y-66173095D01*
X62398619Y-66052142D01*
X62338142Y-65810238D01*
X62338142Y-65628809D01*
X62398619Y-65386904D01*
X62459095Y-65265952D01*
X62580047Y-65145000D01*
X62761476Y-65084523D01*
X62882428Y-65084523D01*
X63063857Y-65145000D01*
X63124333Y-65205476D01*
X64273380Y-65084523D02*
X63668619Y-65084523D01*
X63608142Y-65689285D01*
X63668619Y-65628809D01*
X63789571Y-65568333D01*
X64091952Y-65568333D01*
X64212904Y-65628809D01*
X64273380Y-65689285D01*
X64333857Y-65810238D01*
X64333857Y-66112619D01*
X64273380Y-66233571D01*
X64212904Y-66294047D01*
X64091952Y-66354523D01*
X63789571Y-66354523D01*
X63668619Y-66294047D01*
X63608142Y-66233571D01*
%TO.C,C6*%
X72686333Y-66239571D02*
X72625857Y-66300047D01*
X72444428Y-66360523D01*
X72323476Y-66360523D01*
X72142047Y-66300047D01*
X72021095Y-66179095D01*
X71960619Y-66058142D01*
X71900142Y-65816238D01*
X71900142Y-65634809D01*
X71960619Y-65392904D01*
X72021095Y-65271952D01*
X72142047Y-65151000D01*
X72323476Y-65090523D01*
X72444428Y-65090523D01*
X72625857Y-65151000D01*
X72686333Y-65211476D01*
X73774904Y-65090523D02*
X73533000Y-65090523D01*
X73412047Y-65151000D01*
X73351571Y-65211476D01*
X73230619Y-65392904D01*
X73170142Y-65634809D01*
X73170142Y-66118619D01*
X73230619Y-66239571D01*
X73291095Y-66300047D01*
X73412047Y-66360523D01*
X73653952Y-66360523D01*
X73774904Y-66300047D01*
X73835380Y-66239571D01*
X73895857Y-66118619D01*
X73895857Y-65816238D01*
X73835380Y-65695285D01*
X73774904Y-65634809D01*
X73653952Y-65574333D01*
X73412047Y-65574333D01*
X73291095Y-65634809D01*
X73230619Y-65695285D01*
X73170142Y-65816238D01*
%TO.C,C7*%
X93006333Y-85035571D02*
X92945857Y-85096047D01*
X92764428Y-85156523D01*
X92643476Y-85156523D01*
X92462047Y-85096047D01*
X92341095Y-84975095D01*
X92280619Y-84854142D01*
X92220142Y-84612238D01*
X92220142Y-84430809D01*
X92280619Y-84188904D01*
X92341095Y-84067952D01*
X92462047Y-83947000D01*
X92643476Y-83886523D01*
X92764428Y-83886523D01*
X92945857Y-83947000D01*
X93006333Y-84007476D01*
X93429666Y-83886523D02*
X94276333Y-83886523D01*
X93732047Y-85156523D01*
%TO.C,C8*%
X85894333Y-85289571D02*
X85833857Y-85350047D01*
X85652428Y-85410523D01*
X85531476Y-85410523D01*
X85350047Y-85350047D01*
X85229095Y-85229095D01*
X85168619Y-85108142D01*
X85108142Y-84866238D01*
X85108142Y-84684809D01*
X85168619Y-84442904D01*
X85229095Y-84321952D01*
X85350047Y-84201000D01*
X85531476Y-84140523D01*
X85652428Y-84140523D01*
X85833857Y-84201000D01*
X85894333Y-84261476D01*
X86620047Y-84684809D02*
X86499095Y-84624333D01*
X86438619Y-84563857D01*
X86378142Y-84442904D01*
X86378142Y-84382428D01*
X86438619Y-84261476D01*
X86499095Y-84201000D01*
X86620047Y-84140523D01*
X86861952Y-84140523D01*
X86982904Y-84201000D01*
X87043380Y-84261476D01*
X87103857Y-84382428D01*
X87103857Y-84442904D01*
X87043380Y-84563857D01*
X86982904Y-84624333D01*
X86861952Y-84684809D01*
X86620047Y-84684809D01*
X86499095Y-84745285D01*
X86438619Y-84805761D01*
X86378142Y-84926714D01*
X86378142Y-85168619D01*
X86438619Y-85289571D01*
X86499095Y-85350047D01*
X86620047Y-85410523D01*
X86861952Y-85410523D01*
X86982904Y-85350047D01*
X87043380Y-85289571D01*
X87103857Y-85168619D01*
X87103857Y-84926714D01*
X87043380Y-84805761D01*
X86982904Y-84745285D01*
X86861952Y-84684809D01*
%TO.C,C9*%
X92752333Y-75383571D02*
X92691857Y-75444047D01*
X92510428Y-75504523D01*
X92389476Y-75504523D01*
X92208047Y-75444047D01*
X92087095Y-75323095D01*
X92026619Y-75202142D01*
X91966142Y-74960238D01*
X91966142Y-74778809D01*
X92026619Y-74536904D01*
X92087095Y-74415952D01*
X92208047Y-74295000D01*
X92389476Y-74234523D01*
X92510428Y-74234523D01*
X92691857Y-74295000D01*
X92752333Y-74355476D01*
X93357095Y-75504523D02*
X93599000Y-75504523D01*
X93719952Y-75444047D01*
X93780428Y-75383571D01*
X93901380Y-75202142D01*
X93961857Y-74960238D01*
X93961857Y-74476428D01*
X93901380Y-74355476D01*
X93840904Y-74295000D01*
X93719952Y-74234523D01*
X93478047Y-74234523D01*
X93357095Y-74295000D01*
X93296619Y-74355476D01*
X93236142Y-74476428D01*
X93236142Y-74778809D01*
X93296619Y-74899761D01*
X93357095Y-74960238D01*
X93478047Y-75020714D01*
X93719952Y-75020714D01*
X93840904Y-74960238D01*
X93901380Y-74899761D01*
X93961857Y-74778809D01*
%TO.C,C10*%
X72843571Y-73859571D02*
X72783095Y-73920047D01*
X72601666Y-73980523D01*
X72480714Y-73980523D01*
X72299285Y-73920047D01*
X72178333Y-73799095D01*
X72117857Y-73678142D01*
X72057380Y-73436238D01*
X72057380Y-73254809D01*
X72117857Y-73012904D01*
X72178333Y-72891952D01*
X72299285Y-72771000D01*
X72480714Y-72710523D01*
X72601666Y-72710523D01*
X72783095Y-72771000D01*
X72843571Y-72831476D01*
X74053095Y-73980523D02*
X73327380Y-73980523D01*
X73690238Y-73980523D02*
X73690238Y-72710523D01*
X73569285Y-72891952D01*
X73448333Y-73012904D01*
X73327380Y-73073380D01*
X74839285Y-72710523D02*
X74960238Y-72710523D01*
X75081190Y-72771000D01*
X75141666Y-72831476D01*
X75202142Y-72952428D01*
X75262619Y-73194333D01*
X75262619Y-73496714D01*
X75202142Y-73738619D01*
X75141666Y-73859571D01*
X75081190Y-73920047D01*
X74960238Y-73980523D01*
X74839285Y-73980523D01*
X74718333Y-73920047D01*
X74657857Y-73859571D01*
X74597380Y-73738619D01*
X74536904Y-73496714D01*
X74536904Y-73194333D01*
X74597380Y-72952428D01*
X74657857Y-72831476D01*
X74718333Y-72771000D01*
X74839285Y-72710523D01*
%TO.C,C11*%
X81479571Y-73859571D02*
X81419095Y-73920047D01*
X81237666Y-73980523D01*
X81116714Y-73980523D01*
X80935285Y-73920047D01*
X80814333Y-73799095D01*
X80753857Y-73678142D01*
X80693380Y-73436238D01*
X80693380Y-73254809D01*
X80753857Y-73012904D01*
X80814333Y-72891952D01*
X80935285Y-72771000D01*
X81116714Y-72710523D01*
X81237666Y-72710523D01*
X81419095Y-72771000D01*
X81479571Y-72831476D01*
X82689095Y-73980523D02*
X81963380Y-73980523D01*
X82326238Y-73980523D02*
X82326238Y-72710523D01*
X82205285Y-72891952D01*
X82084333Y-73012904D01*
X81963380Y-73073380D01*
X83898619Y-73980523D02*
X83172904Y-73980523D01*
X83535761Y-73980523D02*
X83535761Y-72710523D01*
X83414809Y-72891952D01*
X83293857Y-73012904D01*
X83172904Y-73073380D01*
%TO.C,C12*%
X72873571Y-75383571D02*
X72813095Y-75444047D01*
X72631666Y-75504523D01*
X72510714Y-75504523D01*
X72329285Y-75444047D01*
X72208333Y-75323095D01*
X72147857Y-75202142D01*
X72087380Y-74960238D01*
X72087380Y-74778809D01*
X72147857Y-74536904D01*
X72208333Y-74415952D01*
X72329285Y-74295000D01*
X72510714Y-74234523D01*
X72631666Y-74234523D01*
X72813095Y-74295000D01*
X72873571Y-74355476D01*
X74083095Y-75504523D02*
X73357380Y-75504523D01*
X73720238Y-75504523D02*
X73720238Y-74234523D01*
X73599285Y-74415952D01*
X73478333Y-74536904D01*
X73357380Y-74597380D01*
X74566904Y-74355476D02*
X74627380Y-74295000D01*
X74748333Y-74234523D01*
X75050714Y-74234523D01*
X75171666Y-74295000D01*
X75232142Y-74355476D01*
X75292619Y-74476428D01*
X75292619Y-74597380D01*
X75232142Y-74778809D01*
X74506428Y-75504523D01*
X75292619Y-75504523D01*
%TO.C,C13*%
X92655571Y-73605571D02*
X92595095Y-73666047D01*
X92413666Y-73726523D01*
X92292714Y-73726523D01*
X92111285Y-73666047D01*
X91990333Y-73545095D01*
X91929857Y-73424142D01*
X91869380Y-73182238D01*
X91869380Y-73000809D01*
X91929857Y-72758904D01*
X91990333Y-72637952D01*
X92111285Y-72517000D01*
X92292714Y-72456523D01*
X92413666Y-72456523D01*
X92595095Y-72517000D01*
X92655571Y-72577476D01*
X93865095Y-73726523D02*
X93139380Y-73726523D01*
X93502238Y-73726523D02*
X93502238Y-72456523D01*
X93381285Y-72637952D01*
X93260333Y-72758904D01*
X93139380Y-72819380D01*
X94288428Y-72456523D02*
X95074619Y-72456523D01*
X94651285Y-72940333D01*
X94832714Y-72940333D01*
X94953666Y-73000809D01*
X95014142Y-73061285D01*
X95074619Y-73182238D01*
X95074619Y-73484619D01*
X95014142Y-73605571D01*
X94953666Y-73666047D01*
X94832714Y-73726523D01*
X94469857Y-73726523D01*
X94348904Y-73666047D01*
X94288428Y-73605571D01*
%TO.C,C14*%
X81479571Y-75637571D02*
X81419095Y-75698047D01*
X81237666Y-75758523D01*
X81116714Y-75758523D01*
X80935285Y-75698047D01*
X80814333Y-75577095D01*
X80753857Y-75456142D01*
X80693380Y-75214238D01*
X80693380Y-75032809D01*
X80753857Y-74790904D01*
X80814333Y-74669952D01*
X80935285Y-74549000D01*
X81116714Y-74488523D01*
X81237666Y-74488523D01*
X81419095Y-74549000D01*
X81479571Y-74609476D01*
X82689095Y-75758523D02*
X81963380Y-75758523D01*
X82326238Y-75758523D02*
X82326238Y-74488523D01*
X82205285Y-74669952D01*
X82084333Y-74790904D01*
X81963380Y-74851380D01*
X83777666Y-74911857D02*
X83777666Y-75758523D01*
X83475285Y-74428047D02*
X83172904Y-75335190D01*
X83959095Y-75335190D01*
%TO.C,C17*%
X64381571Y-74113571D02*
X64321095Y-74174047D01*
X64139666Y-74234523D01*
X64018714Y-74234523D01*
X63837285Y-74174047D01*
X63716333Y-74053095D01*
X63655857Y-73932142D01*
X63595380Y-73690238D01*
X63595380Y-73508809D01*
X63655857Y-73266904D01*
X63716333Y-73145952D01*
X63837285Y-73025000D01*
X64018714Y-72964523D01*
X64139666Y-72964523D01*
X64321095Y-73025000D01*
X64381571Y-73085476D01*
X65591095Y-74234523D02*
X64865380Y-74234523D01*
X65228238Y-74234523D02*
X65228238Y-72964523D01*
X65107285Y-73145952D01*
X64986333Y-73266904D01*
X64865380Y-73327380D01*
X66014428Y-72964523D02*
X66861095Y-72964523D01*
X66316809Y-74234523D01*
%TO.C,C18*%
X64461571Y-75637571D02*
X64401095Y-75698047D01*
X64219666Y-75758523D01*
X64098714Y-75758523D01*
X63917285Y-75698047D01*
X63796333Y-75577095D01*
X63735857Y-75456142D01*
X63675380Y-75214238D01*
X63675380Y-75032809D01*
X63735857Y-74790904D01*
X63796333Y-74669952D01*
X63917285Y-74549000D01*
X64098714Y-74488523D01*
X64219666Y-74488523D01*
X64401095Y-74549000D01*
X64461571Y-74609476D01*
X65671095Y-75758523D02*
X64945380Y-75758523D01*
X65308238Y-75758523D02*
X65308238Y-74488523D01*
X65187285Y-74669952D01*
X65066333Y-74790904D01*
X64945380Y-74851380D01*
X66396809Y-75032809D02*
X66275857Y-74972333D01*
X66215380Y-74911857D01*
X66154904Y-74790904D01*
X66154904Y-74730428D01*
X66215380Y-74609476D01*
X66275857Y-74549000D01*
X66396809Y-74488523D01*
X66638714Y-74488523D01*
X66759666Y-74549000D01*
X66820142Y-74609476D01*
X66880619Y-74730428D01*
X66880619Y-74790904D01*
X66820142Y-74911857D01*
X66759666Y-74972333D01*
X66638714Y-75032809D01*
X66396809Y-75032809D01*
X66275857Y-75093285D01*
X66215380Y-75153761D01*
X66154904Y-75274714D01*
X66154904Y-75516619D01*
X66215380Y-75637571D01*
X66275857Y-75698047D01*
X66396809Y-75758523D01*
X66638714Y-75758523D01*
X66759666Y-75698047D01*
X66820142Y-75637571D01*
X66880619Y-75516619D01*
X66880619Y-75274714D01*
X66820142Y-75153761D01*
X66759666Y-75093285D01*
X66638714Y-75032809D01*
%TO.C,C20*%
X64381571Y-72335571D02*
X64321095Y-72396047D01*
X64139666Y-72456523D01*
X64018714Y-72456523D01*
X63837285Y-72396047D01*
X63716333Y-72275095D01*
X63655857Y-72154142D01*
X63595380Y-71912238D01*
X63595380Y-71730809D01*
X63655857Y-71488904D01*
X63716333Y-71367952D01*
X63837285Y-71247000D01*
X64018714Y-71186523D01*
X64139666Y-71186523D01*
X64321095Y-71247000D01*
X64381571Y-71307476D01*
X64865380Y-71307476D02*
X64925857Y-71247000D01*
X65046809Y-71186523D01*
X65349190Y-71186523D01*
X65470142Y-71247000D01*
X65530619Y-71307476D01*
X65591095Y-71428428D01*
X65591095Y-71549380D01*
X65530619Y-71730809D01*
X64804904Y-72456523D01*
X65591095Y-72456523D01*
X66377285Y-71186523D02*
X66498238Y-71186523D01*
X66619190Y-71247000D01*
X66679666Y-71307476D01*
X66740142Y-71428428D01*
X66800619Y-71670333D01*
X66800619Y-71972714D01*
X66740142Y-72214619D01*
X66679666Y-72335571D01*
X66619190Y-72396047D01*
X66498238Y-72456523D01*
X66377285Y-72456523D01*
X66256333Y-72396047D01*
X66195857Y-72335571D01*
X66135380Y-72214619D01*
X66074904Y-71972714D01*
X66074904Y-71670333D01*
X66135380Y-71428428D01*
X66195857Y-71307476D01*
X66256333Y-71247000D01*
X66377285Y-71186523D01*
%TO.C,C21*%
X69239571Y-87067571D02*
X69179095Y-87128047D01*
X68997666Y-87188523D01*
X68876714Y-87188523D01*
X68695285Y-87128047D01*
X68574333Y-87007095D01*
X68513857Y-86886142D01*
X68453380Y-86644238D01*
X68453380Y-86462809D01*
X68513857Y-86220904D01*
X68574333Y-86099952D01*
X68695285Y-85979000D01*
X68876714Y-85918523D01*
X68997666Y-85918523D01*
X69179095Y-85979000D01*
X69239571Y-86039476D01*
X69723380Y-86039476D02*
X69783857Y-85979000D01*
X69904809Y-85918523D01*
X70207190Y-85918523D01*
X70328142Y-85979000D01*
X70388619Y-86039476D01*
X70449095Y-86160428D01*
X70449095Y-86281380D01*
X70388619Y-86462809D01*
X69662904Y-87188523D01*
X70449095Y-87188523D01*
X71658619Y-87188523D02*
X70932904Y-87188523D01*
X71295761Y-87188523D02*
X71295761Y-85918523D01*
X71174809Y-86099952D01*
X71053857Y-86220904D01*
X70932904Y-86281380D01*
%TO.C,C22*%
X64207571Y-94542428D02*
X64268047Y-94602904D01*
X64328523Y-94784333D01*
X64328523Y-94905285D01*
X64268047Y-95086714D01*
X64147095Y-95207666D01*
X64026142Y-95268142D01*
X63784238Y-95328619D01*
X63602809Y-95328619D01*
X63360904Y-95268142D01*
X63239952Y-95207666D01*
X63119000Y-95086714D01*
X63058523Y-94905285D01*
X63058523Y-94784333D01*
X63119000Y-94602904D01*
X63179476Y-94542428D01*
X63179476Y-94058619D02*
X63119000Y-93998142D01*
X63058523Y-93877190D01*
X63058523Y-93574809D01*
X63119000Y-93453857D01*
X63179476Y-93393380D01*
X63300428Y-93332904D01*
X63421380Y-93332904D01*
X63602809Y-93393380D01*
X64328523Y-94119095D01*
X64328523Y-93332904D01*
X63179476Y-92849095D02*
X63119000Y-92788619D01*
X63058523Y-92667666D01*
X63058523Y-92365285D01*
X63119000Y-92244333D01*
X63179476Y-92183857D01*
X63300428Y-92123380D01*
X63421380Y-92123380D01*
X63602809Y-92183857D01*
X64328523Y-92909571D01*
X64328523Y-92123380D01*
%TO.C,C24*%
X122881571Y-120704428D02*
X122942047Y-120764904D01*
X123002523Y-120946333D01*
X123002523Y-121067285D01*
X122942047Y-121248714D01*
X122821095Y-121369666D01*
X122700142Y-121430142D01*
X122458238Y-121490619D01*
X122276809Y-121490619D01*
X122034904Y-121430142D01*
X121913952Y-121369666D01*
X121793000Y-121248714D01*
X121732523Y-121067285D01*
X121732523Y-120946333D01*
X121793000Y-120764904D01*
X121853476Y-120704428D01*
X121853476Y-120220619D02*
X121793000Y-120160142D01*
X121732523Y-120039190D01*
X121732523Y-119736809D01*
X121793000Y-119615857D01*
X121853476Y-119555380D01*
X121974428Y-119494904D01*
X122095380Y-119494904D01*
X122276809Y-119555380D01*
X123002523Y-120281095D01*
X123002523Y-119494904D01*
X122155857Y-118406333D02*
X123002523Y-118406333D01*
X121672047Y-118708714D02*
X122579190Y-119011095D01*
X122579190Y-118224904D01*
%TO.C,C25*%
X131490572Y-132230428D02*
X131551048Y-132290904D01*
X131611524Y-132472333D01*
X131611524Y-132593285D01*
X131551048Y-132774714D01*
X131430096Y-132895666D01*
X131309143Y-132956142D01*
X131067239Y-133016619D01*
X130885810Y-133016619D01*
X130643905Y-132956142D01*
X130522953Y-132895666D01*
X130402001Y-132774714D01*
X130341524Y-132593285D01*
X130341524Y-132472333D01*
X130402001Y-132290904D01*
X130462477Y-132230428D01*
X130462477Y-131746619D02*
X130402001Y-131686142D01*
X130341524Y-131565190D01*
X130341524Y-131262809D01*
X130402001Y-131141857D01*
X130462477Y-131081380D01*
X130583429Y-131020904D01*
X130704381Y-131020904D01*
X130885810Y-131081380D01*
X131611524Y-131807095D01*
X131611524Y-131020904D01*
X130341524Y-129871857D02*
X130341524Y-130476619D01*
X130946286Y-130537095D01*
X130885810Y-130476619D01*
X130825334Y-130355666D01*
X130825334Y-130053285D01*
X130885810Y-129932333D01*
X130946286Y-129871857D01*
X131067239Y-129811380D01*
X131369620Y-129811380D01*
X131490572Y-129871857D01*
X131551048Y-129932333D01*
X131611524Y-130053285D01*
X131611524Y-130355666D01*
X131551048Y-130476619D01*
X131490572Y-130537095D01*
%TO.C,C26*%
X131263571Y-120244428D02*
X131324047Y-120304904D01*
X131384523Y-120486333D01*
X131384523Y-120607285D01*
X131324047Y-120788714D01*
X131203095Y-120909666D01*
X131082142Y-120970142D01*
X130840238Y-121030619D01*
X130658809Y-121030619D01*
X130416904Y-120970142D01*
X130295952Y-120909666D01*
X130175000Y-120788714D01*
X130114523Y-120607285D01*
X130114523Y-120486333D01*
X130175000Y-120304904D01*
X130235476Y-120244428D01*
X130235476Y-119760619D02*
X130175000Y-119700142D01*
X130114523Y-119579190D01*
X130114523Y-119276809D01*
X130175000Y-119155857D01*
X130235476Y-119095380D01*
X130356428Y-119034904D01*
X130477380Y-119034904D01*
X130658809Y-119095380D01*
X131384523Y-119821095D01*
X131384523Y-119034904D01*
X130114523Y-117946333D02*
X130114523Y-118188238D01*
X130175000Y-118309190D01*
X130235476Y-118369666D01*
X130416904Y-118490619D01*
X130658809Y-118551095D01*
X131142619Y-118551095D01*
X131263571Y-118490619D01*
X131324047Y-118430142D01*
X131384523Y-118309190D01*
X131384523Y-118067285D01*
X131324047Y-117946333D01*
X131263571Y-117885857D01*
X131142619Y-117825380D01*
X130840238Y-117825380D01*
X130719285Y-117885857D01*
X130658809Y-117946333D01*
X130598333Y-118067285D01*
X130598333Y-118309190D01*
X130658809Y-118430142D01*
X130719285Y-118490619D01*
X130840238Y-118551095D01*
%TO.C,C27*%
X140661571Y-132182428D02*
X140722047Y-132242904D01*
X140782523Y-132424333D01*
X140782523Y-132545285D01*
X140722047Y-132726714D01*
X140601095Y-132847666D01*
X140480142Y-132908142D01*
X140238238Y-132968619D01*
X140056809Y-132968619D01*
X139814904Y-132908142D01*
X139693952Y-132847666D01*
X139573000Y-132726714D01*
X139512523Y-132545285D01*
X139512523Y-132424333D01*
X139573000Y-132242904D01*
X139633476Y-132182428D01*
X139633476Y-131698619D02*
X139573000Y-131638142D01*
X139512523Y-131517190D01*
X139512523Y-131214809D01*
X139573000Y-131093857D01*
X139633476Y-131033380D01*
X139754428Y-130972904D01*
X139875380Y-130972904D01*
X140056809Y-131033380D01*
X140782523Y-131759095D01*
X140782523Y-130972904D01*
X139512523Y-130549571D02*
X139512523Y-129702904D01*
X140782523Y-130247190D01*
%TO.C,C30*%
X140153571Y-120752428D02*
X140214047Y-120812904D01*
X140274523Y-120994333D01*
X140274523Y-121115285D01*
X140214047Y-121296714D01*
X140093095Y-121417666D01*
X139972142Y-121478142D01*
X139730238Y-121538619D01*
X139548809Y-121538619D01*
X139306904Y-121478142D01*
X139185952Y-121417666D01*
X139065000Y-121296714D01*
X139004523Y-121115285D01*
X139004523Y-120994333D01*
X139065000Y-120812904D01*
X139125476Y-120752428D01*
X139004523Y-120329095D02*
X139004523Y-119542904D01*
X139488333Y-119966238D01*
X139488333Y-119784809D01*
X139548809Y-119663857D01*
X139609285Y-119603380D01*
X139730238Y-119542904D01*
X140032619Y-119542904D01*
X140153571Y-119603380D01*
X140214047Y-119663857D01*
X140274523Y-119784809D01*
X140274523Y-120147666D01*
X140214047Y-120268619D01*
X140153571Y-120329095D01*
X139004523Y-118756714D02*
X139004523Y-118635761D01*
X139065000Y-118514809D01*
X139125476Y-118454333D01*
X139246428Y-118393857D01*
X139488333Y-118333380D01*
X139790714Y-118333380D01*
X140032619Y-118393857D01*
X140153571Y-118454333D01*
X140214047Y-118514809D01*
X140274523Y-118635761D01*
X140274523Y-118756714D01*
X140214047Y-118877666D01*
X140153571Y-118938142D01*
X140032619Y-118998619D01*
X139790714Y-119059095D01*
X139488333Y-119059095D01*
X139246428Y-118998619D01*
X139125476Y-118938142D01*
X139065000Y-118877666D01*
X139004523Y-118756714D01*
%TO.C,J16*%
X142560523Y-55441095D02*
X143467666Y-55441095D01*
X143649095Y-55501571D01*
X143770047Y-55622523D01*
X143830523Y-55803952D01*
X143830523Y-55924904D01*
X143830523Y-54171095D02*
X143830523Y-54896809D01*
X143830523Y-54533952D02*
X142560523Y-54533952D01*
X142741952Y-54654904D01*
X142862904Y-54775857D01*
X142923380Y-54896809D01*
X142560523Y-53082523D02*
X142560523Y-53324428D01*
X142621000Y-53445380D01*
X142681476Y-53505857D01*
X142862904Y-53626809D01*
X143104809Y-53687285D01*
X143588619Y-53687285D01*
X143709571Y-53626809D01*
X143770047Y-53566333D01*
X143830523Y-53445380D01*
X143830523Y-53203476D01*
X143770047Y-53082523D01*
X143709571Y-53022047D01*
X143588619Y-52961571D01*
X143286238Y-52961571D01*
X143165285Y-53022047D01*
X143104809Y-53082523D01*
X143044333Y-53203476D01*
X143044333Y-53445380D01*
X143104809Y-53566333D01*
X143165285Y-53626809D01*
X143286238Y-53687285D01*
%TO.C,JP5*%
D10*
X64500380Y-98623333D02*
X65214666Y-98623333D01*
X65357523Y-98670952D01*
X65452761Y-98766190D01*
X65500380Y-98909047D01*
X65500380Y-99004285D01*
X65500380Y-98147142D02*
X64500380Y-98147142D01*
X64500380Y-97766190D01*
X64548000Y-97670952D01*
X64595619Y-97623333D01*
X64690857Y-97575714D01*
X64833714Y-97575714D01*
X64928952Y-97623333D01*
X64976571Y-97670952D01*
X65024190Y-97766190D01*
X65024190Y-98147142D01*
X64500380Y-96670952D02*
X64500380Y-97147142D01*
X64976571Y-97194761D01*
X64928952Y-97147142D01*
X64881333Y-97051904D01*
X64881333Y-96813809D01*
X64928952Y-96718571D01*
X64976571Y-96670952D01*
X65071809Y-96623333D01*
X65309904Y-96623333D01*
X65405142Y-96670952D01*
X65452761Y-96718571D01*
X65500380Y-96813809D01*
X65500380Y-97051904D01*
X65452761Y-97147142D01*
X65405142Y-97194761D01*
%TO.C,R6*%
X150438380Y-65698666D02*
X149962190Y-66032000D01*
X150438380Y-66270095D02*
X149438380Y-66270095D01*
X149438380Y-65889142D01*
X149486000Y-65793904D01*
X149533619Y-65746285D01*
X149628857Y-65698666D01*
X149771714Y-65698666D01*
X149866952Y-65746285D01*
X149914571Y-65793904D01*
X149962190Y-65889142D01*
X149962190Y-66270095D01*
X149438380Y-64841523D02*
X149438380Y-65032000D01*
X149486000Y-65127238D01*
X149533619Y-65174857D01*
X149676476Y-65270095D01*
X149866952Y-65317714D01*
X150247904Y-65317714D01*
X150343142Y-65270095D01*
X150390761Y-65222476D01*
X150438380Y-65127238D01*
X150438380Y-64936761D01*
X150390761Y-64841523D01*
X150343142Y-64793904D01*
X150247904Y-64746285D01*
X150009809Y-64746285D01*
X149914571Y-64793904D01*
X149866952Y-64841523D01*
X149819333Y-64936761D01*
X149819333Y-65127238D01*
X149866952Y-65222476D01*
X149914571Y-65270095D01*
X150009809Y-65317714D01*
%TO.C,R16*%
X136596380Y-66044857D02*
X136120190Y-66378190D01*
X136596380Y-66616285D02*
X135596380Y-66616285D01*
X135596380Y-66235333D01*
X135644000Y-66140095D01*
X135691619Y-66092476D01*
X135786857Y-66044857D01*
X135929714Y-66044857D01*
X136024952Y-66092476D01*
X136072571Y-66140095D01*
X136120190Y-66235333D01*
X136120190Y-66616285D01*
X136596380Y-65092476D02*
X136596380Y-65663904D01*
X136596380Y-65378190D02*
X135596380Y-65378190D01*
X135739238Y-65473428D01*
X135834476Y-65568666D01*
X135882095Y-65663904D01*
X135596380Y-64235333D02*
X135596380Y-64425809D01*
X135644000Y-64521047D01*
X135691619Y-64568666D01*
X135834476Y-64663904D01*
X136024952Y-64711523D01*
X136405904Y-64711523D01*
X136501142Y-64663904D01*
X136548761Y-64616285D01*
X136596380Y-64521047D01*
X136596380Y-64330571D01*
X136548761Y-64235333D01*
X136501142Y-64187714D01*
X136405904Y-64140095D01*
X136167809Y-64140095D01*
X136072571Y-64187714D01*
X136024952Y-64235333D01*
X135977333Y-64330571D01*
X135977333Y-64521047D01*
X136024952Y-64616285D01*
X136072571Y-64663904D01*
X136167809Y-64711523D01*
%TO.C,R17*%
X72712380Y-91302857D02*
X72236190Y-91636190D01*
X72712380Y-91874285D02*
X71712380Y-91874285D01*
X71712380Y-91493333D01*
X71760000Y-91398095D01*
X71807619Y-91350476D01*
X71902857Y-91302857D01*
X72045714Y-91302857D01*
X72140952Y-91350476D01*
X72188571Y-91398095D01*
X72236190Y-91493333D01*
X72236190Y-91874285D01*
X72712380Y-90350476D02*
X72712380Y-90921904D01*
X72712380Y-90636190D02*
X71712380Y-90636190D01*
X71855238Y-90731428D01*
X71950476Y-90826666D01*
X71998095Y-90921904D01*
X71712380Y-90017142D02*
X71712380Y-89350476D01*
X72712380Y-89779047D01*
%TO.C,U3*%
X66028380Y-92709904D02*
X66837904Y-92709904D01*
X66933142Y-92662285D01*
X66980761Y-92614666D01*
X67028380Y-92519428D01*
X67028380Y-92328952D01*
X66980761Y-92233714D01*
X66933142Y-92186095D01*
X66837904Y-92138476D01*
X66028380Y-92138476D01*
X66028380Y-91757523D02*
X66028380Y-91138476D01*
X66409333Y-91471809D01*
X66409333Y-91328952D01*
X66456952Y-91233714D01*
X66504571Y-91186095D01*
X66599809Y-91138476D01*
X66837904Y-91138476D01*
X66933142Y-91186095D01*
X66980761Y-91233714D01*
X67028380Y-91328952D01*
X67028380Y-91614666D01*
X66980761Y-91709904D01*
X66933142Y-91757523D01*
%TO.C,J12*%
X131830380Y-147113523D02*
X132544666Y-147113523D01*
X132687523Y-147161142D01*
X132782761Y-147256380D01*
X132830380Y-147399238D01*
X132830380Y-147494476D01*
X132830380Y-146113523D02*
X132830380Y-146684952D01*
X132830380Y-146399238D02*
X131830380Y-146399238D01*
X131973238Y-146494476D01*
X132068476Y-146589714D01*
X132116095Y-146684952D01*
X131925619Y-145732571D02*
X131878000Y-145684952D01*
X131830380Y-145589714D01*
X131830380Y-145351619D01*
X131878000Y-145256380D01*
X131925619Y-145208761D01*
X132020857Y-145161142D01*
X132116095Y-145161142D01*
X132258952Y-145208761D01*
X132830380Y-145780190D01*
X132830380Y-145161142D01*
%TO.C,TP1*%
X65032095Y-86276380D02*
X65603523Y-86276380D01*
X65317809Y-87276380D02*
X65317809Y-86276380D01*
X65936857Y-87276380D02*
X65936857Y-86276380D01*
X66317809Y-86276380D01*
X66413047Y-86324000D01*
X66460666Y-86371619D01*
X66508285Y-86466857D01*
X66508285Y-86609714D01*
X66460666Y-86704952D01*
X66413047Y-86752571D01*
X66317809Y-86800190D01*
X65936857Y-86800190D01*
X67460666Y-87276380D02*
X66889238Y-87276380D01*
X67174952Y-87276380D02*
X67174952Y-86276380D01*
X67079714Y-86419238D01*
X66984476Y-86514476D01*
X66889238Y-86562095D01*
%TD*%
M02*
